<svg height="100%" id="svg3975" preserveAspectRatio="xMinYMin meet" viewBox="0 0 812.75 600.25" width="100%" xmlns="http://www.w3.org/2000/svg">
<g id="layer1" transform="translate(-100.8842,-350.2296)">
<path d="m904.9417,350.7642-.002,18.3522v29.6744l-36.4003,152.1414h-94.6697l-32.2145-115.713h-175.0885v50.045h-74.808v-50.045h-166.417v-16.885h-56.4v103.0261h-76.7185l-.0189,109.308h13.044l-.044,23.95h-12.9901v20.988h12.9901v23.95h-13v7.5712 102.5032l66.627.0253 .023,140.3407h-144.4128l-.0002-244.364v-6.0763h-13.021v-23.95h-5e-005v-20.988h20.576-20.576v-23.95h13.0212v-279.904h154.5003v12.4h56.4v-12.4z" fill="#999" id="4floor" stroke="#000"/>
<path d="m166.1353,630.6563h39.196c3.8125,1.3116 11.1875,16.5759 0,23.95h-39.2681z" fill="#fff" id="a417" stroke="#000"/>
<path d="m758.7002,496.3622h26.0787l14.5371,54.5702-25.746-.0002z" fill="none" id="path4757" stroke="#000"/>
<path d="m491.4587,485.2642v-62.6076h47.624 27.4845v62.6076z" fill="#fff" id="a466" stroke="#000"/>
<path d="m268.9188,418.3493v43.3585h-35.2435v-43.1527z" fill="#fff" id="path5420" stroke="#000"/>
<path d="m101.4562,630.6563h41.247v23.95h-41.319z" fill="#fff" id="a416" stroke="#000"/>
<path d="m333.8793,401.3562v31.9" fill="none" id="path3236" stroke="#000" stroke-width=".6193"/>
<path d="m327.3585,403.4063h6.5188 6.5189" fill="none" id="path3238" stroke="#000" stroke-width=".6193"/>
<path d="m327.3585,405.4063h6.5188 6.5189" fill="none" id="path3240" stroke="#000" stroke-width=".6193"/>
<path d="m327.3585,407.4063h6.5188 6.5189" fill="none" id="path3242" stroke="#000" stroke-width=".6193"/>
<path d="m327.3585,409.4063h6.5188 6.5189" fill="none" id="path3244" stroke="#000" stroke-width=".6193"/>
<path d="m327.3585,411.4063h6.5188 6.5189" fill="none" id="path3246" stroke="#000" stroke-width=".6193"/>
<path d="m327.3585,413.4063h6.5188 6.5189" fill="none" id="path3248" stroke="#000" stroke-width=".6193"/>
<path d="m327.3585,415.4063h6.5188 6.5189" fill="none" id="path3250" stroke="#000" stroke-width=".6193"/>
<path d="m327.3585,417.4063h6.5188 6.5189" fill="none" id="path3252" stroke="#000" stroke-width=".6193"/>
<path d="m327.3585,419.4063h6.5188 6.5189" fill="none" id="path3254" stroke="#000" stroke-width=".6193"/>
<path d="m327.3585,421.4063h6.5188 6.5189" fill="none" id="path3256" stroke="#000" stroke-width=".6193"/>
<path d="m327.3585,423.4063h6.5188 6.5189" fill="none" id="path3258" stroke="#000" stroke-width=".6193"/>
<path d="m327.3585,425.4063h6.5188 6.5189" fill="none" id="path3260" stroke="#000" stroke-width=".6193"/>
<path d="m327.3585,427.4063h6.5188 6.5189" fill="none" id="path3262" stroke="#000" stroke-width=".6193"/>
<path d="m327.3585,429.4063h6.5188 6.5189" fill="none" id="path3264" stroke="#000" stroke-width=".6193"/>
<path d="m327.3585,431.4063h6.5188 6.5189" fill="none" id="path3266" stroke="#000" stroke-width=".6193"/>
<path d="m699.0749,178.7124h25.963l8.4969,31.9699h-25.721z" fill="#fff" id="path5673" stroke="#000" transform="translate(65.7813,340.25)"/><text font-family="Sans" font-size="40" id="text4361" letter-spacing="0" transform="translate(65.7813,340.25)" word-spacing="0" x="638" xml:space="preserve" y="572.4063"><tspan id="tspan4363" x="638" y="572.4063"></tspan></text><text font-family="Sans" font-size="10.953" id="text3528" letter-spacing="0" transform="scale(.913,1.096)" word-spacing="0" x="133.2554" xml:space="preserve" y="586.6196"><tspan id="tspan3530" x="133.2554" y="586.6196">416</tspan></text><text font-family="Sans" font-size="10.953" id="text3536" letter-spacing="0" transform="scale(.913,1.096)" word-spacing="0" x="139.3314" xml:space="preserve" y="487.8712"><tspan id="tspan3538" x="139.3314" y="487.8712">316</tspan></text>
<path d="m348.9844,399.6646v35.5436h-23.6422v-35.5436z" fill="#fff" id="path5245" stroke="#000"/>
<path d="m161.2014,521.4146 30.9765-.0151-.0002,23.9563h-30.9765z" fill="#fff" id="path5422" stroke="#000" stroke-width=".9887"/>
<path d="m166.1353,675.5938h39.196c3.8125,1.3116 11.1875,16.5759 0,23.95h-39.2681z" fill="#fff" id="path8313" stroke="#000"/>
<path d="m258.8312,858.5368v43.3585h-35.3434v-43.1527z" fill="#fff" id="path8512" stroke="#000"/>
<path d="m741.655,399.6646h-43.6761v35.5348h43.6761z" fill="#fff" id="path5287-4" stroke="#000"/>
<path d="m697.939,411.4325 4e-005,23.6933h-62.9529v-23.6933z" fill="#fff" id="wc2w-8" stroke="#000"/>
<path d="m653.9396,399.6741 13.2948-.01 8.7761-.009v11.7751h-22.0708z" fill="#fff" id="path3834-8" stroke="#000" stroke-width="1.0662"/>
<path d="m675.9685,399.6646h22.0798v11.7702h-22.0798z" fill="#fff" id="path8303-5" stroke="#000" stroke-width="1.0572"/>
<path d="m805.9552,350.7646h98.987v27.147h-98.987z" fill="#fff" id="a456" stroke="#000"/>
<g id="g8387" transform="matrix(.82935,0,0,1.24435,502.95565,3.30239)">
<path d="m324.4027,433.9853h33.4465" fill="none" id="path8389" stroke="#b3b3b3" stroke-width=".6814"/>
<path d="m323.4996,431.0389h33.049" fill="none" id="path8391" stroke="#b3b3b3" stroke-width=".6773"/>
<path d="m338.8588,434.2471-7.0796-19.4913" fill="none" id="path8393" stroke="#b3b3b3" stroke-width=".5495"/>
<path d="m322.4889,428.6289h32.1215" fill="none" id="path8395" stroke="#b3b3b3" stroke-width=".6678"/>
<path d="m321.4287,426.2189h31.459" fill="none" id="path8397" stroke="#b3b3b3" stroke-width=".6609"/>
<path d="m320.4555,423.8089h30.929" fill="none" id="path8399" stroke="#b3b3b3" stroke-width=".6553"/>
<path d="m319.114,421.3989h31.1937" fill="none" id="path8401" stroke="#b3b3b3" stroke-width=".6581"/>
<path d="m318.1862,418.9889h32.1215" fill="none" id="path8403" stroke="#b3b3b3" stroke-width=".6678"/>
<path d="m317.2557,416.5789h30.2671" fill="none" id="path8405" stroke="#b3b3b3" stroke-width=".6482"/>
</g>
<path d="m799.2252,550.9326-8.406-31.97h28.4767 56.8893l-7.646,31.97z" fill="#fff" id="path4437" stroke="#000"/>
<path d="m408.5482,399.6646v35.5471h-38.999l-.002-35.5471z" fill="#fff" id="a472a" stroke="#000"/>
<path d="m465.4222,399.6645v35.5476h26.0329v-12.5556h-2.191v-22.992z" fill="#fff" id="a470" stroke="#000"/>
<path d="m369.5482,399.6646v35.548h-20.563l-.002-35.548z" fill="#fff" id="a474" stroke="#000"/><text font-family="Sans" font-size="10.953" id="text4279" letter-spacing="0" transform="scale(.913,1.096)" word-spacing="0" x="384.5848" xml:space="preserve" y="375.6108"><tspan id="tspan4281" x="384.5848" y="375.6108">474</tspan></text><text font-family="Sans" font-size="10.953" id="text6707" letter-spacing="0" transform="scale(.913,1.096)" word-spacing="0" x="420.9385" xml:space="preserve" y="375.6108"><tspan id="tspan6709" x="420.9385" y="375.6108">472a</tspan></text>
<path d="m568.7442,350.7646h66.242v35.35h-66.242z" fill="#fff" id="a465" stroke="#000"/>
<path d="m236.5001,130.7234c-.0359-10.1482 8.2736-18.4036 18.5599-18.439s18.654,8.1626 18.6899,18.3107c7e-005,.0214.0001.0428.0001.0641" fill="#fff" id="path3861" stroke="#000" transform="matrix(0,1.16146,-1.0025,0,399.35629,143.78608)"/>
<path d="m268.9422,363.1646h36.606v37.933h-36.606z" fill="#fff" id="a479" stroke="#000"/>
<path d="m305.5482,363.1646h19.794v22.95h-8.994v14.983h-10.8z" fill="#fff" id="a477" stroke="#000"/>
<path d="m210.5482,350.7646v46.51h-67.438v-46.51z" fill="#fff" id="a404" stroke="#000"/>
<path d="m114.4412,350.7296h28.669v46.545h-28.669z" fill="#fff" id="a406a" stroke="#000"/>
<path d="m114.3967,397.23h47.0595v64.3675h-47.0595z" fill="#fff" id="a406" stroke="#000"/>
<path d="m233.6868,461.5978h35.2554v19.5998h-35.2554z" fill="#fff" id="wc4w2" stroke="#000"/>
<path d="m114.3972,481.1976h33.3593l-.0005,40.21h-33.3593z" fill="#fff" id="a408" stroke="#000"/>
<path d="m161.2014,494.2746h72.4857v4.152h35.255l.0452,22.981h-107.7864z" fill="#fff" id="a403" stroke="#000" stroke-width=".911"/><text font-family="Sans" font-size="10.953" id="text3289" letter-spacing="0" transform="scale(.913,1.096)" word-spacing="0" x="129.1293" xml:space="preserve" y="331.1327"><tspan id="tspan3291" x="129.1293" y="331.1327">406a</tspan></text><text font-family="Sans" font-size="10.953" id="text3301" letter-spacing="0" transform="scale(.913,1.096)" word-spacing="0" x="141.6191" xml:space="preserve" y="451.1096"><tspan id="tspan3303" x="141.6191" y="451.1096">408</tspan></text>
<path d="m114.3868,521.3368 33.3791-.0146-.0002,23.9641h-33.3791z" fill="#fff" id="a409" stroke="#000" stroke-width=".9809"/><text font-family="Sans" font-size="10.953" id="text3540" letter-spacing="0" transform="scale(.913,1.096)" word-spacing="0" x="141.6196" xml:space="preserve" y="488.4356"><tspan id="tspan3542" x="141.6196" y="488.4356">409</tspan></text>
<path d="m161.1834,569.2136h31.0461v12.223h-31.0461z" fill="#fff" id="a413" stroke="#000"/>
<path d="m161.2012,593.1356h31.0105v37.521h-31.0105z" fill="#fff" id="a415" stroke="#000"/>
<path d="m114.4432,699.5692 33.3131-.0151-.0002,62.5074h-33.3131z" fill="#fff" id="a422" stroke="#000"/>
<path d="m114.4641,782.41 33.2922-.0151-.0002,27.2356h-33.2922z" fill="#fff" id="a427" stroke="#000"/>
<path d="m161.2119,699.5533h30.989l-.0003,13.9785h-30.989z" fill="#fff" id="a421" stroke="#000" stroke-width="1.0215"/>
<path d="m161.2009,776.0536h31.0105v33.59h-31.0105z" fill="#fff" id="a426" stroke="#000"/>
<path d="m160.4489,793.0355 .0003,1.812" fill="#999" id="path3353" stroke="#999" stroke-width=".5"/>
<path d="m209.5482,809.6423 49.283.025v31.591h-49.283z" fill="#fff" id="a328" stroke="#000"/>
<path d="m223.4882,841.2328 35.343.025v17.3818h-35.343z" fill="#fff" id="wc4w3" stroke="#000"/>
<path d="m114.4383,841.2328 95.1099.0249v78.0379l-95.1099.0001z" fill="#fff" id="cie" stroke="#000"/>
<path d="m223.4882,901.889 35.343.025v17.3818h-35.343z" fill="#fff" id="wc4m" stroke="#000"/>
<path d="m236.5001,130.7234c-.0359-10.1482 8.2736-18.4036 18.5599-18.439s18.654,8.1626 18.6899,18.3107c7e-005,.0214.0001.0428.0001.0641" fill="#fff" id="path3863" stroke="#000" transform="matrix(0,1.16561,-1.00286,0,388.92568,582.83933)"/><text font-family="Sans" font-size="8" id="text4373" letter-spacing="0" word-spacing="0" x="228.9427" xml:space="preserve" y="916.0011"><tspan font-size="16" id="tspan4375" x="228.9427" y="916.0011">WC</tspan></text>
<path d="m114.4412,919.2956h144.402v30.7063h-144.402z" fill="#fff" id="a332" stroke="#000"/>
<path d="m114.3787,545.2203 33.3953-.014-.0002,23.9803h-33.3953z" fill="#fff" id="a410" stroke="#000" stroke-width=".9647"/><text font-family="Sans" font-size="10.953" id="text3544" letter-spacing="0" transform="scale(.913,1.096)" word-spacing="0" x="141.3286" xml:space="preserve" y="508.0404"><tspan id="tspan3546" x="141.3286" y="508.0404">410</tspan></text><text font-family="Sans" font-size="10.953" id="text3548" letter-spacing="0" transform="scale(.913,1.096)" word-spacing="0" x="187.4348" xml:space="preserve" y="529.0795"><tspan id="tspan3550" x="187.4348" y="529.0795">413</tspan></text><text font-family="Sans" font-size="10.953" id="text3556" letter-spacing="0" transform="scale(.913,1.096)" word-spacing="0" x="188.256" xml:space="preserve" y="560.4743"><tspan id="tspan3558" x="188.256" y="560.4743">415</tspan></text>
<path d="m114.3819,593.1439 33.3819-.0146-.0002,37.5273h-33.3819z" fill="#fff" id="a414" stroke="#000" stroke-width=".9781"/><text font-family="Sans" font-size="10.953" id="text3560" letter-spacing="0" transform="scale(.913,1.096)" word-spacing="0" x="141.0714" xml:space="preserve" y="552.9076"><tspan id="tspan3562" x="141.0714" y="552.9076">414</tspan></text>
<path d="m114.3554,569.194 33.4419-.0128-.0002,23.9544h-33.4419z" fill="#fff" id="a412" stroke="#000" stroke-width=".9181"/><text font-family="Sans" font-size="10.953" id="text3564" letter-spacing="0" transform="scale(.913,1.096)" word-spacing="0" x="141.5223" xml:space="preserve" y="530.3096"><tspan id="tspan3566" x="141.5223" y="530.3096">412</tspan></text><text font-family="Sans" font-size="10.953" id="text3339" letter-spacing="0" transform="scale(.913,1.096)" word-spacing="0" x="597.0176" xml:space="preserve" y="396.1478"><tspan id="tspan3341" x="597.0176" y="396.1478">466</tspan></text>
<path d="m699.509,37.6712v25.053l30.762,115.998h85.366l28.755-120.172 .002-20.879z" fill="#fff" id="act" stroke="#000" transform="translate(60.5482,340.2403)"/>
<path d="m741.6552,350.7646h18.402v27.147h-18.402z" fill="#fff" id="a457" stroke="#000" stroke-width=".9295"/><text font-family="Sans" font-size="10.953" id="text6641" letter-spacing="0" transform="scale(.913,1.096)" word-spacing="0" x="813.624" xml:space="preserve" y="330.9112"><tspan id="tspan6643" x="813.624" y="330.9112">457</tspan></text>
<path d="m759.9552,350.7646h46v27.147h-46z" fill="#fff" id="a455" stroke="#000"/>
<path d="m681.107,75.6186 15.5573-.1768 13.7657,51.7524-20.372.0004-8.951-32.1734z" fill="#fff" id="a454" stroke="#000" transform="translate(60.5482,340.2403)"/>
<path d="m690.058,127.1942h20.372l3.036,10.428-15.916,16.345z" fill="#fff" id="a453" stroke="#000" transform="translate(60.5482,340.2403)"/><text font-family="Sans" font-size="10.953" id="text3368" letter-spacing="0" transform="scale(.913,1.096)" word-spacing="0" x="861.6323" xml:space="preserve" y="330.5885"><tspan id="tspan3370" x="861.6323" y="330.5885">455</tspan></text><text font-family="Sans" font-size="10.953" id="text3372" letter-spacing="0" transform="scale(.913,1.096)" word-spacing="0" x="964.3668" xml:space="preserve" y="329.6203"><tspan id="tspan3374" x="964.3668" y="329.6203">456</tspan></text><text font-family="Sans" font-size="10.953" id="text3376" letter-spacing="0" transform="scale(.913,1.096)" word-spacing="0" x="817.1102" xml:space="preserve" y="406.7378"><tspan id="tspan3378" x="817.1102" y="406.7378">454</tspan></text><text font-family="Sans" font-size="10.953" id="text3364" letter-spacing="0" transform="scale(.913,1.096)" word-spacing="0" x="826.4065" xml:space="preserve" y="437.395"><tspan id="tspan3366" x="826.4065" y="437.395">453</tspan></text><text font-family="Sans" font-size="12" id="text3380" letter-spacing="0" word-spacing="0" x="776.4938" xml:space="preserve" y="434.3777"><tspan font-size="12" id="tspan3382" x="776.4938" y="434.3777"></tspan></text>
<path d="m720.2957,350.7646h21.3382v35.3502h-21.3382z" fill="#fff" id="a459" stroke="#000" stroke-width=".9998"/><text font-family="Sans" font-size="10.953" id="text3353" letter-spacing="0" transform="scale(.913,1.096)" word-spacing="0" x="791.1578" xml:space="preserve" y="330.6992"><tspan id="tspan3355" x="791.1578" y="330.6992">459</tspan></text>
<path d="m698.9645,350.7646h21.3382v35.3501h-21.3382z" fill="#fff" id="a458" stroke="#000" stroke-width=".9998"/>
<path d="m634.9862,350.7646h64.0444v35.35h-64.0444z" fill="#fff" id="a461" stroke="#000" stroke-width="1.0013"/>
<path d="m634.9862,399.6555v35.5476h-68.4332v-12.5556h2.191v-22.992z" fill="#fff" id="a464" stroke="#000"/><text font-family="Sans" font-size="10.953" id="text6645" letter-spacing="0" transform="scale(.913,1.096)" word-spacing="0" x="741.9304" xml:space="preserve" y="332.3127"><tspan id="tspan6647" x="741.9304" y="332.3127">461</tspan></text><text font-family="Sans" font-size="10.953" id="text6649" letter-spacing="0" transform="scale(.913,1.096)" word-spacing="0" x="767.5296" xml:space="preserve" y="331.3446"><tspan id="tspan6651" x="767.5296" y="331.3446">458</tspan></text><text font-family="Sans" font-size="10.953" id="text6653" letter-spacing="0" transform="scale(.913,1.096)" word-spacing="0" x="672.2077" xml:space="preserve" y="331.0219"><tspan id="tspan6655" x="672.2077" y="331.0219">465</tspan></text><text font-family="Sans" font-size="10.953" id="text6657" letter-spacing="0" transform="scale(.913,1.096)" word-spacing="0" x="669.4963" xml:space="preserve" y="375.2423"><tspan id="tspan6659" x="669.4963" y="375.2423">464</tspan></text><text font-family="Sans" font-size="10.953" id="text6661" letter-spacing="0" transform="scale(.913,1.096)" word-spacing="0" x="513.8166" xml:space="preserve" y="375.3435"><tspan id="tspan6665" x="513.8166" y="375.3435">470</tspan></text>
<path d="m550.3992,350.7646h18.345v35.35h-18.345z" fill="#fff" id="a467" stroke="#000"/>
<path d="m526.8472,350.7646h23.552v35.35h-23.552z" fill="#fff" id="a467a" stroke="#000"/>
<path d="m489.2458,350.7646h19.2504v35.35h-19.2504z" fill="#fff" id="a468" stroke="#000"/>
<path d="m508.4958,350.7646h18.3514v35.35h-18.3514z" fill="#fff" id="a478" stroke="#000"/><text font-family="Sans" font-size="10.953" id="text6683" letter-spacing="0" transform="scale(.913,1.096)" word-spacing="0" x="604.0076" xml:space="preserve" y="331.3642"><tspan id="tspan6685" x="604.0076" y="331.3642">467</tspan></text><text font-family="Sans" font-size="10.953" id="text6687" letter-spacing="0" transform="scale(.913,1.096)" word-spacing="0" x="577.9195" xml:space="preserve" y="331.3642"><tspan id="tspan6689" x="577.9195" y="331.3642">467a</tspan></text><text font-family="Sans" font-size="10.953" id="text6691" letter-spacing="0" transform="scale(.913,1.096)" word-spacing="0" x="557.9932" xml:space="preserve" y="331.3642"><tspan id="tspan6693" x="557.9932" y="331.3642">478</tspan></text><text font-family="Sans" font-size="10.953" id="text6695" letter-spacing="0" transform="scale(.913,1.096)" word-spacing="0" x="537.2072" xml:space="preserve" y="331.3642"><tspan id="tspan6697" x="537.2072" y="331.3642">468</tspan></text>
<path d="m469.9751,350.7646h19.2504v35.35h-19.2504z" fill="#fff" id="a469" stroke="#000"/><text font-family="Sans" font-size="10.953" id="text6701" letter-spacing="0" transform="scale(.913,1.096)" word-spacing="0" x="516.1307" xml:space="preserve" y="331.3642"><tspan id="tspan6703" x="516.1307" y="331.3642">469</tspan></text>
<path d="m465.4277,399.6646v35.5471h-56.8785l-.002-35.5471z" fill="#fff" id="a472" stroke="#000"/><text font-family="Sans" font-size="10.953" id="text4287" letter-spacing="0" transform="scale(.913,1.096)" word-spacing="0" x="487.4787" xml:space="preserve" y="375.4495"><tspan id="tspan4289" x="487.4787" y="375.4495">472</tspan></text><text font-family="Sans" font-size="10.953" id="text6711" letter-spacing="0" transform="scale(.913,1.096)" word-spacing="0" x="312.8976" xml:space="preserve" y="341.7118"><tspan id="tspan6713" x="312.8976" y="341.7118">479</tspan></text><text font-family="Sans" font-size="10.953" id="text6715" letter-spacing="0" transform="scale(.913,1.096)" word-spacing="0" x="336.1934" xml:space="preserve" y="342.6346"><tspan id="tspan6719" x="336.1934" y="342.6346">477</tspan></text>
<path d="m417.5752,350.7646h52.4v35.35h-52.4z" fill="#fff" id="a471" stroke="#000"/>
<path d="m398.3109,350.7646h19.2504v35.35h-19.2504z" fill="#fff" id="a473" stroke="#000"/>
<path d="m264.794,10.5242h72.969v35.35h-72.969z" fill="#fff" id="a475" stroke="#000" transform="translate(60.5482,340.2403)"/><text font-family="Sans" font-size="10.953" id="text6729" letter-spacing="0" transform="scale(.913,1.096)" word-spacing="0" x="412.7215" xml:space="preserve" y="331.5704"><tspan id="tspan6731" x="412.7215" y="331.5704">475</tspan></text><text font-family="Sans" font-size="10.953" id="text6733" letter-spacing="0" transform="scale(.913,1.096)" word-spacing="0" x="438.194" xml:space="preserve" y="330.2013"><tspan id="tspan6735" x="438.194" y="330.2013">473</tspan></text><text font-family="Sans" font-size="10.953" id="text6737" letter-spacing="0" transform="scale(.913,1.096)" word-spacing="0" x="491.8776" xml:space="preserve" y="330.6577"><tspan id="tspan6739" x="491.8776" y="330.6577">471</tspan></text>
<path d="m234.0422,350.7646v34.61h-23.494v-34.61z" fill="#fff" id="a401" stroke="#000"/>
<path d="m173.494,10.5242h34.9v46.51h-24.5462l-.3535-11.9h-10.0002z" fill="#fff" id="a402" stroke="#000" transform="translate(60.5482,340.2403)"/><text font-family="Sans" font-size="10.953" id="text6745" letter-spacing="0" transform="scale(.913,1.096)" word-spacing="0" x="204.4951" xml:space="preserve" y="330.9207"><tspan id="tspan6747" x="204.4951" y="330.9207">404</tspan></text><text font-family="Sans" font-size="10.953" id="text6749" letter-spacing="0" transform="scale(.913,1.096)" word-spacing="0" x="234.4879" xml:space="preserve" y="331.6673"><tspan id="tspan6751" x="234.4879" y="331.6673">401</tspan></text><text font-family="Sans" font-size="10.953" id="text6753" letter-spacing="0" transform="scale(.913,1.096)" word-spacing="0" x="266.6379" xml:space="preserve" y="332.3127"><tspan id="tspan6755" x="266.6379" y="332.3127">402</tspan></text>
<path d="m233.6868,481.1976h35.2554v17.229h-35.2554z" fill="#fff" id="path6757" stroke="#000"/>
<path d="m114.4412,461.5978h59.801v19.5998h-59.801z" fill="#fff" id="a407" stroke="#000"/>
<path d="m100.908,57.0342h62.492v64.323h-19.4v19.6h-30.306v-19.6h-12.786z" fill="#fff" id="a405" stroke="#000" transform="translate(60.5482,340.2403)"/>
<path d="m144,121.3572h19.4v19.6h-19.4z" fill="#fff" id="path6786" stroke="#000" transform="translate(60.5482,340.2403)"/><text font-family="Sans" font-size="8" id="text6788" letter-spacing="0" word-spacing="0" x="238.7963" xml:space="preserve" y="477.5011"><tspan font-size="16" id="tspan6790" x="238.7963" y="477.5011">WC</tspan></text><text font-family="Sans" font-size="10.953" id="text6792" letter-spacing="0" transform="scale(.913,1.096)" word-spacing="0" x="154.8756" xml:space="preserve" y="373.8592"><tspan id="tspan6794" x="154.8756" y="373.8592">406</tspan></text><text font-family="Sans" font-size="10.953" id="text6796" letter-spacing="0" transform="scale(.913,1.096)" word-spacing="0" x="220.3368" xml:space="preserve" y="372.7437"><tspan id="tspan6798" x="220.3368" y="372.7437">405</tspan></text><text font-family="Sans" font-size="10.953" id="text6800" letter-spacing="0" transform="scale(.913,1.096)" word-spacing="0" x="167.7487" xml:space="preserve" y="433.361"><tspan id="tspan6802" x="167.7487" y="433.361">407</tspan></text><text font-family="Sans" font-size="10.953" id="text6804" letter-spacing="0" transform="scale(.913,1.096)" word-spacing="0" x="271.8293" xml:space="preserve" y="465.992"><tspan id="tspan6806" x="271.8293" y="465.992">403</tspan></text>
<path d="m161.1834,581.4366h31.0461v11.699h-31.0461z" fill="#fff" id="a413a" stroke="#000"/><text font-family="Sans" font-size="10.953" id="text6842" letter-spacing="0" transform="scale(.913,1.096)" word-spacing="0" x="184.7233" xml:space="preserve" y="539.8378"><tspan id="tspan6844" x="184.7233" y="539.8378">413a</tspan></text>
<path d="m161.2013,545.2203 31.013-.014-.0002,23.9803h-31.013z" fill="#fff" id="a411" stroke="#000"/><text font-family="Sans" font-size="10.953" id="text6848" letter-spacing="0" transform="scale(.913,1.096)" word-spacing="0" x="189.4927" xml:space="preserve" y="511.8528"><tspan id="tspan6850" x="189.4927" y="511.8528">411</tspan></text><text font-family="Sans" font-size="10.953" id="text6852" letter-spacing="0" transform="scale(.913,1.096)" word-spacing="0" x="197.0577" xml:space="preserve" y="589.9479"><tspan id="tspan6854" x="197.0577" y="589.9479">417</tspan></text>
<path d="m100.653,314.3662 31.013-.0005v20.987l-31.013.0005z" fill="#fff" id="a419" stroke="#000" transform="translate(60.5482,340.2403)"/>
<path d="m101.4202,654.6066 41.283-.0005v20.987l-41.283.0005z" fill="#fff" id="a418" stroke="#000"/><text font-family="Sans" font-size="10.953" id="text6860" letter-spacing="0" transform="scale(.913,1.096)" word-spacing="0" x="133.2554" xml:space="preserve" y="606.7001"><tspan id="tspan6862" x="133.2554" y="606.7001">418</tspan></text><text font-family="Sans" font-size="10.953" id="text6864" letter-spacing="0" transform="scale(.913,1.096)" word-spacing="0" x="185.8436" xml:space="preserve" y="610.3511"><tspan id="tspan6866" x="185.8436" y="610.3511">419</tspan></text>
<path d="m101.4562,675.5936h41.247v23.932h-41.319z" fill="#fff" id="a420" stroke="#000"/><text font-family="Sans" font-size="10.953" id="text6870" letter-spacing="0" transform="scale(.913,1.096)" word-spacing="0" x="133.2554" xml:space="preserve" y="627.0089"><tspan id="tspan6872" x="133.2554" y="627.0089">420</tspan></text>
<path d="m114.4641,762.0691 33.2922-.0151-.0002,20.3485h-33.2922z" fill="#fff" id="a425a" stroke="#000"/>
<path d="m161.2119,713.5423h30.989l-.0003,13.9785h-30.989z" fill="#fff" id="a423" stroke="#000" stroke-width="1.0215"/>
<path d="m161.2119,727.5423h30.989l-.0003,13.9785h-30.989z" fill="#fff" id="a424" stroke="#000" stroke-width="1.0215"/>
<path d="m161.2119,741.5423h30.989l-.0003,20.5193h-30.989z" fill="#fff" id="a425" stroke="#000" stroke-width="1.0215"/>
<path d="m161.2119,762.0616h30.989l-.0003,13.9925h-20.9019-10.0871z" fill="#fff" id="a400" stroke="#000" stroke-width="1.0215"/><text font-family="Sans" font-size="10.953" id="text6892" letter-spacing="0" transform="scale(.913,1.096)" word-spacing="0" x="139.4416" xml:space="preserve" y="647.7347"><tspan id="tspan6894" x="139.4416" y="647.7347">422</tspan></text><text font-family="Sans" font-size="10.953" id="text6896" letter-spacing="0" transform="scale(.913,1.096)" word-spacing="0" x="134.9263" xml:space="preserve" y="709.1564"><tspan id="tspan6898" x="134.9263" y="709.1564">425a</tspan></text><text font-family="Sans" font-size="10.953" id="text6900" letter-spacing="0" transform="scale(.913,1.096)" word-spacing="0" x="137.6377" xml:space="preserve" y="729.2369"><tspan id="tspan6902" x="137.6377" y="729.2369">427</tspan></text><text font-family="Sans" font-size="10.953" id="text6904" letter-spacing="0" transform="scale(.913,1.096)" word-spacing="0" x="190.226" xml:space="preserve" y="718.2839"><tspan id="tspan6906" x="190.226" y="718.2839">426</tspan></text><text font-family="Sans" font-size="10.953" id="text6908" letter-spacing="0" transform="scale(.913,1.096)" word-spacing="0" x="190.226" xml:space="preserve" y="705.5054"><tspan id="tspan6910" x="190.226" y="705.5054">400</tspan></text><text font-family="Sans" font-size="10.953" id="text6912" letter-spacing="0" transform="scale(.913,1.096)" word-spacing="0" x="190.226" xml:space="preserve" y="689.0759"><tspan id="tspan6914" x="190.226" y="689.0759">425</tspan></text><text font-family="Sans" font-size="10.953" id="text6916" letter-spacing="0" transform="scale(.913,1.096)" word-spacing="0" x="190.226" xml:space="preserve" y="674.4719"><tspan id="tspan6918" x="190.226" y="674.4719">424</tspan></text><text font-family="Sans" font-size="10.953" id="text6920" letter-spacing="0" transform="scale(.913,1.096)" word-spacing="0" x="190.226" xml:space="preserve" y="661.6934"><tspan id="tspan6922" x="190.226" y="661.6934">423</tspan></text><text font-family="Sans" font-size="10.953" id="text6924" letter-spacing="0" transform="scale(.913,1.096)" word-spacing="0" x="190.226" xml:space="preserve" y="648.9149"><tspan id="tspan6926" x="190.226" y="648.9149">421</tspan></text>
<path d="m114.4772,809.6306h33.2787l.0005,7.4316 13.4448,6e-005v10.4298 13.7537l-46.796-.0003z" fill="#fff" id="a428" stroke="#000"/><text font-family="Sans" font-size="8" id="text6946" letter-spacing="0" word-spacing="0" x="228.9427" xml:space="preserve" y="856.0011"><tspan font-size="16" id="tspan6948" x="228.9427" y="856.0011">WC</tspan></text>
<path d="m161.2012,809.6423 48.347.025v31.591h-48.347z" fill="#fff" id="a429" stroke="#000"/><text font-family="Sans" font-size="7.632" font-weight="bold" id="text6952" letter-spacing="0" word-spacing="0" x="161.88" xml:space="preserve" y="867.8249"><tspan font-size="11.449" font-weight="normal" id="tspan6958" text-anchor="middle" x="163.4676" y="867.8249">ЦЕНТР </tspan><tspan font-size="11.449" font-weight="normal" id="tspan3320" text-anchor="middle" x="163.4676" y="882.1357">ИНТЕРНЕТ </tspan><tspan font-size="11.449" font-weight="normal" id="tspan3318" text-anchor="middle" x="161.88" y="896.4466">ОБРАЗОВАНИЯ</tspan></text><text font-family="Sans" font-size="10.953" id="text6962" letter-spacing="0" transform="scale(.913,1.096)" word-spacing="0" x="207.5124" xml:space="preserve" y="750.0104"><tspan id="tspan6964" x="207.5124" y="750.0104">429</tspan></text><text font-family="Sans" font-size="10.953" id="text6966" letter-spacing="0" transform="scale(.913,1.096)" word-spacing="0" x="155.4748" xml:space="preserve" y="755.1642"><tspan id="tspan6968" x="155.4748" y="755.1642">428</tspan></text>
<path d="m47.5858,406.9811c0-50.8641-.2572-58.2379-2.0316-58.2379-1.7517,0-2.0316-4.665-2.0316-33.8592s.2799-33.8592 2.0316-33.8592c1.7812,0 2.0316-9.1796 2.0316-74.4903v-74.4903h38.5995 38.5995v-43.3398-43.3398h-6.7718-6.7718v-4.7403-4.7403h15.5753 15.5753v6.0947 6.0947h12.1893c9.932,0 12.1893.3762 12.1893,2.0316 0,1.7326 3.6869,2.0316 25.0558,2.0316h25.0558v-7.449-7.449h212.636 212.636v-4.0631c0-4.0631 0-4.0631 8.1262-4.0631h8.1262v12.7973c0,12.9677 1.3825,18.9411 22.9771,99.2768l1.1832,4.4017h-12.2354-12.2355l8.1467-8.7088 8.1467-8.7088-4.1112-15.3312c-2.2611-8.4322-6.0545-22.6448-8.4297-31.5837l-4.3185-16.2524-7.688-.4062-7.688-.4062v-8.0586-8.0586h-45.3714-45.3714v6.0947 6.0947h-8.1262-8.1262v-6.0947-6.0947h-34.5364-34.5364v11.5121 11.5121h-38.5995-38.5995v-11.5121-11.5121h-82.6165-82.6165v9.4806 9.4806h-46.0486-46.0486v37.9223 37.9223h-35.8908-35.8908v69.0729c0,60.4952.2523,69.0728 2.0316,69.0728 1.6365,0 2.0316,2.1068 2.0316,10.835s-.395,10.8349-2.0316,10.8349c-1.6553,0-2.0316,2.2573-2.0316,12.1893s.3762,12.1893 2.0316,12.1893c1.6365,0 2.0316,2.1068 2.0316,10.835s-.395,10.8349-2.0316,10.8349c-1.7743,0-2.0316,7.3738-2.0316,58.2379v58.2379h-6.0947-6.0947v-58.2379z" fill="#f9f9f9" id="path3312" transform="translate(100.8842,350.2296)"/>
<path d="m109.8868,530.2287v-37.9223h6.0947 6.0947v37.9223 37.9224h-6.0947-6.0947v-37.9224z" fill="#f9f9f9" id="path3314" transform="translate(100.8842,350.2296)"/>
<g id="g5289" transform="matrix(1.06738,0,0,1.27304,-22.06787,-127.91656)">
<path d="m325.9587,433.5384h21.1608" fill="none" id="path5247" stroke="#b3b3b3" stroke-width=".542"/>
<path d="m325.9587,431.1282h21.1608" fill="none" id="path5249" stroke="#b3b3b3" stroke-width=".542"/>
<path d="m336.7891,433.8063v-18.9611" fill="none" id="path5265" stroke="#b3b3b3" stroke-width=".542"/>
<path d="m325.9587,428.7183h21.1608" fill="none" id="path5267" stroke="#b3b3b3" stroke-width=".542"/>
<path d="m325.9587,426.3082h21.1608" fill="none" id="path5269" stroke="#b3b3b3" stroke-width=".542"/>
<path d="m325.9587,423.8983h21.1608" fill="none" id="path5271" stroke="#b3b3b3" stroke-width=".542"/>
<path d="m325.9587,421.4882h21.1608" fill="none" id="path5273" stroke="#b3b3b3" stroke-width=".542"/>
<path d="m325.9587,419.0783h21.1608" fill="none" id="path5275" stroke="#b3b3b3" stroke-width=".542"/>
<path d="m325.9587,416.6683h21.1608" fill="none" id="path5277" stroke="#b3b3b3" stroke-width=".542"/>
</g>
<g id="g3875" transform="matrix(0,-1.99169,2.16194,0,-662.76104,1110.37722)">
<path d="m325.9587,431.1282h21.1608" fill="none" id="path3879" stroke="#b3b3b3" stroke-width=".542"/>
<path d="m336.7891,431.3339v-16.4887" fill="none" id="path3881" stroke="#b3b3b3" stroke-width=".5054"/>
<path d="m325.9587,428.7183h21.1608" fill="none" id="path3883" stroke="#b3b3b3" stroke-width=".542"/>
<path d="m325.9587,426.3082h21.1608" fill="none" id="path3885" stroke="#b3b3b3" stroke-width=".542"/>
<path d="m325.9587,423.8983h21.1608" fill="none" id="path3887" stroke="#b3b3b3" stroke-width=".542"/>
<path d="m325.9587,421.4882h21.1608" fill="none" id="path3889" stroke="#b3b3b3" stroke-width=".542"/>
<path d="m325.9587,419.0783h21.1608" fill="none" id="path3891" stroke="#b3b3b3" stroke-width=".542"/>
<path d="m325.9587,416.6683h21.1608" fill="none" id="path3893" stroke="#b3b3b3" stroke-width=".542"/>
</g>
<g id="g3420" transform="matrix(0,-1.08855,1.68199,0,-531.03162,1053.961)">
<path d="m325.9587,431.1282h21.1608" fill="none" id="path3422" stroke="#b3b3b3" stroke-width=".542"/>
<path d="m336.7891,433.5106v-18.6935" fill="none" id="path3424" stroke="#b3b3b3" stroke-width=".5499"/>
<path d="m325.9587,428.7183h21.1608" fill="none" id="path3426" stroke="#b3b3b3" stroke-width=".542"/>
<path d="m325.9587,426.3082h21.1608" fill="none" id="path3428" stroke="#b3b3b3" stroke-width=".542"/>
<path d="m325.9587,423.8983h21.1608" fill="none" id="path3430" stroke="#b3b3b3" stroke-width=".542"/>
<path d="m325.9587,421.4882h21.1608" fill="none" id="path3432" stroke="#b3b3b3" stroke-width=".542"/>
<path d="m325.9587,419.0783h21.1608" fill="none" id="path3434" stroke="#b3b3b3" stroke-width=".542"/>
<path d="m325.9587,416.6683h21.1608" fill="none" id="path3436" stroke="#b3b3b3" stroke-width=".542"/>
<path d="m325.9587,433.5064h21.1608" fill="none" id="path3438" stroke="#b3b3b3" stroke-width=".542"/>
<path d="m325.9587,431.0964h21.1608" fill="none" id="path3440" stroke="#b3b3b3" stroke-width=".542"/>
</g>
<g id="g3466" transform="matrix(0,-1.99169,2.16194,0,-672.85175,1550.46791)">
<path d="m325.9587,431.1282h21.1608" fill="none" id="path3468" stroke="#b3b3b3" stroke-width=".542"/>
<path d="m336.7891,431.3339v-16.4887" fill="none" id="path3470" stroke="#b3b3b3" stroke-width=".5054"/>
<path d="m325.9587,428.7183h21.1608" fill="none" id="path3472" stroke="#b3b3b3" stroke-width=".542"/>
<path d="m325.9587,426.3082h21.1608" fill="none" id="path3474" stroke="#b3b3b3" stroke-width=".542"/>
<path d="m325.9587,423.8983h21.1608" fill="none" id="path3476" stroke="#b3b3b3" stroke-width=".542"/>
<path d="m325.9587,421.4882h21.1608" fill="none" id="path3478" stroke="#b3b3b3" stroke-width=".542"/>
<path d="m325.9587,419.0783h21.1608" fill="none" id="path3480" stroke="#b3b3b3" stroke-width=".542"/>
<path d="m325.9587,416.6683h21.1608" fill="none" id="path3482" stroke="#b3b3b3" stroke-width=".542"/>
</g>
<g id="g3486" transform="matrix(2.02039,0,0,2.16194,39.84836,-496.65513)">
<path d="m336.7891,430.878v-16.0327" fill="none" id="path3490" stroke="#b3b3b3" stroke-width=".4984"/>
<path d="m325.9587,428.7183h21.1608" fill="none" id="path3492" stroke="#b3b3b3" stroke-width=".542"/>
<path d="m325.9587,426.3082h21.1608" fill="none" id="path3494" stroke="#b3b3b3" stroke-width=".542"/>
<path d="m325.9587,423.8983h21.1608" fill="none" id="path3496" stroke="#b3b3b3" stroke-width=".542"/>
<path d="m325.9587,421.4882h21.1608" fill="none" id="path3498" stroke="#b3b3b3" stroke-width=".542"/>
<path d="m325.9587,419.0783h21.1608" fill="none" id="path3500" stroke="#b3b3b3" stroke-width=".542"/>
<path d="m325.9587,416.6683h21.1608" fill="none" id="path3502" stroke="#b3b3b3" stroke-width=".542"/>
</g>
<path d="m565.4949,75.8419-22.1797-4.6417 15.1097-16.8873z" fill="#f00" id="path3532" transform="matrix(.386,-.09419,.08221,.44227,462.39109,450.26929)"/>
<path d="m564.9817,65.5788c0,2.2673-2.5272,4.1052-5.6447,4.1052s-5.6447-1.838-5.6447-4.1052 2.5272-4.1052 5.6447-4.1052 5.6447,1.838 5.6447,4.1052z" fill="#f00" id="path3536" transform="matrix(.46568,0,0,.58221,421.92737,380.28054)"/><text font-family="Sans" font-size="8" id="text3572" letter-spacing="0" word-spacing="0" x="645.5432" xml:space="preserve" y="428.816"><tspan font-size="16" id="tspan3574" x="645.5432" y="428.816">WC</tspan></text><text font-family="Sans" font-size="7.632" font-weight="bold" id="text3287" letter-spacing="0" word-spacing="0" x="853.0738" xml:space="preserve" y="391.7555"><tspan font-size="11.449" font-weight="normal" id="tspan3294" text-anchor="middle" x="853.0738" y="391.7555">АКТОВЫЙ ЗАЛ</tspan></text>
</g>
</svg>
