<svg height="100%" id="svg3975" preserveAspectRatio="xMinYMin meet" viewBox="0 0 812.75 600.25" width="100%" xmlns="http://www.w3.org/2000/svg">
<g id="layer1" transform="translate(-100.5482,-350.2121)">
<path d="m904.9417,350.7642-.002,18.3522v29.6744l-36.4003,152.1414h-94.6697l-32.1429-115.713h-175.1601v50.045h-74.808v-50.045h-166.417v-16.885h-56.4v103.0261h-76.7185l-.0189,109.308h13.044l-.044,23.95h-43.9911v20.988h43.9911v23.95h-13v7.5712 101.5165l66.3154.0253 .023,141.3274h-144.1013l-.0002-244.364v-6.0763h-13.021v-23.95h46.3359v-20.988h-25.76-20.576v-23.95h13.0212v-279.904h154.5003v12.4h56.4v-12.4z" fill="#f9f9f9" id="2floor" stroke="#000"/>
<path d="m166.1353,630.6563h39.196c3.8125,1.3116 11.1875,16.5759 0,23.95h-39.2681z" fill="#fff" id="path8253" stroke="#000"/>
<path d="m758.3,496.3622h26.4789l14.5371,54.5702-25.746-.0002z" fill="none" id="path4757" stroke="#000"/>
<path d="m839.9,496.3622h41.53l3.77-15.7h-41.5z" fill="#fff" id="a259" stroke="#000"/>
<path d="m843.7,480.6622h41.5l3.8-15.7h-41.42z" fill="#fff" id="a260" stroke="#000"/>
<path d="m847.58,464.9622 41.52,1e-005 3.9-16h-41.621z" fill="#fff" id="a261" stroke="#000"/>
<path d="m851.379,448.8738 41.621.0884 4.2-18.742h-41.3z" fill="#fff" id="a262" stroke="#000"/>
<path d="m865.2174,394.7642h39.4771l.002-16.8126h-36.4916z" fill="#fff" id="a264" stroke="#000" stroke-width=".8909"/>
<path d="m784.7789,496.3622-4.4028-15.7h-26.3761l4.3,15.7z" fill="#fff" id="a255" stroke="#000"/>
<path d="m780.364,480.6622-4.864-16.3h-26l4.5,16.3z" fill="#fff" id="a254" stroke="#000"/>
<path d="m775.5,464.3622-4.5-15.4h-25.635l4.135,15.4z" fill="#fff" id="a253" stroke="#000"/>
<path d="m855.9,430.2202 9.385-35.456h39.355v4.027l-7.44,31.429z" fill="#fff" id="a263" stroke="#000"/>
<path d="m904.6237,350.7642v27.2016h-58.0135v-27.2016z" fill="#fff" id="a266" stroke="#000"/>
<path d="m846.594,350.8045v27.1612h-18.1551v-27.2016z" fill="#fff" id="a265" stroke="#000"/>
<path d="m828.439,350.7642v27.2016h-32.8954v-27.2016z" fill="#fff" id="a268" stroke="#000"/>
<path d="m795.5433,350.7642v27.2016h-18.3609v-27.2016z" fill="#fff" id="a269" stroke="#000"/>
<path d="m771,448.9622-4.5648-13.7899h-25.113l3.9777,13.7899z" fill="#fff" id="a252" stroke="#000"/>
<path d="m741.3147,399.6642h-43.6761v35.5613h43.6761z" fill="#fff" id="path5287" stroke="#000"/>
<path d="m766.4353,182.8101-12.5355-35.5077h-12.5773l-.0005,7.1996v28.3081z" fill="#fff" id="a251" stroke="#000" transform="translate(0,252.3622)"/>
<path d="m491.4587,485.2642v-62.6076h74.808l.2,62.6076z" fill="#fff" id="a285" stroke="#000"/>
<path d="m634.6253,399.6642v35.5165h-45.346v-35.5165z" fill="#fff" id="a282" stroke="#000"/>
<path d="m741.3291,350.8238v35.2807h-106.6652v-35.2807z" fill="none" id="path3850" stroke="#000" stroke-width="1.0238"/>
<path d="m718.2777,350.7928h22.9257v35.2953h-22.9257z" fill="#fff" id="a271" stroke="#000" stroke-width="1.0573"/>
<path d="m697.9935,350.783h20.2624v25.3922h-20.2624z" fill="#fff" id="a272" stroke="#000" stroke-width="1.0376"/>
<path d="m677.6995,350.782h20.2644v25.3942h-20.2644z" fill="#fff" id="a273" stroke="#000" stroke-width="1.0356"/>
<path d="m657.4026,350.7831h20.2622v25.3919h-20.2622z" fill="#fff" id="a274" stroke="#000" stroke-width="1.0378"/>
<path d="m634.6102,350.7942 22.9229.0473v35.2452h-22.9229z" fill="#fff" id="a275" stroke="#000" stroke-width="1.0601"/>
<path d="m634.607,350.7642 .0372,35.3524h-68.3397v-35.3524z" fill="#fff" id="a280" stroke="#000"/>
<path d="m566.3365,350.7642v35.3515h-18.6611v-35.3515z" fill="#fff" id="a284" stroke="#000"/>
<path d="m547.6395,350.788v35.3284h-18.6625v-35.3761z" fill="#fff" id="a278" stroke="#000"/>
<path d="m528.9165,350.7642v35.3523h-18.6625v-35.3523z" fill="#fff" id="a277" stroke="#000"/>
<path d="m510.1685,350.7642v35.3525h-18.6629v-35.3525z" fill="#fff" id="a286" stroke="#000"/>
<path d="m491.5057,350.7642v35.353l-41.5624-.002v-35.3506z" fill="#fff" id="a288" stroke="#000"/>
<path d="m449.896,350.7634v35.3516h-29.4653v-35.3516z" fill="#fff" id="a290" stroke="#000"/>
<path d="m400.4606,350.7634h19.9701v35.3516h-19.9701z" fill="#fff" id="a291" stroke="#000"/>
<path d="m380.6924,350.7634h19.9701v35.3516h-19.9701z" fill="#fff" id="a292" stroke="#000"/>
<path d="m380.8397,350.7634v35.3516h-55.7979v-35.3516z" fill="#fff" id="a294" stroke="#000"/>
<path d="m468.4792,399.6642v35.555h-37.3055l-.002-35.555z" fill="#fff" id="a289" stroke="#000"/>
<path d="m431.1717,399.6642v35.555h-51.53v-35.555z" fill="#fff" id="a293" stroke="#000"/>
<path d="m379.6417,399.6642v35.555h-30.6575v-35.555z" fill="#fff" id="a295" stroke="#000"/>
<path d="m165,23.2081-.0495,55.4214h56.4495v-55.4214z" fill="#666" id="path4684" stroke="#000" transform="translate(103.6417,339.7046)"/>
<path d="m268.8605,350.7642v45.5h-51.8889v-45.5z" fill="#fff" id="a201" stroke="#000"/>
<path d="m268.8582,418.3342v-22.07h-38.9509v22.07z" fill="#fff" id="path4688" stroke="#000"/>
<path d="m113.2732,56.5595-.3241,22.07h13.0509v-22.07z" fill="#fff" id="path4690" stroke="#000" transform="translate(103.6417,339.7046)"/>
<path d="m113.1397,56.5595-.0003-45.5h-18.8494v45.5z" fill="#fff" id="a202" stroke="#000" transform="translate(103.6417,339.7046)"/>
<path d="m94.29,11.0595v45.5h-61.09v-45.5z" fill="#fff" id="a203" stroke="#000" transform="translate(103.6417,339.7046)"/>
<path d="m10.7995,11.0595h22.4005v45.5h-22.4005z" fill="#fff" id="path4696" stroke="#000" transform="translate(103.6417,339.7046)"/>
<path d="m10.7995,56.5595h83.4905v22.07h-83.4905z" fill="#fff" id="path4698" stroke="#000" transform="translate(103.6417,339.7046)"/>
<path d="m114.4413,461.8442h37.9205v17.34h-37.9205z" fill="#fff" id="a207" stroke="#000"/>
<path d="m152.3617,461.8442h45.4134v10.22h-45.4134z" fill="#fff" id="path4704" stroke="#000" stroke-width="1.2603"/>
<path d="m268.9188,418.3493v43.3585h-35.2435v-43.1527z" fill="#fff" id="path5420" stroke="#000"/>
<path d="m233.6753,461.7817h35.2317v17.34h-35.2317z" fill="#fff" id="path4708" stroke="#000"/>
<path d="m268.923,479.1373h-46.9249l-.0001,18.59h-10.9042l.0002,23.6331h57.829z" fill="#fff" id="meds" stroke="#000"/>
<path d="m221.998,497.7273v-18.59h-60.5695l-.4426,42.2231h50.1081v-23.6331z" fill="#fff" id="a206" stroke="#000"/>
<path d="m161.2013,545.3576 30.971-.0154v30.7846h-30.971z" fill="#fff" id="a210" stroke="#000"/>
<path d="m114.4413,499.6791h33.2994v21.1457h-33.2994z" fill="#fff" id="a208" stroke="#000"/>
<path d="m114.4413,479.2633h33.307v20.4157h-33.307z" fill="#fff" id="a204" stroke="#000"/>
<path d="m114.4564,520.8096h33.2993v12.2499h-33.2993z" fill="#fff" id="a209a" stroke="#000" stroke-width="1.0001"/>
<path d="m114.4564,533.0735h33.2993v12.2499h-33.2993z" fill="#fff" id="a209" stroke="#000" stroke-width="1.0001"/>
<path d="m114.4564,545.3422h33.2994v30.7646l-12.6796.0462-20.6198-.0462z" fill="#fff" id="a211" stroke="#000"/>
<path d="m114.4564,576.1052h33.2994v30.7645l-12.6796.0462-20.6198-.0462z" fill="#fff" id="a213" stroke="#000"/>
<path d="m161.2013,576.131h30.971v30.7691h-30.971z" fill="#fff" id="a210a" stroke="#000"/>
<path d="m114.4564,606.8693h33.2994v23.7869h-12.6796-20.6198z" fill="#fff" id="a215" stroke="#000"/>
<path d="m161.2131,606.8693h30.9561v23.7869l-12.0588.024-18.8973-.024z" fill="#fff" id="a214" stroke="#000"/>
<path d="m101.1203,630.6563h39.196v23.95h-39.2681z" fill="#fff" id="a216" stroke="#000"/>
<path d="m101.2086,675.6063h39.1076v23.937h-39.1797z" fill="#fff" id="a217" stroke="#000"/>
<path d="m114.4413,699.5508h33.315v30.7645l-12.6952.0462-20.6198-.0462z" fill="#fff" id="a219" stroke="#000"/>
<path d="m161.3382,699.5508h30.7782v30.7645l-12.0588.0462-18.7194-.0462z" fill="#fff" id="a218" stroke="#000"/>
<path d="m161.0882,730.3165h30.7782v24.6637l-12.0588.0462-18.7194-.0462z" fill="#fff" id="a220" stroke="#000"/>
<path d="m114.4413,730.2922h33.3217v12.3487h-33.3217z" fill="#fff" id="a221" stroke="#000" stroke-width=".9013"/>
<path d="m114.4413,742.6463h33.3408v12.3564h-33.3408z" fill="#fff" id="a222" stroke="#000" stroke-width=".8936"/>
<path d="m114.4413,755.0032h33.2891v29.9609l-12.6785.0462-20.6107-.0462z" fill="#fff" id="path4772" stroke="#000"/>
<path d="m114.4413,785.0942h33.2945v23.562h-12.6785-20.616z" fill="#fff" id="path4780" stroke="#000"/>
<path d="m161.1137,755.0032h30.7782v29.9843l-12.0588.0462-18.7194-.0462z" fill="#fff" id="path4782" stroke="#000"/>
<path d="m161.1191,785.1177h30.7782v23.5386h-12.0588-18.7194z" fill="#fff" id="path4784" stroke="#000"/>
<path d="m240.3812,808.6563h18.15v31.4h-18.15z" fill="#fff" id="path4794" stroke="#000"/>
<path d="m223.4882,840.0784h35.035v18.3999h-35.035z" fill="#fff" id="wc2w_2" stroke="#000"/>
<path d="m211.8446,840.0784h11.6436v18.3999h-11.6436z" fill="#fff" id="path4804" stroke="#000"/>
<path d="m114.4413,901.9742h82.332v16.5968h-82.332z" fill="#fff" id="path4808" stroke="#000"/>
<path d="m211.8446,901.9742h14.2422v16.597h-14.2422z" fill="#fff" id="path4810" stroke="#000"/>
<path d="m226.0873,901.9742h32.436v16.597h-32.436z" fill="#fff" id="path4812" stroke="#000"/>
<path d="m114.4413,918.5969h46.59v31.3993h-46.59z" fill="#fff" id="a239" stroke="#000"/>
<path d="m161.0516,929.4973h26.8896v20.499h-26.8896z" fill="#fff" id="a238" stroke="#000"/>
<path d="m187.9413,929.4973h38.146v20.499h-38.146z" fill="#fff" id="a237" stroke="#000"/>
<path d="m226.0873,918.5969h32.452v31.3993h-32.452z" fill="#fff" id="a236" stroke="#000"/>
<path d="m333.8793,401.3562v31.9" fill="none" id="path3236" stroke="#000" stroke-width=".6193"/>
<path d="m327.3585,403.4063h6.5188 6.5189" fill="none" id="path3238" stroke="#000" stroke-width=".6193"/>
<path d="m327.3585,405.4063h6.5188 6.5189" fill="none" id="path3240" stroke="#000" stroke-width=".6193"/>
<path d="m327.3585,407.4063h6.5188 6.5189" fill="none" id="path3242" stroke="#000" stroke-width=".6193"/>
<path d="m327.3585,409.4063h6.5188 6.5189" fill="none" id="path3244" stroke="#000" stroke-width=".6193"/>
<path d="m327.3585,411.4063h6.5188 6.5189" fill="none" id="path3246" stroke="#000" stroke-width=".6193"/>
<path d="m327.3585,413.4063h6.5188 6.5189" fill="none" id="path3248" stroke="#000" stroke-width=".6193"/>
<path d="m327.3585,415.4063h6.5188 6.5189" fill="none" id="path3250" stroke="#000" stroke-width=".6193"/>
<path d="m327.3585,417.4063h6.5188 6.5189" fill="none" id="path3252" stroke="#000" stroke-width=".6193"/>
<path d="m327.3585,419.4063h6.5188 6.5189" fill="none" id="path3254" stroke="#000" stroke-width=".6193"/>
<path d="m327.3585,421.4063h6.5188 6.5189" fill="none" id="path3256" stroke="#000" stroke-width=".6193"/>
<path d="m327.3585,423.4063h6.5188 6.5189" fill="none" id="path3258" stroke="#000" stroke-width=".6193"/>
<path d="m327.3585,425.4063h6.5188 6.5189" fill="none" id="path3260" stroke="#000" stroke-width=".6193"/>
<path d="m327.3585,427.4063h6.5188 6.5189" fill="none" id="path3262" stroke="#000" stroke-width=".6193"/>
<path d="m327.3585,429.4063h6.5188 6.5189" fill="none" id="path3264" stroke="#000" stroke-width=".6193"/>
<path d="m327.3585,431.4063h6.5188 6.5189" fill="none" id="path3266" stroke="#000" stroke-width=".6193"/>
<path d="m114.543,418.334h13.2106v43.4472h-13.2106z" fill="none" id="path3489" stroke="#000" stroke-width=".6798"/>
<path d="m698.9751,178.7124h26.063l8.4969,31.9699h-25.721z" fill="#fff" id="path5673" stroke="#000" transform="translate(65.7813,340.25)"/><text font-family="Sans" font-size="40" id="text4361" letter-spacing="0" transform="translate(65.7813,340.25)" word-spacing="0" x="638" xml:space="preserve" y="572.4063"><tspan id="tspan4363" x="638" y="572.4063"></tspan></text>
<path d="m697.5987,411.4592 4e-005,23.6929h-62.9529v-23.6928z" fill="#fff" id="w" stroke="#000"/>
<path d="m653.5993,399.6973h22.0708v11.7086h-22.0708z" fill="#fff" id="path3834" stroke="#000" stroke-width="1.0662"/>
<path d="m675.6282,399.6929h22.0798v11.7397h-22.0798z" fill="#fff" id="path8303" stroke="#000" stroke-width="1.0572"/><text font-family="Sans" font-size="8" id="text4373" letter-spacing="0" word-spacing="0" x="228.2844" xml:space="preserve" y="854.4363"><tspan font-size="16" id="tspan4375" x="228.2844" y="854.4363">WC</tspan></text><text font-family="Sans" font-size="10.953" id="text4389" letter-spacing="0" transform="scale(.913,1.096)" word-spacing="0" x="560.5839" xml:space="preserve" y="331.2715"><tspan id="tspan4391" x="560.5839" y="331.2715">277</tspan></text><text font-family="Sans" font-size="10.953" id="text4409" letter-spacing="0" transform="scale(.913,1.096)" word-spacing="0" x="580.5323" xml:space="preserve" y="331.1377"><tspan id="tspan4411" x="580.5323" y="331.1377">278</tspan></text><text font-family="Sans" font-size="10.953" id="text4413" letter-spacing="0" transform="scale(.913,1.096)" word-spacing="0" x="599.7211" xml:space="preserve" y="395.7215"><tspan id="tspan4415" x="599.7211" y="395.7215">285</tspan></text><text font-family="Sans" font-size="10.953" id="text4417" letter-spacing="0" transform="scale(.913,1.096)" word-spacing="0" x="675.9518" xml:space="preserve" y="374.6944"><tspan id="tspan4419" x="675.9518" y="374.6944">282</tspan></text>
<path d="m589.2792,399.6644v35.5161h-22.9565v-12.5241h2.191v-22.992z" fill="#fff" id="a283" stroke="#000"/><text font-family="Sans" font-size="10.953" id="text4421" letter-spacing="0" transform="scale(.913,1.096)" word-spacing="0" x="625.6295" xml:space="preserve" y="374.689"><tspan id="tspan4423" x="625.6295" y="374.689">283</tspan></text><text font-family="Sans" font-size="10.953" id="text4425" letter-spacing="0" transform="scale(.913,1.096)" word-spacing="0" x="673.583" xml:space="preserve" y="331.1377"><tspan id="tspan4427" x="673.583" y="331.1377">280</tspan></text><text font-family="Sans" font-size="10.953" id="text4429" letter-spacing="0" transform="scale(.913,1.096)" word-spacing="0" x="698.9152" xml:space="preserve" y="331.1377"><tspan id="tspan4431" x="698.9152" y="331.1377">275</tspan></text><text font-family="Sans" font-size="10.953" id="text4433" letter-spacing="0" transform="scale(.913,1.096)" word-spacing="0" x="722.5347" xml:space="preserve" y="330.8333"><tspan id="tspan4435" x="722.5347" y="330.8333">274</tspan></text><text font-family="Sans" font-size="10.953" id="text4437" letter-spacing="0" transform="scale(.913,1.096)" word-spacing="0" x="744.5252" xml:space="preserve" y="330.6942"><tspan id="tspan4439" x="744.5252" y="330.6942">273</tspan></text><text font-family="Sans" font-size="10.953" id="text4441" letter-spacing="0" transform="scale(.913,1.096)" word-spacing="0" x="766.8953" xml:space="preserve" y="330.8333"><tspan id="tspan4443" x="766.8953" y="330.8333">272</tspan></text><text font-family="Sans" font-size="10.953" id="text4445" letter-spacing="0" transform="scale(.913,1.096)" word-spacing="0" x="790.669" xml:space="preserve" y="331.2717"><tspan id="tspan4447" x="790.669" y="331.2717">271</tspan></text>
<path d="m741.3222,350.7646h35.8605v27.201h-35.8605z" fill="#fff" id="a270" stroke="#000"/><text font-family="Sans" font-size="10.953" id="text4449" letter-spacing="0" transform="scale(.913,1.096)" word-spacing="0" x="812.7103" xml:space="preserve" y="330.6996"><tspan id="tspan4451" x="812.7103" y="330.6996">270</tspan></text><text font-family="Sans" font-size="10.953" id="text4453" letter-spacing="0" transform="scale(.913,1.096)" word-spacing="0" x="832.465" xml:space="preserve" y="330.6996"><tspan id="tspan4455" x="832.465" y="330.6996">270</tspan></text><text font-family="Sans" font-size="10.953" id="text4457" letter-spacing="0" transform="scale(.913,1.096)" word-spacing="0" x="852.5103" xml:space="preserve" y="331.12"><tspan id="tspan4459" x="852.5103" y="331.12">269</tspan></text><text font-family="Sans" font-size="10.953" id="text4461" letter-spacing="0" transform="scale(.913,1.096)" word-spacing="0" x="887.7176" xml:space="preserve" y="330.7477"><tspan id="tspan4463" x="887.7176" y="330.7477">268</tspan></text><text font-family="Sans" font-size="10.953" id="text4465" letter-spacing="0" transform="scale(.913,1.096)" word-spacing="0" x="814.0034" xml:space="preserve" y="385.6476"><tspan id="tspan4467" x="814.0034" y="385.6476">251</tspan></text><text font-family="Sans" font-size="10.953" id="text4469" letter-spacing="0" transform="scale(.913,1.096)" word-spacing="0" x="819.4596" xml:space="preserve" y="406.8998"><tspan id="tspan4471" x="819.4596" y="406.8998">252</tspan></text><text font-family="Sans" font-size="10.953" id="text4473" letter-spacing="0" transform="scale(.913,1.096)" word-spacing="0" x="824.8824" xml:space="preserve" y="421.0207"><tspan id="tspan4475" x="824.8824" y="421.0207">253</tspan></text><text font-family="Sans" font-size="10.953" id="text4477" letter-spacing="0" transform="scale(.913,1.096)" word-spacing="0" x="830.1919" xml:space="preserve" y="435.5033"><tspan id="tspan4479" x="830.1919" y="435.5033">254</tspan></text><text font-family="Sans" font-size="10.953" id="text4481" letter-spacing="0" transform="scale(.913,1.096)" word-spacing="0" x="833.9519" xml:space="preserve" y="449.9698"><tspan id="tspan4483" x="833.9519" y="449.9698">255</tspan></text><text font-family="Sans" font-size="10.953" id="text4497" letter-spacing="0" transform="scale(.913,1.096)" word-spacing="0" x="948.8774" xml:space="preserve" y="448.4555"><tspan id="tspan4499" x="948.8774" y="448.4555">259</tspan></text><text font-family="Sans" font-size="10.953" id="text4501" letter-spacing="0" transform="scale(.913,1.096)" word-spacing="0" x="951.9762" xml:space="preserve" y="433.7724"><tspan id="tspan4503" x="951.9762" y="433.7724">260</tspan></text><text font-family="Sans" font-size="10.953" id="text4505" letter-spacing="0" transform="scale(.913,1.096)" word-spacing="0" x="956.37" xml:space="preserve" y="419.4119"><tspan id="tspan4507" x="956.37" y="419.4119">261</tspan></text><text font-family="Sans" font-size="10.953" id="text4509" letter-spacing="0" transform="scale(.913,1.096)" word-spacing="0" x="960.6308" xml:space="preserve" y="402.7419"><tspan id="tspan4511" x="960.6308" y="402.7419">262</tspan></text><text font-family="Sans" font-size="10.953" id="text4513" letter-spacing="0" transform="scale(.913,1.096)" word-spacing="0" x="969.9879" xml:space="preserve" y="370.158"><tspan id="tspan4515" x="969.9879" y="370.158">263</tspan></text><text font-family="Sans" font-size="10.953" id="text4517" letter-spacing="0" transform="scale(.913,1.096)" word-spacing="0" x="973.0259" xml:space="preserve" y="354.8705"><tspan id="tspan4519" x="973.0259" y="354.8705">264</tspan></text><text font-family="Sans" font-size="10.953" id="text4521" letter-spacing="0" transform="scale(.913,1.096)" word-spacing="0" x="970.056" xml:space="preserve" y="332.0567"><tspan id="tspan4523" x="970.056" y="332.0567">266</tspan></text><text font-family="Sans" font-size="10.953" id="text4393" letter-spacing="0" transform="scale(.913,1.096)" word-spacing="0" x="908.6511" xml:space="preserve" y="330.6996"><tspan id="tspan4395" x="908.6511" y="330.6996">265</tspan></text><text font-family="Sans" font-size="10.953" id="text4397" letter-spacing="0" transform="scale(.913,1.096)" word-spacing="0" x="601.0618" xml:space="preserve" y="331.1377"><tspan id="tspan4399" x="601.0618" y="331.1377">284</tspan></text><text font-family="Sans" font-size="10.953" id="text4525" letter-spacing="0" transform="scale(.913,1.096)" word-spacing="0" x="539.0861" xml:space="preserve" y="331.1377"><tspan id="tspan4527" x="539.0861" y="331.1377">286</tspan></text><text font-family="Sans" font-size="10.953" id="text4529" letter-spacing="0" transform="scale(.913,1.096)" word-spacing="0" x="517.5046" xml:space="preserve" y="331.1377"><tspan id="tspan4531" x="517.5046" y="331.1377">288</tspan></text>
<path d="m468.4789,399.6644v35.5161h22.9565v-12.5241h-2.191v-22.992z" fill="#fff" id="a287" stroke="#000"/><text font-family="Sans" font-size="10.953" id="text4533" letter-spacing="0" transform="scale(.913,1.096)" word-spacing="0" x="515.9543" xml:space="preserve" y="374.6944"><tspan id="tspan4535" x="515.9543" y="374.6944">287</tspan></text><text font-family="Sans" font-size="10.953" id="text4537" letter-spacing="0" transform="scale(.913,1.096)" word-spacing="0" x="492.9802" xml:space="preserve" y="374.4933"><tspan id="tspan4539" x="492.9802" y="374.4933">289</tspan></text><text font-family="Sans" font-size="10.953" id="text4541" letter-spacing="0" transform="scale(.913,1.096)" word-spacing="0" x="453.2279" xml:space="preserve" y="374.2829"><tspan id="tspan4543" x="453.2279" y="374.2829">293</tspan></text><text font-family="Sans" font-size="10.953" id="text4545" letter-spacing="0" transform="scale(.913,1.096)" word-spacing="0" x="472.5952" xml:space="preserve" y="331.1257"><tspan id="tspan4547" x="472.5952" y="331.1257">290</tspan></text><text font-family="Sans" font-size="10.953" id="text4549" letter-spacing="0" transform="scale(.913,1.096)" word-spacing="0" x="441.6746" xml:space="preserve" y="330.7195"><tspan id="tspan4551" x="441.6746" y="330.7195">291</tspan></text><text font-family="Sans" font-size="10.953" id="text4553" letter-spacing="0" transform="scale(.913,1.096)" word-spacing="0" x="419.3988" xml:space="preserve" y="331.1257"><tspan id="tspan4555" x="419.3988" y="331.1257">292</tspan></text><text font-family="Sans" font-size="10.953" id="text4557" letter-spacing="0" transform="scale(.913,1.096)" word-spacing="0" x="397.5513" xml:space="preserve" y="331.1257"><tspan id="tspan4559" x="397.5513" y="331.1257">294</tspan></text><text font-family="Sans" font-size="10.953" id="text4561" letter-spacing="0" transform="scale(.913,1.096)" word-spacing="0" x="396.2842" xml:space="preserve" y="374.6944"><tspan id="tspan4563" x="396.2842" y="374.6944">295</tspan></text><text font-family="Sans" font-size="10.953" id="text4565" letter-spacing="0" transform="scale(.913,1.096)" word-spacing="0" x="274.6259" xml:space="preserve" y="329.3122"><tspan id="tspan4567" x="274.6259" y="329.3122">201</tspan></text><text font-family="Sans" font-size="10.953" id="text4569" letter-spacing="0" transform="scale(.913,1.096)" word-spacing="0" x="195.3413" xml:space="preserve" y="329.3069"><tspan id="tspan4571" x="195.3413" y="329.3069">203</tspan></text><text font-family="Sans" font-size="10.953" id="text4573" letter-spacing="0" transform="scale(.913,1.096)" word-spacing="0" x="142.4776" xml:space="preserve" y="446.8182"><tspan id="tspan4575" x="142.4776" y="446.8182">204</tspan></text><text font-family="Sans" font-size="10.953" id="text4577" letter-spacing="0" transform="scale(.913,1.096)" word-spacing="0" x="142.4295" xml:space="preserve" y="466.2197"><tspan id="tspan4579" x="142.4295" y="466.2197">208</tspan></text><text font-family="Sans" font-size="10.953" id="text4581" letter-spacing="0" transform="scale(.913,1.096)" word-spacing="0" x="146.86" xml:space="preserve" y="431.5956"><tspan id="tspan4583" x="146.86" y="431.5956">207</tspan></text><text font-family="Sans" font-size="10.953" id="text4585" letter-spacing="0" transform="scale(.913,1.096)" word-spacing="0" x="143.9591" xml:space="preserve" y="507.7803"><tspan id="tspan4587" x="143.9591" y="507.7803">211</tspan></text><text font-family="Sans" font-size="10.953" id="text4589" letter-spacing="0" transform="scale(.913,1.096)" word-spacing="0" x="190.2707" xml:space="preserve" y="507.6469"><tspan id="tspan4591" x="190.2707" y="507.6469">210</tspan></text><text font-family="Sans" font-size="10.953" id="text4593" letter-spacing="0" transform="scale(.913,1.096)" word-spacing="0" x="185.5674" xml:space="preserve" y="534.4265"><tspan id="tspan4595" x="185.5674" y="534.4265">210а</tspan></text><text font-family="Sans" font-size="10.953" id="text4597" letter-spacing="0" transform="scale(.913,1.096)" word-spacing="0" x="142.6153" xml:space="preserve" y="536.2463"><tspan id="tspan4599" x="142.6153" y="536.2463">213</tspan></text><text font-family="Sans" font-size="10.953" id="text4601" letter-spacing="0" transform="scale(.913,1.096)" word-spacing="0" x="142.6153" xml:space="preserve" y="563.2692"><tspan id="tspan4603" x="142.6153" y="563.2692">215</tspan></text><text font-family="Sans" font-size="10.953" id="text4605" letter-spacing="0" transform="scale(.913,1.096)" word-spacing="0" x="190.2743" xml:space="preserve" y="563.4029"><tspan id="tspan4607" x="190.2743" y="563.4029">214</tspan></text><text font-family="Sans" font-size="10.953" id="text4609" letter-spacing="0" transform="scale(.913,1.096)" word-spacing="0" x="133.2554" xml:space="preserve" y="584.7941"><tspan id="tspan4611" x="133.2554" y="584.7941">216</tspan></text><text font-family="Sans" font-size="10.953" id="text4613" letter-spacing="0" transform="scale(.913,1.096)" word-spacing="0" x="133.2554" xml:space="preserve" y="625.9755"><tspan id="tspan4615" x="133.2554" y="625.9755">217</tspan></text><text font-family="Sans" font-size="10.953" id="text4617" letter-spacing="0" transform="scale(.913,1.096)" word-spacing="0" x="142.5986" xml:space="preserve" y="647.5354"><tspan id="tspan4619" x="142.5986" y="647.5354">219</tspan></text><text font-family="Sans" font-size="10.953" id="text4621" letter-spacing="0" transform="scale(.913,1.096)" word-spacing="0" x="189.9838" xml:space="preserve" y="647.5355"><tspan id="tspan4623" x="189.9838" y="647.5355">218</tspan></text><text font-family="Sans" font-size="10.953" id="text4625" letter-spacing="0" transform="scale(.913,1.096)" word-spacing="0" x="142.5986" xml:space="preserve" y="675.7971"><tspan id="tspan4627" x="142.5986" y="675.7971">221</tspan></text><text font-family="Sans" font-size="10.953" id="text4629" letter-spacing="0" transform="scale(.913,1.096)" word-spacing="0" x="142.5986" xml:space="preserve" y="687.4538"><tspan id="tspan4631" x="142.5986" y="687.4538">222</tspan></text><text font-family="Sans" font-size="10.953" id="text4633" letter-spacing="0" transform="scale(.913,1.096)" word-spacing="0" x="189.9838" xml:space="preserve" y="676.9638"><tspan id="tspan4635" x="189.9838" y="676.9638">220</tspan></text>
<path d="m136.218,518.2382h-82.325v-49.822h125.94v31.4h-43.615z" fill="#fff" id="a228" stroke="#000" transform="translate(60.5482,340.2403)"/><text font-family="Sans" font-size="10.953" id="text4637" letter-spacing="0" transform="scale(.913,1.096)" word-spacing="0" x="172.6482" xml:space="preserve" y="747.0978"><tspan id="tspan4639" x="172.6482" y="747.0978">228</tspan></text><text font-family="Sans" font-size="10.953" id="text4641" letter-spacing="0" transform="scale(.913,1.096)" word-spacing="0" x="196.2928" xml:space="preserve" y="747.0978"><tspan id="tspan4643" x="196.2928" y="747.0978">228</tspan></text><text font-family="Sans" font-size="10.953" id="text4645" letter-spacing="0" transform="scale(.913,1.096)" word-spacing="0" x="242.161" xml:space="preserve" y="747.0978"><tspan id="tspan4647" x="242.161" y="747.0978">228</tspan></text><text font-family="Sans" font-size="10.953" id="text4653" letter-spacing="0" transform="scale(.913,1.096)" word-spacing="0" x="195.7999" xml:space="preserve" y="775.4515"><tspan id="tspan4655" x="195.7999" y="775.4515">228</tspan></text><text font-family="Sans" font-size="10.953" id="text4661" letter-spacing="0" transform="scale(.913,1.096)" word-spacing="0" x="155.0661" xml:space="preserve" y="847.401"><tspan id="tspan4663" x="155.0661" y="847.401">239</tspan></text><text font-family="Sans" font-size="10.953" id="text4665" letter-spacing="0" transform="scale(.913,1.096)" word-spacing="0" x="186.8343" xml:space="preserve" y="857.9186"><tspan id="tspan4667" x="186.8343" y="857.9186">238</tspan></text><text font-family="Sans" font-size="10.953" id="text4669" letter-spacing="0" transform="scale(.913,1.096)" word-spacing="0" x="228.9774" xml:space="preserve" y="857.919"><tspan id="tspan4671" x="228.9774" y="857.919">237</tspan></text><text font-family="Sans" font-size="10.953" id="text4673" letter-spacing="0" transform="scale(.913,1.096)" word-spacing="0" x="263.6507" xml:space="preserve" y="847.4013"><tspan id="tspan4675" x="263.6507" y="847.4013">236</tspan></text><text font-family="Sans" font-size="10.953" id="text4385" letter-spacing="0" transform="scale(.913,1.096)" word-spacing="0" x="142.4295" xml:space="preserve" y="495.9041"><tspan id="tspan4387" x="142.4295" y="495.9041">209</tspan></text><text font-family="Sans" font-size="10.953" id="text4405" letter-spacing="0" transform="scale(.913,1.096)" word-spacing="0" x="136.3165" xml:space="preserve" y="484.3806"><tspan id="tspan4407" x="136.3165" y="484.3806">209а</tspan></text>
<path d="m348.9844,399.6752v35.533h-23.923v-35.533z" fill="#fff" id="path5245" stroke="#000" stroke-width="1.022"/>
<g id="g5289" transform="matrix(1.04077,0,0,1.27304,-13.28911,-127.26764)">
<path d="m325.9587,433.5384h21.1608" fill="none" id="path5247" stroke="#b3b3b3" stroke-width=".542"/>
<path d="m325.9587,431.1282h21.1608" fill="none" id="path5249" stroke="#b3b3b3" stroke-width=".542"/>
<path d="m336.7891,433.8063v-18.9611" fill="none" id="path5265" stroke="#b3b3b3" stroke-width=".542"/>
<path d="m325.9587,428.7183h21.1608" fill="none" id="path5267" stroke="#b3b3b3" stroke-width=".542"/>
<path d="m325.9587,426.3082h21.1608" fill="none" id="path5269" stroke="#b3b3b3" stroke-width=".542"/>
<path d="m325.9587,423.8983h21.1608" fill="none" id="path5271" stroke="#b3b3b3" stroke-width=".542"/>
<path d="m325.9587,421.4882h21.1608" fill="none" id="path5273" stroke="#b3b3b3" stroke-width=".542"/>
<path d="m325.9587,419.0783h21.1608" fill="none" id="path5275" stroke="#b3b3b3" stroke-width=".542"/>
<path d="m325.9587,416.6683h21.1608" fill="none" id="path5277" stroke="#b3b3b3" stroke-width=".542"/>
</g>
<path d="m161.2073,521.4146 30.9706-.0151-.0002,23.9563h-30.9706z" fill="#fff" id="path5422" stroke="#000" stroke-width=".9887"/>
<g id="g5424" transform="matrix(0,-1.08855,1.68199,0,-535.96523,899.61071)">
<path d="m325.9587,431.1282h21.1608" fill="none" id="path5428" stroke="#b3b3b3" stroke-width=".542"/>
<path d="m336.7891,432.5738v-17.7567" fill="none" id="path5430" stroke="#b3b3b3" stroke-width=".536"/>
<path d="m325.9587,428.7183h21.1608" fill="none" id="path5432" stroke="#b3b3b3" stroke-width=".542"/>
<path d="m325.9587,426.3082h21.1608" fill="none" id="path5434" stroke="#b3b3b3" stroke-width=".542"/>
<path d="m325.9587,423.8983h21.1608" fill="none" id="path5436" stroke="#b3b3b3" stroke-width=".542"/>
<path d="m325.9587,421.4882h21.1608" fill="none" id="path5438" stroke="#b3b3b3" stroke-width=".542"/>
<path d="m325.9587,419.0783h21.1608" fill="none" id="path5440" stroke="#b3b3b3" stroke-width=".542"/>
<path d="m325.9587,416.6683h21.1608" fill="none" id="path5442" stroke="#b3b3b3" stroke-width=".542"/>
</g>
<g id="g8305" transform="matrix(1,0,0,1.49342,0,-393.36102)">
<path d="m196.7732,867.4298h15.071v10.9765h-15.071z" fill="#fff" id="path5542" stroke="#000" stroke-width=".9933"/>
<path d="m197.3656,869.211h6.9399 6.94" fill="none" id="path5555" stroke="#b3b3b3" stroke-width=".6316"/>
<path d="m197.404,870.9885h6.9399 6.94" fill="none" id="path3562" stroke="#b3b3b3" stroke-width=".6316"/>
<path d="m197.404,872.7138h6.9399 6.94" fill="none" id="path3564" stroke="#b3b3b3" stroke-width=".6316"/>
<path d="m197.4424,874.4913h6.9399 6.94" fill="none" id="path3566" stroke="#b3b3b3" stroke-width=".6316"/>
<path d="m197.3271,876.2681h6.9399 6.94" fill="none" id="path3568" stroke="#b3b3b3" stroke-width=".6316"/>
</g><text font-family="Sans" font-size="10.953" id="text5687" letter-spacing="0" transform="scale(.913,1.096)" word-spacing="0" x="218.3619" xml:space="preserve" y="329.3122"><tspan id="tspan5689" x="218.3619" y="329.3122">202</tspan></text>
<path d="m166.1353,675.5938h39.196c3.8125,1.3116 11.1875,16.5759 0,23.95h-39.2681z" fill="#fff" id="path8313" stroke="#000"/>
<g id="g8387" transform="matrix(.82935,0,0,1.24435,502.87078,3.34421)">
<path d="m324.4027,433.9853h33.4465" fill="none" id="path8389" stroke="#b3b3b3" stroke-width=".6814"/>
<path d="m323.4996,431.0389h33.049" fill="none" id="path8391" stroke="#b3b3b3" stroke-width=".6773"/>
<path d="m338.8588,434.2471-7.0796-19.4913" fill="none" id="path8393" stroke="#b3b3b3" stroke-width=".5495"/>
<path d="m322.4889,428.6289h32.1215" fill="none" id="path8395" stroke="#b3b3b3" stroke-width=".6678"/>
<path d="m321.4287,426.2189h31.459" fill="none" id="path8397" stroke="#b3b3b3" stroke-width=".6609"/>
<path d="m320.4555,423.8089h30.929" fill="none" id="path8399" stroke="#b3b3b3" stroke-width=".6553"/>
<path d="m319.114,421.3989h31.1937" fill="none" id="path8401" stroke="#b3b3b3" stroke-width=".6581"/>
<path d="m318.1862,418.9889h32.1215" fill="none" id="path8403" stroke="#b3b3b3" stroke-width=".6678"/>
<path d="m317.2557,416.5789h30.2671" fill="none" id="path8405" stroke="#b3b3b3" stroke-width=".6482"/>
</g>
<path d="m258.7313,858.5368v43.3585h-35.2435v-43.1527z" fill="#fff" id="path8512" stroke="#000"/>
<path d="m131.1743,858.6504h-16.6514v43.3012h16.6514z" fill="#fff" id="path8546" stroke="#000" stroke-width="1.0601"/><text fill="#f00" font-family="Sans" font-size="10.953" id="text3411" letter-spacing="0" transform="scale(.913,1.096)" word-spacing="0" x="238.504" xml:space="preserve" y="472.0638"><tspan fill="#f00" font-size="12" id="tspan3413" x="238.504" y="472.0638"></tspan></text><text font-family="Sans" font-size="10.953" id="text3415" letter-spacing="0" transform="scale(.913,1.096)" word-spacing="0" x="222.3982" xml:space="preserve" y="447.2464"><tspan id="tspan3419" x="222.3982" y="447.2464">206</tspan></text>
<path d="m236.5001,130.7234c-.0359-10.1482 8.2736-18.4036 18.5599-18.439s18.654,8.1626 18.6899,18.3107c7e-005,.0214.0001.0428.0001.0641" fill="#fff" id="path3861" stroke="#000" transform="matrix(0,1.16146,-1.0025,0,399.35591,143.78611)"/>
<path d="m236.5001,130.7234c-.0359-10.1482 8.2736-18.4036 18.5599-18.439s18.654,8.1626 18.6899,18.3107c7e-005,.0214.0001.0428.0001.0641" fill="#fff" id="path3863" stroke="#000" transform="matrix(0,1.16561,-1.00286,0,388.92525,582.83889)"/>
<path d="m759.2982,350.7121v27.0625" fill="none" id="path3867" stroke="#000"/>
<path d="m53.625,499.7842 82.875.032-.2052-31.4" fill="none" id="path3871" stroke="#000" transform="translate(60.5482,340.2403)"/>
<path d="m117.3797,468.4162 .1768,31.4" fill="none" id="path3873" stroke="#000" transform="translate(60.5482,340.2403)"/>
<g id="g3875" transform="matrix(0,-1.99169,2.16194,0,-662.54812,1110.40425)">
<path d="m325.9587,431.1282h21.1608" fill="none" id="path3879" stroke="#b3b3b3" stroke-width=".542"/>
<path d="m336.7891,431.3339v-16.4887" fill="none" id="path3881" stroke="#b3b3b3" stroke-width=".5054"/>
<path d="m325.9587,428.7183h21.1608" fill="none" id="path3883" stroke="#b3b3b3" stroke-width=".542"/>
<path d="m325.9587,426.3082h21.1608" fill="none" id="path3885" stroke="#b3b3b3" stroke-width=".542"/>
<path d="m325.9587,423.8983h21.1608" fill="none" id="path3887" stroke="#b3b3b3" stroke-width=".542"/>
<path d="m325.9587,421.4882h21.1608" fill="none" id="path3889" stroke="#b3b3b3" stroke-width=".542"/>
<path d="m325.9587,419.0783h21.1608" fill="none" id="path3891" stroke="#b3b3b3" stroke-width=".542"/>
<path d="m325.9587,416.6683h21.1608" fill="none" id="path3893" stroke="#b3b3b3" stroke-width=".542"/>
</g>
<path d="m833.5743,522.923h41.4625l-6.6136,28.02h-34.8489z" fill="#fff" id="a256" stroke="#000" stroke-width="1.0027"/>
<path d="m833.593,522.923h41.4438l6.38-26.55-41.53,1e-005z" fill="#fff" id="a258" stroke="#000"/>
<path d="m821.2728,522.9295h12.3077v28.0125h-12.3077z" fill="#fff" id="rect3985" stroke="#000" stroke-width=".9995"/>
<path d="m821.2868,550.9431v-28.0151h-29.43l7.346,28.0151z" fill="#fff" id="a257" stroke="#000" stroke-width=".9999"/><text font-family="Sans" font-size="10.953" id="text4485" letter-spacing="0" transform="scale(.913,1.096)" word-spacing="0" x="877.8073" xml:space="preserve" y="494.0179"><tspan id="tspan4487" x="877.8073" y="494.0179">257</tspan></text><text font-family="Sans" font-size="10.953" id="text4489" letter-spacing="0" transform="scale(.913,1.096)" word-spacing="0" x="926.0322" xml:space="preserve" y="494.0178"><tspan id="tspan5683" x="926.0322" y="494.0178">256</tspan></text><text font-family="Sans" font-size="10.953" id="text4493" letter-spacing="0" transform="scale(.913,1.096)" word-spacing="0" x="944.2147" xml:space="preserve" y="462.8862"><tspan id="tspan4495" x="944.2147" y="462.8862">258</tspan></text>
<path d="m257.0447,483.0208h5.2689v11.1073h-5.2689z" fill="#f00" id="rect3416"/>
<path d="m-491.2088,254.1255h5.2689v11.1073h-5.2689z" fill="#f00" id="rect3418" transform="matrix(0,-1,1,0,0,0)"/>
<g id="g3420" transform="matrix(0,-1.08855,1.68199,0,-531.11127,1009.0626)">
<path d="m325.9587,431.1282h21.1608" fill="none" id="path3422" stroke="#b3b3b3" stroke-width=".542"/>
<path d="m336.7891,433.5106v-18.6935" fill="none" id="path3424" stroke="#b3b3b3" stroke-width=".5499"/>
<path d="m325.9587,428.7183h21.1608" fill="none" id="path3426" stroke="#b3b3b3" stroke-width=".542"/>
<path d="m325.9587,426.3082h21.1608" fill="none" id="path3428" stroke="#b3b3b3" stroke-width=".542"/>
<path d="m325.9587,423.8983h21.1608" fill="none" id="path3430" stroke="#b3b3b3" stroke-width=".542"/>
<path d="m325.9587,421.4882h21.1608" fill="none" id="path3432" stroke="#b3b3b3" stroke-width=".542"/>
<path d="m325.9587,419.0783h21.1608" fill="none" id="path3434" stroke="#b3b3b3" stroke-width=".542"/>
<path d="m325.9587,416.6683h21.1608" fill="none" id="path3436" stroke="#b3b3b3" stroke-width=".542"/>
<path d="m325.9587,433.5064h21.1608" fill="none" id="path3438" stroke="#b3b3b3" stroke-width=".542"/>
<path d="m325.9587,431.0964h21.1608" fill="none" id="path3440" stroke="#b3b3b3" stroke-width=".542"/>
</g>
<g id="g3442" transform="matrix(0,-1.08855,1.68199,0,-531.11127,1053.9097)">
<path d="m325.9587,431.1282h21.1608" fill="none" id="path3444" stroke="#b3b3b3" stroke-width=".542"/>
<path d="m336.7891,433.5106v-18.6935" fill="none" id="path3446" stroke="#b3b3b3" stroke-width=".5499"/>
<path d="m325.9587,428.7183h21.1608" fill="none" id="path3448" stroke="#b3b3b3" stroke-width=".542"/>
<path d="m325.9587,426.3082h21.1608" fill="none" id="path3450" stroke="#b3b3b3" stroke-width=".542"/>
<path d="m325.9587,423.8983h21.1608" fill="none" id="path3452" stroke="#b3b3b3" stroke-width=".542"/>
<path d="m325.9587,421.4882h21.1608" fill="none" id="path3454" stroke="#b3b3b3" stroke-width=".542"/>
<path d="m325.9587,419.0783h21.1608" fill="none" id="path3456" stroke="#b3b3b3" stroke-width=".542"/>
<path d="m325.9587,416.6683h21.1608" fill="none" id="path3458" stroke="#b3b3b3" stroke-width=".542"/>
<path d="m325.9587,433.5064h21.1608" fill="none" id="path3460" stroke="#b3b3b3" stroke-width=".542"/>
<path d="m325.9587,431.0964h21.1608" fill="none" id="path3462" stroke="#b3b3b3" stroke-width=".542"/>
</g>
<g id="g3466" transform="matrix(0,-1.99169,2.16194,0,-672.54812,1550.40425)">
<path d="m325.9587,431.1282h21.1608" fill="none" id="path3468" stroke="#b3b3b3" stroke-width=".542"/>
<path d="m336.7891,431.3339v-16.4887" fill="none" id="path3470" stroke="#b3b3b3" stroke-width=".5054"/>
<path d="m325.9587,428.7183h21.1608" fill="none" id="path3472" stroke="#b3b3b3" stroke-width=".542"/>
<path d="m325.9587,426.3082h21.1608" fill="none" id="path3474" stroke="#b3b3b3" stroke-width=".542"/>
<path d="m325.9587,423.8983h21.1608" fill="none" id="path3476" stroke="#b3b3b3" stroke-width=".542"/>
<path d="m325.9587,421.4882h21.1608" fill="none" id="path3478" stroke="#b3b3b3" stroke-width=".542"/>
<path d="m325.9587,419.0783h21.1608" fill="none" id="path3480" stroke="#b3b3b3" stroke-width=".542"/>
<path d="m325.9587,416.6683h21.1608" fill="none" id="path3482" stroke="#b3b3b3" stroke-width=".542"/>
</g>
<g id="g3486" transform="matrix(2.02039,0,0,2.16194,39.49176,-496.72576)">
<path d="m336.7891,430.878v-16.0327" fill="none" id="path3490" stroke="#b3b3b3" stroke-width=".4984"/>
<path d="m325.9587,428.7183h21.1608" fill="none" id="path3492" stroke="#b3b3b3" stroke-width=".542"/>
<path d="m325.9587,426.3082h21.1608" fill="none" id="path3494" stroke="#b3b3b3" stroke-width=".542"/>
<path d="m325.9587,423.8983h21.1608" fill="none" id="path3496" stroke="#b3b3b3" stroke-width=".542"/>
<path d="m325.9587,421.4882h21.1608" fill="none" id="path3498" stroke="#b3b3b3" stroke-width=".542"/>
<path d="m325.9587,419.0783h21.1608" fill="none" id="path3500" stroke="#b3b3b3" stroke-width=".542"/>
<path d="m325.9587,416.6683h21.1608" fill="none" id="path3502" stroke="#b3b3b3" stroke-width=".542"/>
</g>
<g id="g3508" transform="matrix(0,-2.00015,2.16194,0,-734.27598,1113.0719)">
<path d="m325.9587,431.1282h21.1608" fill="none" id="path3510" stroke="#b3b3b3" stroke-width=".542"/>
<path d="m336.7891,431.3339v-19.6325" fill="none" id="path3512" stroke="#b3b3b3" stroke-width=".5515"/>
<path d="m325.9587,428.7183h21.1608" fill="none" id="path3514" stroke="#b3b3b3" stroke-width=".542"/>
<path d="m325.9587,426.3082h21.1608" fill="none" id="path3516" stroke="#b3b3b3" stroke-width=".542"/>
<path d="m325.9587,423.8983h21.1608" fill="none" id="path3518" stroke="#b3b3b3" stroke-width=".542"/>
<path d="m325.9587,421.4882h21.1608" fill="none" id="path3520" stroke="#b3b3b3" stroke-width=".542"/>
<path d="m325.9587,419.0783h21.1608" fill="none" id="path3522" stroke="#b3b3b3" stroke-width=".542"/>
<path d="m325.9587,416.6683h21.1608" fill="none" id="path3524" stroke="#b3b3b3" stroke-width=".542"/>
<path d="m325.9587,414.243h21.1608" fill="none" id="path3526" stroke="#b3b3b3" stroke-width=".542"/>
<path d="m325.9587,411.8329h21.1608" fill="none" id="path3528" stroke="#b3b3b3" stroke-width=".542"/>
</g>
<path d="m565.4949,75.8419-22.1797-4.6417 15.1097-16.8873z" fill="#f00" id="path3532" transform="matrix(.386,-.09419,.08221,.44227,461.99412,450.62323)"/>
<path d="m564.9817,65.5788c0,2.2673-2.5272,4.1052-5.6447,4.1052s-5.6447-1.838-5.6447-4.1052 2.5272-4.1052 5.6447-4.1052 5.6447,1.838 5.6447,4.1052z" fill="#f00" id="path3536" transform="matrix(.46568,0,0,.58221,421.5304,380.63448)"/>
<g id="g3540" transform="matrix(0,-2.00015,2.16194,0,-735.30659,1553.36523)">
<path d="m325.9587,431.1282h21.1608" fill="none" id="path3542" stroke="#b3b3b3" stroke-width=".542"/>
<path d="m336.7891,431.3339v-19.6325" fill="none" id="path3544" stroke="#b3b3b3" stroke-width=".5515"/>
<path d="m325.9587,428.7183h21.1608" fill="none" id="path3546" stroke="#b3b3b3" stroke-width=".542"/>
<path d="m325.9587,426.3082h21.1608" fill="none" id="path3548" stroke="#b3b3b3" stroke-width=".542"/>
<path d="m325.9587,423.8983h21.1608" fill="none" id="path3550" stroke="#b3b3b3" stroke-width=".542"/>
<path d="m325.9587,421.4882h21.1608" fill="none" id="path3552" stroke="#b3b3b3" stroke-width=".542"/>
<path d="m325.9587,419.0783h21.1608" fill="none" id="path3554" stroke="#b3b3b3" stroke-width=".542"/>
<path d="m325.9587,416.6683h21.1608" fill="none" id="path3556" stroke="#b3b3b3" stroke-width=".542"/>
<path d="m325.9587,414.243h21.1608" fill="none" id="path3558" stroke="#b3b3b3" stroke-width=".542"/>
<path d="m325.9587,411.8329h21.1608" fill="none" id="path3560" stroke="#b3b3b3" stroke-width=".542"/>
</g><text font-family="Sans" font-size="8" id="text3572" letter-spacing="0" word-spacing="0" x="645.1462" xml:space="preserve" y="429.1699"><tspan font-size="16" id="tspan3574" x="645.1462" y="429.1699">WC</tspan></text>
</g>
</svg>
