<?xml version="1.0" encoding="UTF-8" standalone="no"?>
<!-- Created with Inkscape (http://www.inkscape.org/) -->

<svg
   xmlns:dc="http://purl.org/dc/elements/1.1/"
   xmlns:cc="http://creativecommons.org/ns#"
   xmlns:rdf="http://www.w3.org/1999/02/22-rdf-syntax-ns#"
   xmlns:svg="http://www.w3.org/2000/svg"
   xmlns="http://www.w3.org/2000/svg"
   xmlns:sodipodi="http://sodipodi.sourceforge.net/DTD/sodipodi-0.dtd"
   xmlns:inkscape="http://www.inkscape.org/namespaces/inkscape"
   width="100%"
   height="100%"
   viewBox="0 0 812.75 600.25"
   preserveAspectRatio="xMinYMin meet"
   id="svg3975"
   version="1.1"
   inkscape:version="0.48.2 r9819"
   sodipodi:docname="6.svg">
  <defs
     id="defs3977" />
  <sodipodi:namedview
     id="base"
     pagecolor="#ffffff"
     bordercolor="#666666"
     borderopacity="1.0"
     inkscape:pageopacity="0.0"
     inkscape:pageshadow="0"
     inkscape:zoom="8.9906521"
     inkscape:cx="150.63705"
     inkscape:cy="116.83036"
     inkscape:document-units="px"
     inkscape:current-layer="layer1"
     showgrid="false"
     inkscape:window-width="1280"
     inkscape:window-height="696"
     inkscape:window-x="-8"
     inkscape:window-y="-8"
     inkscape:window-maximized="1"
     fit-margin-top="0"
     fit-margin-left="0"
     fit-margin-right="0"
     fit-margin-bottom="0"
     showguides="true"
     inkscape:guide-bbox="true" />
  <metadata
     id="metadata3980">
    <rdf:RDF>
      <cc:Work
         rdf:about="">
        <dc:format>image/svg+xml</dc:format>
        <dc:type
           rdf:resource="http://purl.org/dc/dcmitype/StillImage" />
        <dc:title></dc:title>
      </cc:Work>
    </rdf:RDF>
  </metadata>
  <g
     inkscape:label="Layer 1"
     inkscape:groupmode="layer"
     id="layer1"
     transform="translate(-100.9202,-350.26417)">
    <path
       style="fill:#e6e6e6;stroke:#000000;stroke-width:1;stroke-linecap:butt;stroke-linejoin:miter;stroke-opacity:1"
       d="m 904.94171,350.76417 -0.002,18.35218 0,29.6744 -36.40033,152.14143 -94.66967,0 -32.21451,-115.71301 -175.08849,0 0,50.045 -74.808,0 0,-50.045 -166.417,0 0,-16.885 -56.4,0 0,103.02608 -76.71855,0 -0.0189,109.30798 13.04399,0 -0.044,23.95002 -12.99005,0 0,20.98798 12.99005,0 0,23.95 -13,0 0,7.57121 0,102.50316 66.627,0.0253 0.023,140.34066 -144.41282,0 -1.8e-4,-244.36399 0,-6.0763 -13.021,0 0,-23.95 -5e-5,0 0,-20.98802 0.036,0 -0.0359,0 0,-23.94998 13.02118,0 0,-279.90398 154.50029,0 0,12.4 56.4,0 0,-12.4 z"
       id="5floor"
       inkscape:connector-curvature="0"
       sodipodi:nodetypes="cccccccccccccccccccccccccccccccccccccccccccc"
       inkscape:label="#5floor" />
    <path
       sodipodi:nodetypes="ccccc"
       inkscape:connector-curvature="0"
       id="a417"
       d="m 166.13532,630.65625 39.196,0 c 3.8125,1.3116 11.1875,16.5759 0,23.95 l -39.26805,0 z"
       style="fill:#e6e6e6;stroke:#000000;stroke-width:1px;stroke-linecap:butt;stroke-linejoin:miter;stroke-opacity:1" />
    <g
       id="g3697"
       transform="translate(-46.341463,-0.40650407)" />
    <path
       style="fill:#e6e6e6;stroke:#000000;stroke-width:1;stroke-linecap:butt;stroke-linejoin:miter;stroke-opacity:1"
       d="m 268.91877,418.33456 0,43.3732 -35.2435,0 0,-43.3732 z"
       id="path5420"
       inkscape:connector-curvature="0"
       sodipodi:nodetypes="ccccc" />
    <text
       xml:space="preserve"
       style="font-size:40px;font-style:normal;font-weight:normal;line-height:125%;letter-spacing:0px;word-spacing:0px;fill:#000000;fill-opacity:1;stroke:none;font-family:Sans"
       x="638"
       y="572.40625"
       id="text4361"
       sodipodi:linespacing="125%"
       transform="translate(65.78125,340.25)"><tspan
         sodipodi:role="line"
         id="tspan4363"
         x="638"
         y="572.40625" /></text>
    <path
       style="fill:#ffffff;stroke:#000000;stroke-width:1px;stroke-linecap:butt;stroke-linejoin:miter;stroke-opacity:1"
       d="m 166.13532,675.59375 39.196,0 c 3.8125,1.3116 11.1875,16.5759 0,23.95 l -39.26805,0 z"
       id="path8313"
       inkscape:connector-curvature="0"
       sodipodi:nodetypes="ccccc" />
    <g
       id="g8315"
       transform="matrix(0,-0.90560986,1.9416511,0,-638.84505,994.22901)">
      <path
         style="fill:none;stroke:#b3b3b3;stroke-width:0.542;stroke-linecap:butt;stroke-linejoin:miter;stroke-opacity:1"
         d="m 325.95867,433.5384 11.00156,0"
         id="path8317"
         inkscape:connector-curvature="0"
         sodipodi:nodetypes="cc" />
      <path
         inkscape:connector-curvature="0"
         id="path8319"
         d="m 325.95867,431.12825 11.00156,0"
         style="fill:none;stroke:#b3b3b3;stroke-width:0.542;stroke-linecap:butt;stroke-linejoin:miter;stroke-opacity:1"
         sodipodi:nodetypes="cc" />
      <path
         inkscape:connector-curvature="0"
         id="path8321"
         d="m 336.78908,433.80631 0,-18.96106"
         style="fill:none;stroke:#b3b3b3;stroke-width:0.542;stroke-linecap:butt;stroke-linejoin:miter;stroke-opacity:1"
         sodipodi:nodetypes="cc" />
      <path
         style="fill:none;stroke:#b3b3b3;stroke-width:0.542;stroke-linecap:butt;stroke-linejoin:miter;stroke-opacity:1"
         d="m 325.95867,428.71825 11.00156,0"
         id="path8323"
         inkscape:connector-curvature="0"
         sodipodi:nodetypes="cc" />
      <path
         inkscape:connector-curvature="0"
         id="path8325"
         d="m 325.95867,426.30825 11.00156,0"
         style="fill:none;stroke:#b3b3b3;stroke-width:0.542;stroke-linecap:butt;stroke-linejoin:miter;stroke-opacity:1"
         sodipodi:nodetypes="cc" />
      <path
         style="fill:none;stroke:#b3b3b3;stroke-width:0.542;stroke-linecap:butt;stroke-linejoin:miter;stroke-opacity:1"
         d="m 325.95867,423.89825 11.00156,0"
         id="path8327"
         inkscape:connector-curvature="0"
         sodipodi:nodetypes="cc" />
      <path
         inkscape:connector-curvature="0"
         id="path8329"
         d="m 325.95867,421.48825 11.00156,0"
         style="fill:none;stroke:#b3b3b3;stroke-width:0.542;stroke-linecap:butt;stroke-linejoin:miter;stroke-opacity:1"
         sodipodi:nodetypes="cc" />
      <path
         style="fill:none;stroke:#b3b3b3;stroke-width:0.542;stroke-linecap:butt;stroke-linejoin:miter;stroke-opacity:1"
         d="m 325.95867,419.07825 11.00156,0"
         id="path8331"
         inkscape:connector-curvature="0"
         sodipodi:nodetypes="cc" />
      <path
         inkscape:connector-curvature="0"
         id="path8333"
         d="m 325.95867,416.66825 11.00156,0"
         style="fill:none;stroke:#b3b3b3;stroke-width:0.542;stroke-linecap:butt;stroke-linejoin:miter;stroke-opacity:1"
         sodipodi:nodetypes="cc" />
    </g>
    <path
       sodipodi:nodetypes="ccccc"
       inkscape:connector-curvature="0"
       id="path8512"
       d="m 258.8312,858.53676 0,43.3585 -35.34343,0 0,-43.15274 z"
       style="fill:#e6e6e6;stroke:#000000;stroke-width:1;stroke-linecap:butt;stroke-linejoin:miter;stroke-opacity:1" />
    <path
       sodipodi:type="arc"
       style="fill:#e6e6e6;stroke:#000000;stroke-width:1"
       id="path3861"
       sodipodi:cx="255.125"
       sodipodi:cy="130.65924"
       sodipodi:rx="18.625"
       sodipodi:ry="18.375"
       d="m 236.50011,130.72338 c -0.0359,-10.14817 8.27364,-18.4036 18.55988,-18.43903 10.28624,-0.0354 18.65399,8.16258 18.6899,18.31075 7e-5,0.0214 1.1e-4,0.0428 1.1e-4,0.0641"
       transform="matrix(0,1.161461,-1.1101429,0,411.44343,143.78608)"
       sodipodi:start="3.138102"
       sodipodi:end="6.2831853"
       sodipodi:open="true" />
    <path
       sodipodi:open="true"
       sodipodi:end="6.2831853"
       sodipodi:start="3.138102"
       transform="matrix(0,1.165606,-1.0028573,0,388.92568,582.83933)"
       d="m 236.50011,130.72338 c -0.0359,-10.14817 8.27364,-18.4036 18.55988,-18.43903 10.28624,-0.0354 18.65399,8.16258 18.6899,18.31075 7e-5,0.0214 1.1e-4,0.0428 1.1e-4,0.0641"
       sodipodi:ry="18.375"
       sodipodi:rx="18.625"
       sodipodi:cy="130.65924"
       sodipodi:cx="255.125"
       id="path3863"
       style="fill:#e6e6e6;stroke:#000000;stroke-width:1"
       sodipodi:type="arc" />
    <path
       style="fill:#e6e6e6;stroke:none"
       d="m 222.2282,849.27456 36.0997,0 0,66 -36.0997,0 z"
       id="path15835"
       inkscape:connector-curvature="0"
       sodipodi:nodetypes="ccccc" />
    <path
       sodipodi:nodetypes="ccccc"
       inkscape:connector-curvature="0"
       id="path15837"
       d="m 232.30456,407.33282 36.0997,0 0,66 -36.0997,0 z"
       style="fill:#e6e6e6;stroke:none" />
    <path
       style="fill:#e6e6e6;stroke:none"
       d="m 149.82703,629.44556 41.8841,0 0.1159,26.15 -41.8841,0 z"
       id="path15850"
       inkscape:connector-curvature="0"
       sodipodi:nodetypes="ccccc" />
    <path
       style="fill:#ffffff;stroke:#000000;stroke-width:1px;stroke-linecap:butt;stroke-linejoin:miter;stroke-opacity:1"
       d="m 114.4412,699.55656 17.007,0 0,30.718 60.43565,0 0.6407,33.99936 -78.08335,-0.32035 z"
       id="a601"
       inkscape:connector-curvature="0"
       sodipodi:nodetypes="ccccccc" />
    <path
       style="fill:none;stroke:#000000;stroke-width:1px;stroke-linecap:butt;stroke-linejoin:miter;stroke-opacity:1"
       d="m 53.893,359.31624 51.658,0"
       id="path3435"
       inkscape:connector-curvature="0"
       transform="translate(60.5482,340.24032)"
       sodipodi:nodetypes="cc" />
    <path
       style="fill:#f9f9f9;stroke:#000000;stroke-width:1px;stroke-linecap:butt;stroke-linejoin:miter;stroke-opacity:1"
       d="m 105.587,335.35324 -34.687,0 0,-15.319 -17.007,0 0,39.282"
       id="path3439"
       inkscape:connector-curvature="0"
       transform="translate(60.5482,340.24032)"
       sodipodi:nodetypes="ccccc" />
    <path
       style="fill:none;stroke:#000000;stroke-width:1;stroke-linecap:butt;stroke-linejoin:miter;stroke-opacity:1"
       d="m 140.4351,763.85095 0,-8.4211"
       id="path8238"
       inkscape:connector-curvature="0"
       sodipodi:nodetypes="cc" />
    <path
       sodipodi:nodetypes="cc"
       inkscape:connector-curvature="0"
       id="path8246"
       d="m 140.5482,730.27456 0,8.466"
       style="fill:none;stroke:#000000;stroke-width:1px;stroke-linecap:butt;stroke-linejoin:miter;stroke-opacity:1" />
    <path
       sodipodi:nodetypes="cc"
       inkscape:connector-curvature="0"
       id="path3976"
       d="m 178.4351,763.85095 0,-17.12139"
       style="fill:none;stroke:#000000;stroke-width:1;stroke-linecap:butt;stroke-linejoin:miter;stroke-opacity:1" />
    <path
       style="fill:none;stroke:#000000;stroke-width:1px;stroke-linecap:butt;stroke-linejoin:miter;stroke-opacity:1"
       d="m 178.5482,730.27456 0,14.166"
       id="path3978"
       inkscape:connector-curvature="0"
       sodipodi:nodetypes="cc" />
    <text
       sodipodi:linespacing="125%"
       id="text4613"
       y="677.06635"
       x="176.20583"
       style="font-size:10.95304394px;font-style:normal;font-weight:normal;line-height:125%;letter-spacing:0px;word-spacing:0px;fill:#000000;fill-opacity:1;stroke:none;font-family:Sans"
       xml:space="preserve"
       transform="scale(0.91275371,1.0955858)"><tspan
         y="677.06635"
         x="176.20583"
         id="tspan4615"
         sodipodi:role="line">601</tspan></text>
    <path
       style="fill:#ffffff;stroke:#000000;stroke-width:0.89264053;stroke-linecap:butt;stroke-linejoin:miter;stroke-opacity:1"
       d="m 178.3591,703.28104 0,26.96238 -24.05238,0 0,-26.96238 z"
       id="path5245"
       inkscape:connector-curvature="0"
       sodipodi:nodetypes="ccccc" />
    <g
       id="g5289"
       transform="matrix(1.0915812,0,0,1.2730359,-201.05377,175.54718)">
      <path
         inkscape:connector-curvature="0"
         id="path5247"
         d="m 325.95867,433.5384 21.16081,0"
         style="fill:none;stroke:#b3b3b3;stroke-width:0.542;stroke-linecap:butt;stroke-linejoin:miter;stroke-opacity:1" />
      <path
         style="fill:none;stroke:#b3b3b3;stroke-width:0.542;stroke-linecap:butt;stroke-linejoin:miter;stroke-opacity:1"
         d="m 325.95867,431.12825 21.16081,0"
         id="path5249"
         inkscape:connector-curvature="0" />
      <path
         sodipodi:nodetypes="cc"
         style="fill:none;stroke:#b3b3b3;stroke-width:0.542;stroke-linecap:butt;stroke-linejoin:miter;stroke-opacity:1"
         d="m 336.78908,433.80631 0,-18.96106"
         id="path5265"
         inkscape:connector-curvature="0" />
      <path
         inkscape:connector-curvature="0"
         id="path5267"
         d="m 325.95867,428.71825 21.16081,0"
         style="fill:none;stroke:#b3b3b3;stroke-width:0.542;stroke-linecap:butt;stroke-linejoin:miter;stroke-opacity:1" />
      <path
         style="fill:none;stroke:#b3b3b3;stroke-width:0.542;stroke-linecap:butt;stroke-linejoin:miter;stroke-opacity:1"
         d="m 325.95867,426.30825 21.16081,0"
         id="path5269"
         inkscape:connector-curvature="0" />
      <path
         inkscape:connector-curvature="0"
         id="path5271"
         d="m 325.95867,423.89825 21.16081,0"
         style="fill:none;stroke:#b3b3b3;stroke-width:0.542;stroke-linecap:butt;stroke-linejoin:miter;stroke-opacity:1" />
      <path
         style="fill:none;stroke:#b3b3b3;stroke-width:0.542;stroke-linecap:butt;stroke-linejoin:miter;stroke-opacity:1"
         d="m 325.95867,421.48825 21.16081,0"
         id="path5273"
         inkscape:connector-curvature="0" />
      <path
         inkscape:connector-curvature="0"
         id="path5275"
         d="m 325.95867,419.07825 21.16081,0"
         style="fill:none;stroke:#b3b3b3;stroke-width:0.542;stroke-linecap:butt;stroke-linejoin:miter;stroke-opacity:1" />
      <path
         style="fill:none;stroke:#b3b3b3;stroke-width:0.542;stroke-linecap:butt;stroke-linejoin:miter;stroke-opacity:1"
         d="m 325.95867,416.66825 21.16081,0"
         id="path5277"
         inkscape:connector-curvature="0" />
    </g>
    <path
       style="fill:#f2f2f2"
       d="m 58.250568,358.19605 c 0.648037,-0.64803 44.696062,-21.09349 45.444162,-21.09349 0.26369,0 0.47943,4.87573 0.47943,10.83496 l 0,10.83495 -23.250005,0 c -12.787505,0 -22.990619,-0.25939 -22.673587,-0.57642 z"
       id="path3033"
       inkscape:connector-curvature="0"
       transform="translate(60.5482,340.24032)" />
    <path
       style="fill:#f2f2f2"
       d="m 55.416864,339.27902 0,-18.42889 7.449032,0 7.449032,0 0,8.0804 0,8.08039 14.49282,0.38441 14.492821,0.38442 -20.248891,9.29032 c -11.136889,5.10969 -21.010724,9.59352 -21.941853,9.96409 -1.304433,0.51913 -1.692961,-3.55561 -1.692961,-17.75514 z"
       id="path3035"
       inkscape:connector-curvature="0"
       transform="translate(60.5482,340.24032)" />
  </g>
</svg>
