<svg height="812.75" preserveAspectRatio="xMinYMin meet" viewBox="0 0 812.75 600.25" width="812.75" xmlns="http://www.w3.org/2000/svg">
<g transform="translate(-100.5482,-350.2296)">
<path d="m904.9417,350.7642-.002,18.3522v29.6744l-36.4003,152.1414h-94.6697l-32.2145-115.713h-175.0885v50.045h-74.808v-50.045h-166.417v-16.885h-56.4v103.0261h-76.7185l-.0189,109.308h13.044l-.044,23.95h-44.0031v20.988h44.0031v23.95h-13v7.5712 102.5032l66.627.0253 .023,140.3407h-144.4128l-.0002-244.364v-6.0763h-13.021v-23.95h46.3359v-20.988h-25.76-20.576v-23.95h13.0212v-279.904h154.5003v12.4h56.4v-12.4z" fill="#999" stroke="#000"/>
<path d="m166.1353,630.6563h39.196c3.8125,1.3116 11.1875,16.5759 0,23.95h-39.2681z" fill="#fff" stroke="#000"/>
<path d="m758.7002,496.3622h26.0787l14.5371,54.5702-25.746-.0002z" fill="none" stroke="#000"/>
<path d="m491.4587,485.2642v-62.6076h47.624 27.4845v62.6076z" fill="#fff" stroke="#000"/>
<path d="m268.9188,418.3493v43.3585h-35.2435v-43.1527z" fill="#fff" stroke="#000"/>
<path d="m101.1203,630.6563h41.5829v23.95h-41.655z" fill="#fff" stroke="#000"/>
<path d="m101.2086,675.6063h41.4941l.0005,4.7562 5.053,6e-005v10.4298 8.7512l-46.6197-.0003z" fill="#fff" stroke="#000"/>
<path d="m333.8793,401.3562v31.9" fill="none" stroke="#000" stroke-width=".6193"/>
<path d="m327.3585,403.4063h6.5188 6.5189" fill="none" stroke="#000" stroke-width=".6193"/>
<path d="m327.3585,405.4063h6.5188 6.5189" fill="none" stroke="#000" stroke-width=".6193"/>
<path d="m327.3585,407.4063h6.5188 6.5189" fill="none" stroke="#000" stroke-width=".6193"/>
<path d="m327.3585,409.4063h6.5188 6.5189" fill="none" stroke="#000" stroke-width=".6193"/>
<path d="m327.3585,411.4063h6.5188 6.5189" fill="none" stroke="#000" stroke-width=".6193"/>
<path d="m327.3585,413.4063h6.5188 6.5189" fill="none" stroke="#000" stroke-width=".6193"/>
<path d="m327.3585,415.4063h6.5188 6.5189" fill="none" stroke="#000" stroke-width=".6193"/>
<path d="m327.3585,417.4063h6.5188 6.5189" fill="none" stroke="#000" stroke-width=".6193"/>
<path d="m327.3585,419.4063h6.5188 6.5189" fill="none" stroke="#000" stroke-width=".6193"/>
<path d="m327.3585,421.4063h6.5188 6.5189" fill="none" stroke="#000" stroke-width=".6193"/>
<path d="m327.3585,423.4063h6.5188 6.5189" fill="none" stroke="#000" stroke-width=".6193"/>
<path d="m327.3585,425.4063h6.5188 6.5189" fill="none" stroke="#000" stroke-width=".6193"/>
<path d="m327.3585,427.4063h6.5188 6.5189" fill="none" stroke="#000" stroke-width=".6193"/>
<path d="m327.3585,429.4063h6.5188 6.5189" fill="none" stroke="#000" stroke-width=".6193"/>
<path d="m327.3585,431.4063h6.5188 6.5189" fill="none" stroke="#000" stroke-width=".6193"/>
<path d="m699.0749,178.7124h25.963l8.4969,31.9699h-25.721z" fill="#fff" stroke="#000" transform="translate(65.7813,340.25)"/><text font-family="Sans" font-size="40" letter-spacing="0" transform="translate(65.7813,340.25)" word-spacing="0" x="638" xml:space="preserve" y="572.4063"><tspan x="638" y="572.4063"></tspan></text><text font-family="Sans" font-size="10.953" letter-spacing="0" transform="scale(.913,1.096)" word-spacing="0" x="135.4466" xml:space="preserve" y="584.7941"><tspan x="135.4466" y="584.7941">316</tspan></text><text font-family="Sans" font-size="10.953" letter-spacing="0" transform="scale(.913,1.096)" word-spacing="0" x="139.3314" xml:space="preserve" y="491.5222"><tspan x="139.3314" y="491.5222">316</tspan></text><text font-family="Sans" font-size="10.953" letter-spacing="0" transform="scale(.913,1.096)" word-spacing="0" x="135.4466" xml:space="preserve" y="625.9755"><tspan x="135.4466" y="625.9755">317</tspan></text>
<path d="m348.9844,399.6752v35.533h-23.6422v-35.533z" fill="#fff" stroke="#000"/>
<path d="m161.2014,521.4146 30.9765-.0151-.0002,23.9563h-30.9765z" fill="#fff" stroke="#000" stroke-width=".9887"/>
<path d="m166.1353,675.5938h39.196c3.8125,1.3116 11.1875,16.5759 0,23.95h-39.2681z" fill="#fff" stroke="#000"/>
<path d="m258.8312,858.5368v43.3585h-35.3434v-43.1527z" fill="#fff" stroke="#000"/>
<path d="m664.5492,350.7546h77.106v35.36h-77.106z" fill="#fff" stroke="#000"/>
<path d="m697.939,411.4325 4e-005,23.6933h-62.9529v-23.6933z" fill="#fff" id="w" stroke="#000"/>
<path d="m653.9396,399.6851 13.2948-.01 8.7761-.009v11.7641h-22.0708z" fill="#fff" stroke="#000"/>
<path d="m675.9685,399.6756h22.0798v11.7592h-22.0798z" fill="#fff" stroke="#000"/>
<path d="m741.655,399.6756h-43.6761v35.5238h43.6761z" fill="#fff" stroke="#000"/>
<g transform="matrix(.82935,0,0,1.24435,502.76053,3.24865)">
<path d="m324.4027,433.9853h33.4465" fill="none" stroke="#b3b3b3" stroke-width=".6814"/>
<path d="m323.4996,431.0389h33.049" fill="none" stroke="#b3b3b3" stroke-width=".6773"/>
<path d="m338.8588,434.2471-7.0796-19.4913" fill="none" stroke="#b3b3b3" stroke-width=".5495"/>
<path d="m322.4889,428.6289h32.1215" fill="none" stroke="#b3b3b3" stroke-width=".6678"/>
<path d="m321.4287,426.2189h31.459" fill="none" stroke="#b3b3b3" stroke-width=".6609"/>
<path d="m320.4555,423.8089h30.929" fill="none" stroke="#b3b3b3" stroke-width=".6553"/>
<path d="m319.114,421.3989h31.1937" fill="none" stroke="#b3b3b3" stroke-width=".6581"/>
<path d="m318.1862,418.9889h32.1215" fill="none" stroke="#b3b3b3" stroke-width=".6678"/>
<path d="m317.2557,416.5789h30.2671" fill="none" stroke="#b3b3b3" stroke-width=".6482"/>
</g>
<g id="libs">
<path d="m681.107,10.5242h163.287v27.147h-163.287z" fill="#fff" stroke="#000" transform="translate(60.5482,340.2403)"/>
<path d="m738.677,210.6922-8.406-31.97h28.4767 56.8893l-7.646,31.97z" fill="#fff" stroke="#000" transform="translate(60.5482,340.2403)"/>
<path d="m819.2602,518.9406h56.925l28.755-120.15-.235-20.879h-51.793z" fill="#fff" stroke="#000"/>
<path d="m724.231,156.1222 6.04,22.6h28.477l5.327-22.6z" fill="#fff" stroke="#000" transform="translate(60.5482,340.2403)"/>
<path d="m681.107,59.4242h106.05l5.207-21.753h-111.257z" fill="#fff" stroke="#000" transform="translate(60.5482,340.2403)"/>
<path d="m681.107,59.4242v35.535l17.045,61.163h65.923l23.082-96.698z" fill="#fff" stroke="#000" transform="translate(60.5482,340.2403)"/>
</g>
<path d="m614.7316,399.6756v35.5366h-48.1644v-12.5556h2.191v-22.981z" fill="#fff" stroke="#000"/>
<path d="m614.7317,399.6756h20.2545v35.5368l-20.2545-1e-005z" fill="#fff" stroke="#000"/>
<path d="m528.8096,399.6776h39.9757v22.9607h-39.9757z" fill="#fff" stroke="#000" stroke-width="1.0243"/>
<path d="m488.8155,399.6749h39.9757v22.9607h-39.9757z" fill="#fff" stroke="#000"/>
<path d="m447.1442,399.6756v35.5366h44.3139v-12.5556h-2.191v-22.981z" fill="#fff" stroke="#000"/>
<path d="m428.9019,399.6756v35.6011h-30.7201l-.002-35.6011z" fill="#fff" stroke="#000"/>
<path d="m398.2149,399.6756v35.6011h-31.0211l-.002-35.6011z" fill="#fff" stroke="#000"/>
<path d="m447.1442,399.6756v35.5996h-18.242l-.002-35.5996z" fill="#fff" stroke="#000"/>
<path d="m367.2692,399.6756v35.5996h-18.284l-.002-35.5996z" fill="#fff" stroke="#000"/><text font-family="Sans" font-size="10.953" letter-spacing="0" transform="scale(.913,1.096)" word-spacing="0" x="470.7515" xml:space="preserve" y="375.6108"><tspan x="470.7515" y="375.6108">373</tspan></text><text font-family="Sans" font-size="10.953" letter-spacing="0" transform="scale(.913,1.096)" word-spacing="0" x="383.2292" xml:space="preserve" y="375.6108"><tspan x="383.2292" y="375.6108">380</tspan></text><text font-family="Sans" font-size="10.953" letter-spacing="0" transform="scale(.913,1.096)" word-spacing="0" x="514.3116" xml:space="preserve" y="375.6108"><tspan x="514.3116" y="375.6108">372</tspan></text><text font-family="Sans" font-size="10.953" letter-spacing="0" transform="scale(.913,1.096)" word-spacing="0" x="415.7093" xml:space="preserve" y="375.6108"><tspan x="415.7093" y="375.6108">378</tspan></text><text font-family="Sans" font-size="10.953" letter-spacing="0" transform="scale(.913,1.096)" word-spacing="0" x="450.7679" xml:space="preserve" y="375.6108"><tspan x="450.7679" y="375.6108">374</tspan></text><text font-family="Sans" font-size="10.953" letter-spacing="0" transform="scale(.913,1.096)" word-spacing="0" x="558.1348" xml:space="preserve" y="375.6108"><tspan x="558.1348" y="375.6108">370</tspan></text><text font-family="Sans" font-size="10.953" letter-spacing="0" transform="scale(.913,1.096)" word-spacing="0" x="601.9581" xml:space="preserve" y="375.6108"><tspan x="601.9581" y="375.6108">368</tspan></text><text font-family="Sans" font-size="10.953" letter-spacing="0" transform="scale(.913,1.096)" word-spacing="0" x="652.3548" xml:space="preserve" y="375.6108"><tspan x="652.3548" y="375.6108">366</tspan></text><text font-family="Sans" font-size="10.953" letter-spacing="0" transform="scale(.913,1.096)" word-spacing="0" x="676.1837" xml:space="preserve" y="375.6108"><tspan x="676.1837" y="375.6108">364</tspan></text>
<path d="m614.7322,350.7702h49.817v35.3444h-49.817z" fill="#fff" stroke="#000"/>
<path d="m568.7582,350.7702h45.9472v35.3444h-45.9472z" fill="#fff" stroke="#000"/>
<path d="m547.3582,350.7702h21.3472v35.3444h-21.3472z" fill="#fff" stroke="#000"/>
<path d="m489.2672,350.7702h21.4383v35.3444h-21.4383z" fill="#fff" stroke="#000"/>
<path d="m510.7052,350.7702h36.653v35.3444h-36.653z" fill="#fff" stroke="#000"/>
<path d="m414.7982,350.7702h37.907v35.3444h-37.907z" fill="#fff" stroke="#000"/>
<path d="m452.7052,350.7702h36.653v35.3444h-36.653z" fill="#fff" stroke="#000"/>
<path d="m396.4258,350.7349h18.3705v35.3797h-18.3705z" fill="#fff" stroke="#000" stroke-width=".9295"/>
<path d="m359.6293,350.7349h18.3705v35.3797h-18.3705z" fill="#fff" stroke="#000" stroke-width=".9295"/>
<path d="m378.0193,350.7349h18.3705v35.3797h-18.3705z" fill="#fff" stroke="#000" stroke-width=".9295"/>
<path d="m325.3422,350.7702h34.287v35.3444h-34.287z" fill="#fff" stroke="#000"/><text font-family="Sans" font-size="10.953" letter-spacing="0" transform="scale(.913,1.096)" word-spacing="0" x="785.1082" xml:space="preserve" y="331.1327"><tspan x="785.1082" y="331.1327">359</tspan></text><text font-family="Sans" font-size="10.953" letter-spacing="0" transform="scale(.913,1.096)" word-spacing="0" x="707.1339" xml:space="preserve" y="331.1327"><tspan x="707.1339" y="331.1327">361</tspan></text><text font-family="Sans" font-size="10.953" letter-spacing="0" transform="scale(.913,1.096)" word-spacing="0" x="652.3548" xml:space="preserve" y="331.1327"><tspan x="652.3548" y="331.1327">365</tspan></text><text font-family="Sans" font-size="10.953" letter-spacing="0" transform="scale(.913,1.096)" word-spacing="0" x="603.1201" xml:space="preserve" y="331.1327"><tspan x="603.1201" y="331.1327">367</tspan></text><text font-family="Sans" font-size="10.953" letter-spacing="0" transform="scale(.913,1.096)" word-spacing="0" x="568.5705" xml:space="preserve" y="331.1327"><tspan x="568.5705" y="331.1327">368a</tspan></text><text font-family="Sans" font-size="10.953" letter-spacing="0" transform="scale(.913,1.096)" word-spacing="0" x="538.6689" xml:space="preserve" y="331.1327"><tspan x="538.6689" y="331.1327">369</tspan></text><text font-family="Sans" font-size="10.953" letter-spacing="0" transform="scale(.913,1.096)" word-spacing="0" x="514.5661" xml:space="preserve" y="331.1327"><tspan x="514.5661" y="331.1327">371</tspan></text><text font-family="Sans" font-size="10.953" letter-spacing="0" transform="scale(.913,1.096)" word-spacing="0" x="475.1252" xml:space="preserve" y="331.1327"><tspan x="475.1252" y="331.1327">375</tspan></text><text font-family="Sans" font-size="10.953" letter-spacing="0" transform="scale(.913,1.096)" word-spacing="0" x="435.297" xml:space="preserve" y="331.1327"><tspan x="435.297" y="331.1327">376</tspan></text><text font-family="Sans" font-size="10.953" letter-spacing="0" transform="scale(.913,1.096)" word-spacing="0" x="415.3828" xml:space="preserve" y="331.1327"><tspan x="415.3828" y="331.1327">377</tspan></text><text font-family="Sans" font-size="10.953" letter-spacing="0" transform="scale(.913,1.096)" word-spacing="0" x="394.8877" xml:space="preserve" y="331.1327"><tspan x="394.8877" y="331.1327">379</tspan></text><text font-family="Sans" font-size="10.953" letter-spacing="0" transform="scale(.913,1.096)" word-spacing="0" x="367.3709" xml:space="preserve" y="331.1327"><tspan x="367.3709" y="331.1327">381</tspan></text>
<path d="m236.5001,130.7234c-.0359-10.1482 8.2736-18.4036 18.5599-18.439s18.654,8.1626 18.6899,18.3107c7e-005,.0214.0001.0428.0001.0641" fill="#fff" stroke="#000" transform="matrix(0,1.16146,-1.0025,0,399.35629,143.78608)"/>
<path d="m268.9422,363.1646h36.606v37.933h-36.606z" fill="#fff" stroke="#000"/>
<path d="m305.5482,363.1646h19.794v22.95h-8.994v14.983h-10.8z" fill="#fff" stroke="#000"/>
<path d="m257.0245,65.6842h7.769l.0005,12.41h-7.769z" fill="#fff" stroke="#000" transform="translate(60.5482,340.2403)"/>
<path d="m208.394,10.5242v46.51h-106.412v-46.51z" fill="#fff" stroke="#000" transform="translate(60.5482,340.2403)"/>
<path d="m143.0598,350.7296h19.4705v46.545h-19.4705z" fill="#fff" stroke="#000"/>
<path d="m114.4412,350.7296h28.669v46.545h-28.669z" fill="#fff" stroke="#000"/>
<path d="m114.3967,397.23h33.3593v41.3895h-33.3593z" fill="#fff" stroke="#000"/>
<path d="m114.3972,438.5816h33.3593l-.0005,41.3895h-33.3593z" fill="#fff" stroke="#000"/>
<path d="m233.6868,461.5978h35.2554v18.8287h-35.2554z" fill="#fff" stroke="#000"/>
<path d="m114.3972,479.9187h33.3593l-.0005,41.4888h-33.3593z" fill="#fff" stroke="#000"/>
<path d="m161.2014,480.4266h52.881l-.0005,40.981h-52.881z" fill="#fff" stroke="#000" stroke-width=".911"/>
<path d="m214.0824,480.4266h54.9054l-.0005,40.981h-54.9054z" fill="#fff" stroke="#000" stroke-width=".911"/><text font-family="Sans" font-size="10.953" letter-spacing="0" transform="scale(.913,1.096)" word-spacing="0" x="272.4369" xml:space="preserve" y="331.1327"><tspan x="272.4369" y="331.1327">302</tspan></text><text font-family="Sans" font-size="10.953" letter-spacing="0" transform="scale(.913,1.096)" word-spacing="0" x="158.3383" xml:space="preserve" y="331.1327"><tspan x="158.3383" y="331.1327">303</tspan></text><text font-family="Sans" font-size="10.953" letter-spacing="0" transform="scale(.913,1.096)" word-spacing="0" x="129.1293" xml:space="preserve" y="331.1327"><tspan x="129.1293" y="331.1327">303a</tspan></text><text font-family="Sans" font-size="10.953" letter-spacing="0" transform="scale(.913,1.096)" word-spacing="0" x="141.6191" xml:space="preserve" y="371.9391"><tspan x="141.6191" y="371.9391">304</tspan></text><text font-family="Sans" font-size="10.953" letter-spacing="0" transform="scale(.913,1.096)" word-spacing="0" x="141.6191" xml:space="preserve" y="409.7398"><tspan x="141.6191" y="409.7398">305</tspan></text><text font-family="Sans" font-size="10.953" letter-spacing="0" transform="scale(.913,1.096)" word-spacing="0" x="141.6191" xml:space="preserve" y="447.4586"><tspan x="141.6191" y="447.4586">306</tspan></text><text font-family="Sans" font-size="10.953" letter-spacing="0" transform="scale(.913,1.096)" word-spacing="0" x="211.798" xml:space="preserve" y="449.2841"><tspan x="211.798" y="449.2841">308</tspan></text><text font-family="Sans" font-size="10.953" letter-spacing="0" transform="scale(.913,1.096)" word-spacing="0" x="273.1509" xml:space="preserve" y="449.2841"><tspan x="273.1509" y="449.2841">309</tspan></text>
<path d="m114.3963,521.4146 33.36-.0151-.0002,23.9563h-33.36z" fill="#fff" stroke="#000"/><text font-family="Sans" font-size="10.953" letter-spacing="0" transform="scale(.913,1.096)" word-spacing="0" x="141.6196" xml:space="preserve" y="484.9967"><tspan x="141.6196" y="484.9967">300</tspan></text>
<path d="m114.3963,545.4146 33.36-.0151-.0002,28.575h-33.36z" fill="#fff" stroke="#000"/>
<path d="m114.3963,574.0002 33.36-.0151-.0002,28.575h-33.36z" fill="#fff" stroke="#000"/>
<path d="m114.3963,602.5637 33.36-.0151-.0002,28.1079h-33.36z" fill="#fff" stroke="#000"/>
<path d="m161.2012,545.2877h31.0105v12.3487h-31.0105z" fill="#fff" stroke="#000"/>
<path d="m161.2012,557.632h31.0105v25.9486h-31.0105z" fill="#fff" stroke="#000"/>
<path d="m161.2012,583.5695h31.0105v47.0871h-31.0105z" fill="#fff" stroke="#000"/>
<path d="m161.2012,699.5253h31.0105l-.0003,19.6872h-31.0105z" fill="#fff" stroke="#000"/>
<path d="m114.4432,699.5692 33.3131-.0151-.0002,24.1074h-33.3131z" fill="#fff" stroke="#000"/>
<path d="m114.4588,723.6799 33.2975-.0151-.0002,25.708h-33.2975z" fill="#fff" stroke="#000"/>
<path d="m114.4423,769.9891h33.3139v12.415h-33.3139z" fill="#fff" stroke="#000"/>
<path d="m114.4641,782.41 33.2922-.0151-.0002,27.2356h-33.2922z" fill="#fff" stroke="#000"/>
<path d="m114.4432,749.3816 33.3131-.0151-.0002,20.608h-33.3131z" fill="#fff" stroke="#000"/>
<path d="m161.2012,719.2129h31.0105l-.0003,13.3877h-31.0105z" fill="#fff" stroke="#000"/>
<path d="m161.2012,732.5941h31.0105l-.0003,13.3877h-31.0105z" fill="#fff" stroke="#000"/>
<path d="m161.2012,745.9849h31.0105l-.0003,25.6876h-31.0105z" fill="#fff" stroke="#000"/>
<path d="m161.2012,771.6724h31.0105l-.0003,22.5871h-31.0105z" fill="#fff" stroke="#000"/>
<path d="m100.453,454.0192 5.048,15.371h26.2625l-.1005-15.371z" fill="#fff" stroke="#000" transform="translate(60.5482,340.2403)"/>
<path d="m160.4489,793.0355 .0003,1.812" fill="#999" stroke="#999" stroke-width=".5"/>
<path d="m223.4882,809.6423 35.343.025v31.591h-35.343z" fill="#fff" stroke="#000"/>
<path d="m223.4882,841.2328 35.343.025v17.3818h-35.343z" fill="#fff" stroke="#000"/>
<path d="m166.1839,809.6306 57.3043.025v20.491h-57.3043z" fill="#fff" stroke="#000"/>
<path d="m114.4421,809.6291 33.2922-.0151-.0002,31.6316h-33.2922z" fill="#fff" stroke="#000"/>
<path d="m114.4383,841.2328 51.7459.0249v17.3818l-51.7459.0001z" fill="#fff" stroke="#000"/>
<path d="m114.4383,858.6703 51.7459.0249v43.2064l-51.7459.0001z" fill="#fff" stroke="#000"/>
<path d="m223.4882,901.889 35.343.025v17.3818h-35.343z" fill="#fff" stroke="#000"/>
<path d="m114.4383,901.8888 51.7459.0249v17.3818l-51.7459.0001z" fill="#fff" stroke="#000"/>
<path d="m236.5001,130.7234c-.0359-10.1482 8.2736-18.4036 18.5599-18.439s18.654,8.1626 18.6899,18.3107c7e-005,.0214.0001.0428.0001.0641" fill="#fff" stroke="#000" transform="matrix(0,1.16561,-1.00286,0,388.92568,582.83933)"/><text font-family="Sans" font-size="8" letter-spacing="0" word-spacing="0" x="228.9427" xml:space="preserve" y="916.0011"><tspan font-size="16" x="228.9427" y="916.0011">WC</tspan></text>
<path d="m114.4412,919.2956h66.332v30.7063h-66.332z" fill="#fff" stroke="#000"/>
<path d="m180.7732,919.2956h78.0348v30.7063h-78.0348z" fill="#fff" stroke="#000"/>
<path d="m180.7732,858.6701 26.158.025v60.6005h-26.158z" fill="#fff" stroke="#000"/>
<path d="m180.7732,841.2331 26.158.025v17.4245h-26.158z" fill="#fff" stroke="#000"/><text font-family="Sans" font-size="10.953" letter-spacing="0" transform="scale(.913,1.096)" word-spacing="0" x="136.5837" xml:space="preserve" y="647.5969"><tspan x="136.5837" y="647.5969">318a</tspan></text><text font-family="Sans" font-size="10.953" letter-spacing="0" transform="scale(.913,1.096)" word-spacing="0" x="184.2752" xml:space="preserve" y="647.597"><tspan x="184.2752" y="647.597">330a</tspan></text><text font-family="Sans" font-size="10.953" letter-spacing="0" transform="scale(.913,1.096)" word-spacing="0" x="191.3495" xml:space="preserve" y="666.0762"><tspan x="191.3495" y="666.0762">330</tspan></text><text font-family="Sans" font-size="10.953" letter-spacing="0" transform="scale(.913,1.096)" word-spacing="0" x="141.6191" xml:space="preserve" y="670.5092"><tspan x="141.6191" y="670.5092">318</tspan></text><text font-family="Sans" font-size="10.953" letter-spacing="0" transform="scale(.913,1.096)" word-spacing="0" x="141.6191" xml:space="preserve" y="694.2787"><tspan x="141.6191" y="694.2787">319</tspan></text><text font-family="Sans" font-size="10.953" letter-spacing="0" transform="scale(.913,1.096)" word-spacing="0" x="141.2318" xml:space="preserve" y="712.1289"><tspan x="141.2318" y="712.1289">323</tspan></text><text font-family="Sans" font-size="10.953" letter-spacing="0" transform="scale(.913,1.096)" word-spacing="0" x="191.35" xml:space="preserve" y="689.6988"><tspan x="191.35" y="689.6988">320</tspan></text><text font-family="Sans" font-size="10.953" letter-spacing="0" transform="scale(.913,1.096)" word-spacing="0" x="191.35" xml:space="preserve" y="713.8696"><tspan x="191.35" y="713.8696">321</tspan></text><text font-family="Sans" font-size="10.953" letter-spacing="0" transform="scale(.913,1.096)" word-spacing="0" x="192.0967" xml:space="preserve" y="735.8754"><tspan x="192.0967" y="735.8754">333</tspan></text><text font-family="Sans" font-size="10.953" letter-spacing="0" transform="scale(.913,1.096)" word-spacing="0" x="141.6191" xml:space="preserve" y="724.4013"><tspan x="141.6191" y="724.4013">322</tspan></text><text font-family="Sans" font-size="10.953" letter-spacing="0" transform="scale(.913,1.096)" word-spacing="0" x="141.6191" xml:space="preserve" y="749.199"><tspan x="141.6191" y="749.199">324</tspan></text><text font-family="Sans" font-size="10.953" letter-spacing="0" transform="scale(.913,1.096)" word-spacing="0" x="262.2617" xml:space="preserve" y="748.6668"><tspan x="262.2617" y="748.6668">328</tspan></text><text font-family="Sans" font-size="10.953" letter-spacing="0" transform="scale(.913,1.096)" word-spacing="0" x="200.1565" xml:space="preserve" y="779.5776"><tspan x="200.1565" y="779.5776">326б</tspan></text><text font-family="Sans" font-size="10.953" letter-spacing="0" transform="scale(.913,1.096)" word-spacing="0" x="161.356" xml:space="preserve" y="779.5776"><tspan x="161.356" y="779.5776">325</tspan></text><text font-family="Sans" font-size="10.953" letter-spacing="0" transform="scale(.913,1.096)" word-spacing="0" x="161.3562" xml:space="preserve" y="794.1018"><tspan x="161.3562" y="794.1018">326</tspan></text><text font-family="Sans" font-size="10.953" letter-spacing="0" transform="scale(.913,1.096)" word-spacing="0" x="205.7712" xml:space="preserve" y="793.0153"><tspan x="205.7712" y="793.0153">337</tspan></text><text font-family="Sans" font-size="10.953" letter-spacing="0" transform="scale(.913,1.096)" word-spacing="0" x="161.3562" xml:space="preserve" y="834.7936"><tspan x="161.3562" y="834.7936">329</tspan></text><text font-family="Sans" font-size="10.953" letter-spacing="0" transform="scale(.913,1.096)" word-spacing="0" x="178.0321" xml:space="preserve" y="849.1879"><tspan x="178.0321" y="849.1879">332</tspan></text><text font-family="Sans" font-size="10.953" letter-spacing="0" transform="scale(.913,1.096)" word-spacing="0" x="262.9828" xml:space="preserve" y="849.1877"><tspan x="262.9828" y="849.1877">331</tspan></text><text font-family="Sans" font-size="10.953" letter-spacing="0" transform="scale(.913,1.096)" word-spacing="0" x="141.6191" xml:space="preserve" y="507.1326"><tspan x="141.6191" y="507.1326">310</tspan></text><text font-family="Sans" font-size="10.953" letter-spacing="0" transform="scale(.913,1.096)" word-spacing="0" x="191.8171" xml:space="preserve" y="507.1735"><tspan x="191.8171" y="507.1735">311</tspan></text><text font-family="Sans" font-size="10.953" letter-spacing="0" transform="scale(.913,1.096)" word-spacing="0" x="191.8167" xml:space="preserve" y="518.639"><tspan x="191.8167" y="518.639">313</tspan></text><text font-family="Sans" font-size="10.953" letter-spacing="0" transform="scale(.913,1.096)" word-spacing="0" x="191.8167" xml:space="preserve" y="542.1052"><tspan x="191.8167" y="542.1052">315</tspan></text><text font-family="Sans" font-size="10.953" letter-spacing="0" transform="scale(.913,1.096)" word-spacing="0" x="141.6191" xml:space="preserve" y="566.713"><tspan x="141.6191" y="566.713">314</tspan></text><text font-family="Sans" font-size="10.953" letter-spacing="0" transform="scale(.913,1.096)" word-spacing="0" x="141.6191" xml:space="preserve" y="533.5945"><tspan x="141.6191" y="533.5945">312</tspan></text>
<path d="m153.2982,437.2746h2.625v2.75h-2.625z" fill="#fff" stroke="#000" stroke-width=".5"/>
<path d="m177.2982,437.2746h2.625v2.75h-2.625z" fill="#fff" stroke="#000" stroke-width=".5"/>
<path d="m201.2982,437.2746h2.625v2.75h-2.625z" fill="#fff" stroke="#000" stroke-width=".5"/>
<path d="m225.2982,437.2746h2.625v2.75h-2.625z" fill="#fff" stroke="#000" stroke-width=".5"/>
<path d="m225.3841,421.3604h5.0533v2.5783h-5.0533z" fill="#fff" stroke="#000" stroke-width=".6717"/>
<path d="m225.3841,457.3604h5.0533v2.5783h-5.0533z" fill="#fff" stroke="#000" stroke-width=".6717"/><text font-family="Sans" font-size="8" letter-spacing="0" word-spacing="0" x="751.5482" xml:space="preserve" y="393.7746"><tspan font-size="12" x="751.5482" y="393.7746">БИБЛИОТЕКА</tspan></text><text font-family="Sans" font-size="10" letter-spacing="0" word-spacing="0" x="318.2982" xml:space="preserve" y="415.7746"><tspan x="318.2982" y="415.7746">X</tspan></text>
<g transform="matrix(2.02039,0,0,2.16194,39.60246,-496.47797)">
<path d="m336.7891,430.878v-16.0327" fill="none" stroke="#b3b3b3" stroke-width=".4984"/>
<path d="m325.9587,428.7183h21.1608" fill="none" stroke="#b3b3b3" stroke-width=".542"/>
<path d="m325.9587,426.3082h21.1608" fill="none" stroke="#b3b3b3" stroke-width=".542"/>
<path d="m325.9587,423.8983h21.1608" fill="none" stroke="#b3b3b3" stroke-width=".542"/>
<path d="m325.9587,421.4882h21.1608" fill="none" stroke="#b3b3b3" stroke-width=".542"/>
<path d="m325.9587,419.0783h21.1608" fill="none" stroke="#b3b3b3" stroke-width=".542"/>
<path d="m325.9587,416.6683h21.1608" fill="none" stroke="#b3b3b3" stroke-width=".542"/>
</g><text font-family="Sans" font-size="8" letter-spacing="0" word-spacing="0" x="645.8425" xml:space="preserve" y="428.3663"><tspan font-size="16" x="645.8425" y="428.3663">WC</tspan></text>
<g transform="matrix(1.04077,0,0,1.27304,-12.98832,-127.91719)">
<path d="m325.9587,433.5384h21.1608" fill="none" stroke="#b3b3b3" stroke-width=".542"/>
<path d="m325.9587,431.1282h21.1608" fill="none" stroke="#b3b3b3" stroke-width=".542"/>
<path d="m336.7891,433.8063v-18.9611" fill="none" stroke="#b3b3b3" stroke-width=".542"/>
<path d="m325.9587,428.7183h21.1608" fill="none" stroke="#b3b3b3" stroke-width=".542"/>
<path d="m325.9587,426.3082h21.1608" fill="none" stroke="#b3b3b3" stroke-width=".542"/>
<path d="m325.9587,423.8983h21.1608" fill="none" stroke="#b3b3b3" stroke-width=".542"/>
<path d="m325.9587,421.4882h21.1608" fill="none" stroke="#b3b3b3" stroke-width=".542"/>
<path d="m325.9587,419.0783h21.1608" fill="none" stroke="#b3b3b3" stroke-width=".542"/>
<path d="m325.9587,416.6683h21.1608" fill="none" stroke="#b3b3b3" stroke-width=".542"/>
</g>
<g transform="matrix(0,-1.99169,2.16194,0,-662.63238,1110.26812)">
<path d="m325.9587,431.1282h21.1608" fill="none" stroke="#b3b3b3" stroke-width=".542"/>
<path d="m336.7891,431.3339v-16.4887" fill="none" stroke="#b3b3b3" stroke-width=".5054"/>
<path d="m325.9587,428.7183h21.1608" fill="none" stroke="#b3b3b3" stroke-width=".542"/>
<path d="m325.9587,426.3082h21.1608" fill="none" stroke="#b3b3b3" stroke-width=".542"/>
<path d="m325.9587,423.8983h21.1608" fill="none" stroke="#b3b3b3" stroke-width=".542"/>
<path d="m325.9587,421.4882h21.1608" fill="none" stroke="#b3b3b3" stroke-width=".542"/>
<path d="m325.9587,419.0783h21.1608" fill="none" stroke="#b3b3b3" stroke-width=".542"/>
<path d="m325.9587,416.6683h21.1608" fill="none" stroke="#b3b3b3" stroke-width=".542"/>
</g>
<g transform="matrix(0,-1.08855,1.68199,0,-535.98368,899.77423)">
<path d="m325.9587,431.1282h21.1608" fill="none" stroke="#b3b3b3" stroke-width=".542"/>
<path d="m336.7891,432.5738v-17.7567" fill="none" stroke="#b3b3b3" stroke-width=".536"/>
<path d="m325.9587,428.7183h21.1608" fill="none" stroke="#b3b3b3" stroke-width=".542"/>
<path d="m325.9587,426.3082h21.1608" fill="none" stroke="#b3b3b3" stroke-width=".542"/>
<path d="m325.9587,423.8983h21.1608" fill="none" stroke="#b3b3b3" stroke-width=".542"/>
<path d="m325.9587,421.4882h21.1608" fill="none" stroke="#b3b3b3" stroke-width=".542"/>
<path d="m325.9587,419.0783h21.1608" fill="none" stroke="#b3b3b3" stroke-width=".542"/>
<path d="m325.9587,416.6683h21.1608" fill="none" stroke="#b3b3b3" stroke-width=".542"/>
</g>
<g transform="matrix(0,-1.08855,1.68199,0,-530.76687,1008.8633)">
<path d="m325.9587,431.1282h21.1608" fill="none" stroke="#b3b3b3" stroke-width=".542"/>
<path d="m336.7891,433.5106v-18.6935" fill="none" stroke="#b3b3b3" stroke-width=".5499"/>
<path d="m325.9587,428.7183h21.1608" fill="none" stroke="#b3b3b3" stroke-width=".542"/>
<path d="m325.9587,426.3082h21.1608" fill="none" stroke="#b3b3b3" stroke-width=".542"/>
<path d="m325.9587,423.8983h21.1608" fill="none" stroke="#b3b3b3" stroke-width=".542"/>
<path d="m325.9587,421.4882h21.1608" fill="none" stroke="#b3b3b3" stroke-width=".542"/>
<path d="m325.9587,419.0783h21.1608" fill="none" stroke="#b3b3b3" stroke-width=".542"/>
<path d="m325.9587,416.6683h21.1608" fill="none" stroke="#b3b3b3" stroke-width=".542"/>
<path d="m325.9587,433.5064h21.1608" fill="none" stroke="#b3b3b3" stroke-width=".542"/>
<path d="m325.9587,431.0964h21.1608" fill="none" stroke="#b3b3b3" stroke-width=".542"/>
</g>
<g transform="matrix(0,-1.08855,1.68199,0,-530.76687,1054.0733)">
<path d="m325.9587,431.1282h21.1608" fill="none" stroke="#b3b3b3" stroke-width=".542"/>
<path d="m336.7891,433.5106v-18.6935" fill="none" stroke="#b3b3b3" stroke-width=".5499"/>
<path d="m325.9587,428.7183h21.1608" fill="none" stroke="#b3b3b3" stroke-width=".542"/>
<path d="m325.9587,426.3082h21.1608" fill="none" stroke="#b3b3b3" stroke-width=".542"/>
<path d="m325.9587,423.8983h21.1608" fill="none" stroke="#b3b3b3" stroke-width=".542"/>
<path d="m325.9587,421.4882h21.1608" fill="none" stroke="#b3b3b3" stroke-width=".542"/>
<path d="m325.9587,419.0783h21.1608" fill="none" stroke="#b3b3b3" stroke-width=".542"/>
<path d="m325.9587,416.6683h21.1608" fill="none" stroke="#b3b3b3" stroke-width=".542"/>
<path d="m325.9587,433.5064h21.1608" fill="none" stroke="#b3b3b3" stroke-width=".542"/>
<path d="m325.9587,431.0964h21.1608" fill="none" stroke="#b3b3b3" stroke-width=".542"/>
</g>
<g transform="matrix(0,-1.99169,2.16194,0,-672.92943,1550.38636)">
<path d="m325.9587,431.1282h21.1608" fill="none" stroke="#b3b3b3" stroke-width=".542"/>
<path d="m336.7891,431.3339v-16.4887" fill="none" stroke="#b3b3b3" stroke-width=".5054"/>
<path d="m325.9587,428.7183h21.1608" fill="none" stroke="#b3b3b3" stroke-width=".542"/>
<path d="m325.9587,426.3082h21.1608" fill="none" stroke="#b3b3b3" stroke-width=".542"/>
<path d="m325.9587,423.8983h21.1608" fill="none" stroke="#b3b3b3" stroke-width=".542"/>
<path d="m325.9587,421.4882h21.1608" fill="none" stroke="#b3b3b3" stroke-width=".542"/>
<path d="m325.9587,419.0783h21.1608" fill="none" stroke="#b3b3b3" stroke-width=".542"/>
<path d="m325.9587,416.6683h21.1608" fill="none" stroke="#b3b3b3" stroke-width=".542"/>
</g>
<path d="m565.4949,75.8419-22.1797-4.6417 15.1097-16.8873z" fill="#f00" transform="matrix(-.386,.09419,-.08221,-.44227,901.90406,402.10412)"/>
<path d="m564.9817,65.5788a5.6447,4.1052 0 1,1 -11.2894,0 5.6447,4.1052 0 1,1 11.2894,0z" fill="#f00" transform="matrix(.46568,0,0,.58221,421.41693,380.17018)"/>
<path d="m66.6108,528.3962v-39.01h-9.4379-9.4379v-79.9075c0-79.0686-.0264-79.9075-2.5168-79.9075-1.3842,0-2.5168-.5663-2.5168-1.2584s1.1325-1.2584 2.5168-1.2584c2.3402,0 2.5168-.8389 2.5168-11.9547s-.1766-11.9547-2.5168-11.9547c-2.3194,0-2.5168-.8389-2.5168-10.6963s.1974-10.6963 2.5168-10.6963c2.4987,0 2.5168-.8389 2.5168-117.0299v-117.0299h59.7733c52.2929,0 59.7733.2362 59.7733,1.8876 0,1.6133 3.5654,1.8876 24.5385,1.8876h24.5385v-7.5503-7.5503h212.038 212.038v6.2919 6.2919h-44.0435-44.0435v5.6627 5.6627h-8.1795-8.1795v-5.6627-5.6627h-156.0398c-155.2009,0-156.0398.0135-156.0398,2.5168 0,1.9575-.8389,2.5168-3.7752,2.5168-3.6913,0-3.7752.1398-3.7752,6.2919v6.2919l-39.3246.0172c-21.6285.0094-40.5987.3586-42.1559.776l-2.8314.7588v30.6837 30.6837h-36.4932-36.4932v76.1323c0,75.2934.0277,76.1323 2.5168,76.1323 2.3194,0 2.5168.8389 2.5168,10.6963s-.1974,10.6963-2.5168,10.6963c-2.3323,0-2.5168.8389-2.5168,11.4433 0,10.385.2328,11.5041 2.5168,12.1014 2.2643.5921 2.5168,1.7165 2.5168,11.2077 0,9.7106-.2001,10.5495-2.5168,10.5495-2.4724,0-2.5168.8389-2.5168,47.6217 0,44.3444.1732,48.1251 2.5168,54.9368 1.7756,5.1608 2.5168,10.5924 2.5168,18.4436v11.1285h28.9429 28.9429v43.4143 43.4143h-7.5503-7.5503v-39.01-39.01h-13.8422-13.8422v39.01 39.01h-6.2919-6.2919v-39.01zm64.1777-420.3008c0-1.8456-.8389-2.5168-3.146-2.5168s-3.146.6711-3.146,2.5168 .8389,2.5168 3.146,2.5168 3.146-.6711 3.146-2.5168zm-74.2448-19.505c0-1.0487-1.1186-1.8876-2.5168-1.8876s-2.5168.8389-2.5168,1.8876 1.1186,1.8876 2.5168,1.8876 2.5168-.8389 2.5168-1.8876zm23.9093,0c0-1.0487-1.1186-1.8876-2.5168-1.8876s-2.5168.8389-2.5168,1.8876 1.1186,1.8876 2.5168,1.8876 2.5168-.8389 2.5168-1.8876zm23.9093,0c0-1.0487-1.1186-1.8876-2.5168-1.8876s-2.5168.8389-2.5168,1.8876 1.1186,1.8876 2.5168,1.8876 2.5168-.8389 2.5168-1.8876zm23.9093,0c0-1.0382-.8494-1.8876-1.8876-1.8876s-1.8876.8494-1.8876,1.8876 .8494,1.8876 1.8876,1.8876 1.8876-.8494 1.8876-1.8876zm2.5168-16.359c0-1.1745-1.1885-1.8876-3.146-1.8876s-3.146.7131-3.146,1.8876 1.1885,1.8876 3.146,1.8876 3.146-.7131 3.146-1.8876z" fill="#f9f9f9" transform="translate(100.5482,350.2296)"/>
</g>
</svg>
