<svg height="812.75" preserveAspectRatio="xMinYMin meet" viewBox="0 0 812.75 600.25" width="812.75" xmlns="http://www.w3.org/2000/svg">
<g transform="translate(-100.9202,-350.2586)">
<path d="m904.9417,350.7642-.002,18.3522v29.6744l-36.4003,152.1414h-94.6697l-32.2145-115.713h-175.0885v50.045h-74.808v-50.045h-166.417v-16.885h-56.4v103.0261h-76.7185l-.0189,109.308h13.044l-.044,23.95h-12.9901v20.988h12.9901v23.95h-13v7.5712 102.5032l66.627.0253 .023,140.3407h-144.4128l-.0002-244.364v-6.0763h-13.021v-23.95h-5e-005v-20.988h.036-.0359v-23.95h13.0212v-279.904h154.5003v12.4h56.4v-12.4z" fill="#999" stroke="#000"/>
<path d="m166.1353,630.6563h39.196c3.8125,1.3116 11.1875,16.5759 0,23.95h-39.2681z" fill="#e6e6e6" stroke="#000"/>
<path d="m758.7002,496.3622h26.0787l14.5371,54.5702-25.746-.0002z" fill="none" stroke="#000"/>
<path d="m491.4587,485.2642v-62.6076h47.624 27.4845v62.6076z" fill="#f2f2f2" id="a" stroke="#000"/>
<path d="m268.9188,418.3346v43.3732h-35.2435v-43.3732z" fill="#e6e6e6" stroke="#000"/>
<path d="m333.8793,401.3562v31.9" fill="none" stroke="#000" stroke-width=".6193"/>
<path d="m327.3585,403.4063h6.5188 6.5189" fill="none" stroke="#000" stroke-width=".6193"/>
<path d="m327.3585,405.4063h6.5188 6.5189" fill="none" stroke="#000" stroke-width=".6193"/>
<path d="m327.3585,407.4063h6.5188 6.5189" fill="none" stroke="#000" stroke-width=".6193"/>
<path d="m327.3585,409.4063h6.5188 6.5189" fill="none" stroke="#000" stroke-width=".6193"/>
<path d="m327.3585,411.4063h6.5188 6.5189" fill="none" stroke="#000" stroke-width=".6193"/>
<path d="m327.3585,413.4063h6.5188 6.5189" fill="none" stroke="#000" stroke-width=".6193"/>
<path d="m327.3585,415.4063h6.5188 6.5189" fill="none" stroke="#000" stroke-width=".6193"/>
<path d="m327.3585,417.4063h6.5188 6.5189" fill="none" stroke="#000" stroke-width=".6193"/>
<path d="m327.3585,419.4063h6.5188 6.5189" fill="none" stroke="#000" stroke-width=".6193"/>
<path d="m327.3585,421.4063h6.5188 6.5189" fill="none" stroke="#000" stroke-width=".6193"/>
<path d="m327.3585,423.4063h6.5188 6.5189" fill="none" stroke="#000" stroke-width=".6193"/>
<path d="m327.3585,425.4063h6.5188 6.5189" fill="none" stroke="#000" stroke-width=".6193"/>
<path d="m327.3585,427.4063h6.5188 6.5189" fill="none" stroke="#000" stroke-width=".6193"/>
<path d="m327.3585,429.4063h6.5188 6.5189" fill="none" stroke="#000" stroke-width=".6193"/>
<path d="m327.3585,431.4063h6.5188 6.5189" fill="none" stroke="#000" stroke-width=".6193"/>
<path d="m699.0749,178.7124h25.963l8.4969,31.9699h-25.721z" fill="#fff" stroke="#000" transform="translate(65.7813,340.25)"/><text font-family="Sans" font-size="40" letter-spacing="0" transform="translate(65.7813,340.25)" word-spacing="0" x="638" xml:space="preserve" y="572.4063"><tspan x="638" y="572.4063"></tspan></text>
<path d="m348.9844,399.6646v35.5436h-23.6422v-35.5436z" fill="#fff" stroke="#000"/>
<path d="m161.2014,521.4146 30.9765-.0151-.0002,23.9563h-30.9765z" fill="#fff" stroke="#000" stroke-width=".9887"/>
<path d="m166.1353,675.5938h39.196c3.8125,1.3116 11.1875,16.5759 0,23.95h-39.2681z" fill="#fff" stroke="#000"/>
<path d="m258.8312,858.5368v43.3585h-35.3434v-43.1527z" fill="#e6e6e6" stroke="#000"/>
<path d="m741.655,399.6646h-43.6761v35.5348h43.6761z" fill="#fff" stroke="#000"/>
<path d="m697.939,411.4325 4e-005,23.6933h-62.9529v-23.6933z" fill="#fff" stroke="#000"/>
<path d="m653.9396,399.6741 13.2948-.01 8.7761-.009v11.7751h-22.0708z" fill="#fff" stroke="#000" stroke-width="1.0662"/>
<path d="m675.9685,399.6646h22.0798v11.7702h-22.0798z" fill="#fff" stroke="#000" stroke-width="1.0572"/>
<path d="m848.2552,350.7646h56.687v27.147h-56.687z" fill="#ececec" stroke="#000"/>
<g transform="matrix(.82935,0,0,1.24435,502.54015,3.27364)">
<path d="m324.4027,433.9853h33.4465" fill="none" stroke="#b3b3b3" stroke-width=".6814"/>
<path d="m323.4996,431.0389h33.049" fill="none" stroke="#b3b3b3" stroke-width=".6773"/>
<path d="m338.8588,434.2471-7.0796-19.4913" fill="none" stroke="#b3b3b3" stroke-width=".5495"/>
<path d="m322.4889,428.6289h32.1215" fill="none" stroke="#b3b3b3" stroke-width=".6678"/>
<path d="m321.4287,426.2189h31.459" fill="none" stroke="#b3b3b3" stroke-width=".6609"/>
<path d="m320.4555,423.8089h30.929" fill="none" stroke="#b3b3b3" stroke-width=".6553"/>
<path d="m319.114,421.3989h31.1937" fill="none" stroke="#b3b3b3" stroke-width=".6581"/>
<path d="m318.1862,418.9889h32.1215" fill="none" stroke="#b3b3b3" stroke-width=".6678"/>
<path d="m317.2557,416.5789h30.2671" fill="none" stroke="#b3b3b3" stroke-width=".6482"/>
</g>
<path d="m799.2252,550.9326-8.406-31.97h28.4767 56.8893l-7.646,31.97z" fill="#ececec" stroke="#000"/>
<path d="m468.5912,399.6646v35.5471h-27.042l-.002-35.5471z" fill="#fff" stroke="#000"/>
<path d="m368.4582,399.6627v35.5459h-19.4972l-.002-35.5459z" fill="#fff" stroke="#000"/><text font-family="Sans" font-size="10.953" letter-spacing="0" transform="scale(.913,1.096)" word-spacing="0" x="384.8414" xml:space="preserve" y="375.6238"><tspan x="384.8414" y="375.6238">581</tspan></text>
<path d="m568.7442,350.7646h85.195v35.35h-85.195z" fill="#fff" stroke="#000"/>
<path d="m236.5001,130.7234c-.0359-10.1482 8.2736-18.4036 18.5599-18.439s18.654,8.1626 18.6899,18.3107c7e-005,.0214.0001.0428.0001.0641" fill="#e6e6e6" stroke="#000" transform="matrix(0,1.16146,-1.11014,0,411.44343,143.78608)"/>
<path d="m150.0202,600.3356h42.1915v30.321h-42.1915z" fill="#fff" stroke="#000"/>
<path d="m136.2312,776.0536h55.9803v33.59h-55.9803z" fill="#fff" stroke="#000"/>
<path d="m170.4489,785.0355 .0003,1.812" fill="#999" stroke="#999" stroke-width=".5"/>
<path d="m236.5001,130.7234c-.0359-10.1482 8.2736-18.4036 18.5599-18.439s18.654,8.1626 18.6899,18.3107c7e-005,.0214.0001.0428.0001.0641" fill="#e6e6e6" stroke="#000" transform="matrix(0,1.16561,-1.00286,0,388.92568,582.83933)"/>
<path d="m699.509,37.6712v25.053l30.762,115.998h85.366l28.755-120.172 .002-20.879z" fill="#ececec" id="act" stroke="#000" transform="translate(60.5482,340.2403)"/>
<path d="m741.6552,350.7646h18.402v27.147h-18.402z" fill="#fff" stroke="#000" stroke-width=".9295"/><text font-family="Sans" font-size="10.953" letter-spacing="0" transform="scale(.913,1.096)" word-spacing="0" x="813.624" xml:space="preserve" y="330.9112"><tspan x="813.624" y="330.9112">560</tspan></text>
<path d="m759.7552,350.7646h88.5v27.147h-88.5z" fill="#fff" stroke="#000"/>
<path d="m681.107,95.0212h26.957l8.466,32.173-26.472.0004-8.951-32.1734z" fill="#fff" stroke="#000" transform="translate(60.5482,340.2403)"/>
<path d="m690.058,127.1942h26.472l7.701,28.928h-26.079z" fill="#fff" stroke="#000" transform="translate(60.5482,340.2403)"/><text font-family="Sans" font-size="10.953" letter-spacing="0" transform="scale(.913,1.096)" word-spacing="0" x="903.2644" xml:space="preserve" y="330.5885"><tspan x="903.2644" y="330.5885">556</tspan></text><text font-family="Sans" font-size="10.953" letter-spacing="0" transform="scale(.913,1.096)" word-spacing="0" x="823.3077" xml:space="preserve" y="408.1489"><tspan x="823.3077" y="408.1489">553</tspan></text><text font-family="Sans" font-size="10.953" letter-spacing="0" transform="scale(.913,1.096)" word-spacing="0" x="832.2167" xml:space="preserve" y="436.5471"><tspan x="832.2167" y="436.5471">552</tspan></text>
<path d="m653.9392,350.7646h87.716v35.35h-87.716z" fill="#fff" stroke="#000" stroke-width="1.0013"/><text font-family="Sans" font-size="10.953" letter-spacing="0" transform="scale(.913,1.096)" word-spacing="0" x="787.1579" xml:space="preserve" y="330.1771"><tspan x="787.1579" y="330.1771">562</tspan></text><text font-family="Sans" font-size="10.953" letter-spacing="0" transform="scale(.913,1.096)" word-spacing="0" x="665.2226" xml:space="preserve" y="330.1769"><tspan x="665.2226" y="330.1769">564/564a</tspan></text>
<path d="m441.5602,350.7646h47.673v35.35h-47.673z" fill="#fff" stroke="#000"/>
<path d="m288.412,10.5242h46.051v35.35h-46.051z" fill="#fff" stroke="#000" transform="translate(60.5482,340.2403)"/><text font-family="Sans" font-size="10.953" letter-spacing="0" transform="scale(.913,1.096)" word-spacing="0" x="408.1334" xml:space="preserve" y="330.1769"><tspan x="408.1334" y="330.1769">579</tspan></text><text font-family="Sans" font-size="10.953" letter-spacing="0" transform="scale(.913,1.096)" word-spacing="0" x="515.0135" xml:space="preserve" y="330.1769"><tspan x="515.0135" y="330.1769">571</tspan></text>
<path d="m155.3482,496.2746h19.2v25.086h-19.2z" fill="#fff" stroke="#000"/>
<path d="m156.7982,569.2746h35.4313v31.061h-35.4313z" fill="#fff" stroke="#000"/>
<path d="m161.2013,545.3556h31.013l-.0002,23.919h-35.4157v-16.5086l-.0003-19.3933h4.4031z" fill="#fff" stroke="#000"/><text font-family="Sans" font-size="10.953" letter-spacing="0" transform="scale(.913,1.096)" word-spacing="0" x="190.7762" xml:space="preserve" y="508.2018"><tspan x="190.7762" y="508.2018">501</tspan></text>
<path d="m89.472,314.3662 42.194-.0005v20.987l-42.194.0005z" fill="#fff" stroke="#000" transform="translate(60.5482,340.2403)"/><text font-family="Sans" font-size="10.953" letter-spacing="0" transform="scale(.913,1.096)" word-spacing="0" x="189.5772" xml:space="preserve" y="608.5256"><tspan x="189.5772" y="608.5256">502</tspan></text><text font-family="Sans" font-size="10.953" letter-spacing="0" transform="scale(.913,1.096)" word-spacing="0" x="179.6534" xml:space="preserve" y="719.0305"><tspan x="179.6534" y="719.0305">505б</tspan></text>
<path d="m741.6552,409.6646h13.936l6.487,25.52-20.423.015z" fill="#fff" stroke="#000"/><text font-family="Sans" font-size="10.953" letter-spacing="0" transform="scale(.913,1.096)" word-spacing="0" x="813.1736" xml:space="preserve" y="390.1221"><tspan x="813.1736" y="390.1221">551</tspan></text>
<path d="m634.9862,399.6646v35.5381h-68.4216v-12.5556h2.191v-22.9825z" fill="#fff" stroke="#000"/>
<path d="m528.807,399.6677h39.9757v22.9607h-39.9757z" fill="#fff" stroke="#000" stroke-width="1.0243"/>
<path d="m488.813,399.6649h39.9757v22.9607h-39.9757z" fill="#fff" stroke="#000"/>
<path d="m547.3888,350.7586h21.3472v35.3444h-21.3472z" fill="#fff" stroke="#000"/>
<path d="m489.2332,350.7586h21.5028v35.3444h-21.5028z" fill="#fff" stroke="#000"/>
<path d="m510.7358,350.7586h36.653v35.3444h-36.653z" fill="#fff" stroke="#000"/><text font-family="Sans" font-size="10.953" letter-spacing="0" transform="scale(.913,1.096)" word-spacing="0" x="670.7227" xml:space="preserve" y="375.6238"><tspan x="670.7227" y="375.6238">562</tspan></text><text font-family="Sans" font-size="10.953" letter-spacing="0" transform="scale(.913,1.096)" word-spacing="0" x="600.2482" xml:space="preserve" y="374.8499"><tspan x="600.2482" y="374.8499">568</tspan></text><text font-family="Sans" font-size="10.953" letter-spacing="0" transform="scale(.913,1.096)" word-spacing="0" x="554.093" xml:space="preserve" y="375.334"><tspan x="554.093" y="375.334">570</tspan></text><text font-family="Sans" font-size="10.953" letter-spacing="0" transform="scale(.913,1.096)" word-spacing="0" x="538.6713" xml:space="preserve" y="330.1769"><tspan x="538.6713" y="330.1769">569</tspan></text><text font-family="Sans" font-size="10.953" letter-spacing="0" transform="scale(.913,1.096)" word-spacing="0" x="576.3655" xml:space="preserve" y="330.1715"><tspan x="576.3655" y="330.1715">583</tspan></text><text font-family="Sans" font-size="10.953" letter-spacing="0" transform="scale(.913,1.096)" word-spacing="0" x="602.5837" xml:space="preserve" y="330.1769"><tspan x="602.5837" y="330.1769">567</tspan></text>
<path d="m468.5912,399.6646v35.5364h22.8328v-12.5556h-2.191v-22.9808z" fill="#fff" stroke="#000"/><text font-family="Sans" font-size="10.953" letter-spacing="0" transform="scale(.913,1.096)" word-spacing="0" x="515.7147" xml:space="preserve" y="375.6238"><tspan x="515.7147" y="375.6238">572</tspan></text><text font-family="Sans" font-size="10.953" letter-spacing="0" transform="scale(.913,1.096)" word-spacing="0" x="489.1997" xml:space="preserve" y="375.6185"><tspan x="489.1997" y="375.6185">573</tspan></text>
<path d="m387.4389,399.6627v35.5459h-18.9795l-.002-35.5459z" fill="#fff" stroke="#000"/>
<path d="m441.56,399.6646v35.5471h-27.042l-.002-35.5471z" fill="#fff" stroke="#000"/>
<path d="m414.4981,399.6646v35.5471h-27.042l-.002-35.5471z" fill="#fff" stroke="#000"/><text font-family="Sans" font-size="10.953" letter-spacing="0" transform="scale(.913,1.096)" word-spacing="0" x="460.7146" xml:space="preserve" y="375.6238"><tspan x="460.7146" y="375.6238">576</tspan></text><text font-family="Sans" font-size="10.953" letter-spacing="0" transform="scale(.913,1.096)" word-spacing="0" x="430.0383" xml:space="preserve" y="375.6238"><tspan x="430.0383" y="375.6238">578</tspan></text><text font-family="Sans" font-size="10.953" letter-spacing="0" transform="scale(.913,1.096)" word-spacing="0" x="405.5379" xml:space="preserve" y="375.6238"><tspan x="405.5379" y="375.6238">580</tspan></text>
<path d="m414.4982,350.7646h27.062v35.35h-27.062z" fill="#fff" stroke="#000"/>
<path d="m325.3422,350.7646h23.618v35.35h-23.618z" fill="#fff" stroke="#000"/>
<path d="m395.0112,350.7646h19.487v35.35h-19.487z" fill="#fff" stroke="#000"/><text font-family="Sans" font-size="10.953" letter-spacing="0" transform="scale(.913,1.096)" word-spacing="0" x="360.1336" xml:space="preserve" y="330.1769"><tspan x="360.1336" y="330.1769">582</tspan></text><text font-family="Sans" font-size="10.953" letter-spacing="0" transform="scale(.913,1.096)" word-spacing="0" x="434.6331" xml:space="preserve" y="330.1769"><tspan x="434.6331" y="330.1769">577</tspan></text><text font-family="Sans" font-size="10.953" letter-spacing="0" transform="scale(.913,1.096)" word-spacing="0" x="460.9694" xml:space="preserve" y="330.1769"><tspan x="460.9694" y="330.1769">575</tspan></text>
<path d="m162.94,561.6552h35.366v48.101h-144.413v-250.44h-12.985v-68.9h12.985v-279.892h154.501v12.4h56.4v55.17h-91.667v43.373h35.267v59.653h-94.394v-25.086h-19.125l.25,25.086h-5.653v109.296h16.115v23.95h-16.115v44.95h-13.789v109.3799l122.6.7071v49.099h-35.343z" fill="#e6e6e6" stroke="#000" transform="translate(60.5482,340.2403)"/>
<path d="m222.2282,849.2746h36.0997v66h-36.0997z" fill="#e6e6e6"/>
<path d="m232.3046,407.3328h36.0997v66h-36.0997z" fill="#e6e6e6"/>
<path d="m149.8046,631.1453h36.0997l.0998,22.9502h-36.0997z" fill="#e6e6e6"/><text font-family="Sans" font-size="10.953" letter-spacing="0" transform="scale(.913,1.096)" word-spacing="0" x="171.8099" xml:space="preserve" y="467.8446"><tspan x="171.8099" y="467.8446">513</tspan></text><text font-family="Sans" font-size="10.953" letter-spacing="0" transform="scale(.913,1.096)" word-spacing="0" x="190.7762" xml:space="preserve" y="530.1078"><tspan x="190.7762" y="530.1078">511</tspan></text><text font-family="Sans" font-size="10.953" letter-spacing="0" transform="scale(.913,1.096)" word-spacing="0" x="187.3865" xml:space="preserve" y="559.6942"><tspan x="187.3865" y="559.6942">512</tspan></text>
<path d="m166.0992,709.8335v-10.2901l26.105.0002v18.4927h-17.3219l-24.6621.0003v-8.2031z" fill="#fff" stroke="#000"/>
<path d="m136.2312,757.1536h55.9803v18.9h-55.9803z" fill="#fff" stroke="#000"/>
<path d="m150.2202,718.0366h41.9913l.0007,12.417h-41.992z" fill="#fff" stroke="#000"/>
<path d="m150.2202,744.7318h41.9913l.0007,12.417h-41.992z" fill="#fff" stroke="#000"/>
<path d="m150.2202,730.4536h41.9913l.0007,14.278h-41.992z" fill="#fff" stroke="#000"/>
<path d="m150.2202,725.0686v32.0463h-13.988l-.002-32.0463z" fill="#fff" stroke="#000"/><text font-family="Sans" font-size="8" letter-spacing="0" word-spacing="0" x="136.5482" xml:space="preserve" y="743.0245"><tspan x="136.5482" y="743.0245">505</tspan></text><text font-family="Sans" font-size="10.953" letter-spacing="0" transform="scale(.913,1.096)" word-spacing="0" x="181.8445" xml:space="preserve" y="703.5566"><tspan x="181.8445" y="703.5566">505a</tspan></text><text font-family="Sans" font-size="10.953" letter-spacing="0" transform="scale(.913,1.096)" word-spacing="0" x="175.7925" xml:space="preserve" y="689.1378"><tspan x="175.7925" y="689.1378">504б</tspan></text><text font-family="Sans" font-size="10.953" letter-spacing="0" transform="scale(.913,1.096)" word-spacing="0" x="175.7925" xml:space="preserve" y="676.3592"><tspan x="175.7925" y="676.3592">504a</tspan></text><text font-family="Sans" font-size="10.953" letter-spacing="0" transform="scale(.913,1.096)" word-spacing="0" x="175.793" xml:space="preserve" y="665.0283"><tspan x="175.793" y="665.0283">503б</tspan></text><text font-family="Sans" font-size="10.953" letter-spacing="0" transform="scale(.913,1.096)" word-spacing="0" x="185.508" xml:space="preserve" y="650.5955"><tspan x="185.508" y="650.5955">503a</tspan></text>
<g transform="matrix(1.0698,0,0,1.27304,-22.92584,-127.96116)">
<path d="m325.9587,433.5384h21.1608" fill="none" stroke="#b3b3b3" stroke-width=".542"/>
<path d="m325.9587,431.1282h21.1608" fill="none" stroke="#b3b3b3" stroke-width=".542"/>
<path d="m336.7891,433.8063v-18.9611" fill="none" stroke="#b3b3b3" stroke-width=".542"/>
<path d="m325.9587,428.7183h21.1608" fill="none" stroke="#b3b3b3" stroke-width=".542"/>
<path d="m325.9587,426.3082h21.1608" fill="none" stroke="#b3b3b3" stroke-width=".542"/>
<path d="m325.9587,423.8983h21.1608" fill="none" stroke="#b3b3b3" stroke-width=".542"/>
<path d="m325.9587,421.4882h21.1608" fill="none" stroke="#b3b3b3" stroke-width=".542"/>
<path d="m325.9587,419.0783h21.1608" fill="none" stroke="#b3b3b3" stroke-width=".542"/>
<path d="m325.9587,416.6683h21.1608" fill="none" stroke="#b3b3b3" stroke-width=".542"/>
</g>
<g transform="matrix(0,-1.08855,1.68199,0,-535.97553,899.78927)">
<path d="m325.9587,431.1282h21.1608" fill="none" stroke="#b3b3b3" stroke-width=".542"/>
<path d="m336.7891,432.5738v-17.7567" fill="none" stroke="#b3b3b3" stroke-width=".536"/>
<path d="m325.9587,428.7183h21.1608" fill="none" stroke="#b3b3b3" stroke-width=".542"/>
<path d="m325.9587,426.3082h21.1608" fill="none" stroke="#b3b3b3" stroke-width=".542"/>
<path d="m325.9587,423.8983h21.1608" fill="none" stroke="#b3b3b3" stroke-width=".542"/>
<path d="m325.9587,421.4882h21.1608" fill="none" stroke="#b3b3b3" stroke-width=".542"/>
<path d="m325.9587,419.0783h21.1608" fill="none" stroke="#b3b3b3" stroke-width=".542"/>
<path d="m325.9587,416.6683h21.1608" fill="none" stroke="#b3b3b3" stroke-width=".542"/>
</g>
<g transform="matrix(2.02039,0,0,2.16194,38.48496,-496.79633)">
<path d="m336.7891,430.878v-16.0327" fill="none" stroke="#b3b3b3" stroke-width=".4984"/>
<path d="m325.9587,428.7183h21.1608" fill="none" stroke="#b3b3b3" stroke-width=".542"/>
<path d="m325.9587,426.3082h21.1608" fill="none" stroke="#b3b3b3" stroke-width=".542"/>
<path d="m325.9587,423.8983h21.1608" fill="none" stroke="#b3b3b3" stroke-width=".542"/>
<path d="m325.9587,421.4882h21.1608" fill="none" stroke="#b3b3b3" stroke-width=".542"/>
<path d="m325.9587,419.0783h21.1608" fill="none" stroke="#b3b3b3" stroke-width=".542"/>
<path d="m325.9587,416.6683h21.1608" fill="none" stroke="#b3b3b3" stroke-width=".542"/>
</g><text font-family="Sans" font-size="8" letter-spacing="0" word-spacing="0" x="644.1394" xml:space="preserve" y="429.0994"><tspan font-size="16" x="644.1394" y="429.0994">WC</tspan></text>
<path d="m565.4949,75.8419-22.1797-4.6417 15.1097-16.8873z" fill="#f00" transform="matrix(-.386,.09419,-.08221,-.44227,902.09968,402.1901)"/>
<path d="m564.9817,65.5788c0,2.2673-2.5272,4.1052-5.6447,4.1052s-5.6447-1.838-5.6447-4.1052 2.5272-4.1052 5.6447-4.1052 5.6447,1.838 5.6447,4.1052z" fill="#f00" transform="matrix(.46568,0,0,.58221,421.61253,380.25616)"/>
<g transform="matrix(0,-1.08855,1.68199,0,-531.09289,1053.9254)">
<path d="m325.9587,431.1282h21.1608" fill="none" stroke="#b3b3b3" stroke-width=".542"/>
<path d="m336.7891,433.5106v-18.6935" fill="none" stroke="#b3b3b3" stroke-width=".5499"/>
<path d="m325.9587,428.7183h21.1608" fill="none" stroke="#b3b3b3" stroke-width=".542"/>
<path d="m325.9587,426.3082h21.1608" fill="none" stroke="#b3b3b3" stroke-width=".542"/>
<path d="m325.9587,423.8983h21.1608" fill="none" stroke="#b3b3b3" stroke-width=".542"/>
<path d="m325.9587,421.4882h21.1608" fill="none" stroke="#b3b3b3" stroke-width=".542"/>
<path d="m325.9587,419.0783h21.1608" fill="none" stroke="#b3b3b3" stroke-width=".542"/>
<path d="m325.9587,416.6683h21.1608" fill="none" stroke="#b3b3b3" stroke-width=".542"/>
<path d="m325.9587,433.5064h21.1608" fill="none" stroke="#b3b3b3" stroke-width=".542"/>
<path d="m325.9587,431.0964h21.1608" fill="none" stroke="#b3b3b3" stroke-width=".542"/>
</g>
<path d="m14.6859,473.6469v-125.2069h-6.2918-6.2918v-33.3466-33.3466h6.2918 6.2918v-140.3072-140.3072h76.1308 76.1308v6.2918 6.2918h28.3131 28.3131v26.4256 26.4256h-28.418c-18.0689,0-28.2652.4506-27.9985,1.2373 .2307.6805 2.9653,2.5209 6.0769,4.0897 14.9594,7.5421 14.7791,28.5336-.3094,36.0178l-5.9772,2.9648v29.438 29.438h-45.9302-45.9302v-12.5836-12.5836h-10.6961-10.6961v12.5836c0,12.5836 0,12.5836-3.1459,12.5836h-3.1459v55.9971 55.9971h29.0065 29.0065l1.8233,4.3638c2.5048,5.9947 2.2865,9.8082-.7847,13.7127l-2.6081,3.3156h-28.2218-28.2218v22.6505 22.6505h-6.2918-6.2918v55.2332c0,49.2047.2173,55.3166 1.9905,55.9971 1.0948.4201 28.5585.7638 61.0305.7638h59.04v69.2098 69.2098h-71.0974-71.0974v-125.2069z" fill="#f9f9f9" transform="translate(100.9202,350.2586)"/>
<path d="m158.139,529.5592v-20.2186l2.8313.8405c8.9611,2.6602 15.0948,15.489 12.2991,25.7239-1.6973,6.2138-8.7106,13.8727-12.7033,13.8727-2.2965,0-2.4271-1.0877-2.4271-20.2186z" fill="#f9f9f9" transform="translate(100.9202,350.2586)"/>
<path d="m747.5174,13.7161c0-7.267.208-10.2399.4622-6.6064s.2542,9.5793 0,13.2128-.4622.6606-.4622-6.6064z" fill="#f9f9f9" transform="translate(100.9202,350.2586)"/>
<path d="m690.4256,166.5874c0-.3568-6.7951-26.2796-15.1003-57.6062-14.0853-53.1289-15.1003-57.7375-15.1003-68.5611v-11.6036h71.0974 71.0974v10.6431c0,9.2026-1.8735,18.4689-13.842,68.4636-7.6131,31.8013-13.842,58.1563-13.842,58.5667s-18.9698.7462-42.1551.7462-42.1551-.2919-42.1551-.6487z" fill="#f9f9f9" transform="translate(100.9202,350.2586)"/>
<path d="m748.3102,13.7161v-12.5836h27.0547 27.0547v12.5836 12.5836h-27.0547-27.0547v-12.5836z" fill="#f9f9f9" transform="translate(100.9202,350.2586)"/>
<path d="m697.9462,194.6055c-.7617-2.9414-2.4823-9.348-3.8236-14.2368s-2.4387-9.2774-2.4387-9.7523 18.4649-.8635 41.0331-.8635h41.0331l-.6929,2.8313c-.3811,1.5572-1.9533,8.3524-3.4937,15.1003l-2.8008,12.269h-33.7159-33.7159l-1.3849-5.348z" fill="#f9f9f9" transform="translate(100.9202,350.2586)"/>
<path d="m658.8676,71.2861-3.1249-12.8982-7.1966-.3774-7.1966-.3774v-4.9706-4.9706h-44.6718-44.6718v6.2918 6.2918h-8.1104-8.1104l-.3835-5.9772-.3835-5.9772-154.4638-.3196-154.4638-.3196v-5.6576-5.6577h207.6295 207.6295v-3.7751-3.7751h8.1793 8.1793l.005,11.6398c.004,9.2454.8856,14.9402 4.2862,27.6839 3.81,14.2782 4.0453,16.0441 2.1373,16.0441-1.6771,0-2.8245-2.809-5.2689-12.8982h-.0002z" fill="#f9f9f9" transform="translate(100.9202,350.2586)"/>
<path d="m664.5835,165.6632c-.3277-.8651-1.6856-5.3952-3.0176-10.0669l-2.4217-8.4939h11.7763 11.7763l1.897,6.6064c1.0433,3.6335 2.2774,8.1636 2.7424,10.0669l.8455,3.4605h-11.5012c-8.0442,0-11.6802-.4728-12.097-1.573z" fill="#f9f9f9" transform="translate(100.9202,350.2586)"/>
<path d="m55.45,200.5827c.002-9.6894.1995-13.4869.439-8.4389s.2379,12.9757-.0036,17.617-.4374.5112-.4354-9.1782z" fill="#f9f9f9" transform="translate(100.9202,350.2586)"/>
<path d="m49.92,210.6496v-38.38h4.4043c4.2994,0 4.4043.1199 4.4043,5.0334 0,3.6353-.5243,5.0335-1.8875,5.0335-1.6303,0-1.8875,4.5441-1.8875,33.3466 0,32.5076-.0633,33.3466-2.5167,33.3466-2.4617,0-2.5167-.8389-2.5167-38.38z" fill="#f9f9f9" transform="translate(100.9202,350.2586)"/>
<path d="m36.0781,362.282v-11.3252h6.921 6.921v-11.9544-11.9544h6.921 6.921v15.7295 15.7295h-7.5502-7.5502v7.5502 7.5502h-6.2918-6.2918v-11.3253z" fill="#f9f9f9" transform="translate(100.9202,350.2586)"/>
</g>
</svg>
