<svg height="812.75" preserveAspectRatio="xMinYMin meet" viewBox="0 0 812.75 600.25" width="812.75" xmlns="http://www.w3.org/2000/svg">
<g transform="translate(-100.9063,-350.25)"><path d="m904.9417,350.7642 .0005,18.3522v8.8492h7.5184 .5826l-11.867,57.2079 10.6599.0823-.6258,26.0079-15.2381-.0821-12.7345,57.7348-7.045.0276-7.6533,31.9882h-18.1087-23.7575-52.8035l-32.1429-115.713h-175.1601v69.2774h30.0005v46.436h-28.2327-75.5151-31.5491l-.0001-46.436h30.4885v-69.2774h-166.417v-16.885h-56.4v103.0261h-76.7185l-.0189,109.308h13.044l-.044,23.9433-57.4481-.0003v20.9947h24.0955l33.3525,23.95h-13v7.5712 101.5165l66.3154.0253 .023,141.3274h-144.1013l-.0002-244.364v-6.0763h-13.021v-23.95l46.3359.0006v-20.9886h-25.76-20.576v-23.95h13.0212v-279.904h154.5003v12.4h56.4v-12.4z" fill="#fff" stroke="#000"/><path d="m166.1353,630.6563h39.196c3.8125,1.3116 11.1875,16.5759 0,23.95l-39.2681.005z" fill="#fff" stroke="#000"/><path d="m758.3,496.3622h26.4789l14.5371,54.5702-25.746-.0002z" fill="none" stroke="#000"/><path d="m784.7789,496.3622-4.4028-15.7h-26.3761l4.3,15.7z" fill="#fff" stroke="#000"/><path d="m780.364,480.6622-5.0638-16.3h-25.8002l4.5,16.3z" fill="#fff" stroke="#000"/><path d="m775.3002,464.3622-3.5-10.3896h-24.892l2.5918,10.3896z" fill="#fff" id="com" stroke="#000"/><path d="m904.9422,350.7642v27.2016h-19.232v-27.2016z" fill="#fff" stroke="#000"/><path d="m885.7102,350.8045v27.1612h-32.571v-27.2016z" fill="#fff" stroke="#000"/><path d="m853.1392,350.7642v27.2016h-73.496v-27.2016z" fill="#fff" stroke="#000"/><path d="m779.6432,350.7642v27.2016h-38.44v-27.2016z" fill="#fff" stroke="#000"/><path d="m741.3147,399.6642h-43.6761v35.5613h43.6761z" fill="#fff" stroke="#000"/><path d="m771.8002,201.6104-13.7-42.5078h-16.7777l-.0005,7.1996-.0001,16.5612 5.5862,18.747z" fill="#fff" stroke="#000" transform="translate(0,252.3622)"/><path d="m697.6382,350.8238v48.8407h-316.946v-48.8407z" fill="#fff" stroke="#000"/><path d="m697.6382,350.7928h43.5652v35.2953h-43.5652z" fill="#fff" stroke="#000"/><path d="m268.9422,418.3342v-22.07h-39.0349v22.07z" fill="#fff" stroke="#000"/><path d="m114.4413,461.8442h46.721v17.34h-46.721z" fill="#fff" stroke="#000"/><path d="m268.9188,418.3493v43.3585h-35.2435v-43.1527z" fill="#ececec"/><path d="m161.2013,545.3576 30.971-.0154v30.7846h-30.971z" fill="#fff" stroke="#000"/><path d="m114.4413,496.9966h33.2994v24.418h-33.2994z" fill="#fff" stroke="#000"/><path d="m114.4413,479.2633h33.307v17.7332h-33.307z" fill="#fff" stroke="#000"/><path d="m114.4564,545.3422h33.2994v30.7646l-12.6796.0462-20.6198-.0462z" fill="#fff" stroke="#000"/><path d="m114.4564,576.1052h33.2994v30.7645l-12.6796.0462-20.6198-.0462z" fill="#fff" stroke="#000"/><path d="m161.2013,576.131h30.971v30.7691h-30.971z" fill="#fff" stroke="#000"/><path d="m114.4564,606.8693h33.2994v23.7869h-12.6796-20.6198z" fill="#fff" stroke="#000"/><path d="m161.2131,606.8693h30.9561v23.7869l-12.0588.024-18.8973-.024z" fill="#fff" stroke="#000"/><path d="m101.1203,630.6563h46.636v23.9553h-46.708z" fill="#ececec" stroke="#000"/><path d="m101.2086,675.6063h46.5476v23.937h-46.6196z" fill="#fff" stroke="#000"/><path d="m114.4413,699.5508h33.315v30.7645l-12.6952.0462-20.6198-.0462z" fill="#fff" stroke="#000"/><path d="m161.2012,699.5508h30.9591l.1097,5.9458-.1317,24.8188-12.0807.0462-18.8564-.0462z" fill="#fff" stroke="#000"/><path d="m161.2012,730.3165h31.003v24.6637l-12.3966.0462-18.6064-.0462z" fill="#fff" stroke="#000"/><path d="m114.4413,755.0032h33.2891v29.9609l-12.6785.0462-20.6107-.0462z" fill="#fff" stroke="#000"/><path d="m114.4413,785.0942h33.2945v23.562h-12.6785-20.616z" fill="#fff" stroke="#000"/><path d="m161.2012,755.0032h31.003v29.9843l-12.371.0462-18.632-.0462z" fill="#fff" stroke="#000"/><path d="m161.2012,785.1177h31.003v23.5386h-12.3657-18.6373z" fill="#fff" stroke="#000"/><path d="m698.9751,178.7124h26.063l8.4969,31.9702h-25.721z" fill="#fff" stroke="#000" transform="translate(65.7813,340.25)"/><text font-family="Sans" font-size="40" letter-spacing="0" transform="translate(65.7813,340.25)" word-spacing="0" x="638" xml:space="preserve" y="572.4063"><tspan x="638" y="572.4063"></tspan></text><text font-family="Sans" font-size="10.953" letter-spacing="0" transform="scale(.913,1.096)" word-spacing="0" x="951.1225" xml:space="preserve" y="329.1387"><tspan x="951.1225" y="329.1387">157</tspan></text><text font-family="Sans" font-size="10.953" letter-spacing="0" transform="scale(.913,1.096)" word-spacing="0" x="812.1063" xml:space="preserve" y="384.4674"><tspan x="812.1063" y="384.4674">160</tspan></text><text font-family="Sans" font-size="10.953" letter-spacing="0" transform="scale(.913,1.096)" word-spacing="0" x="832.0269" xml:space="preserve" y="432.658"><tspan x="832.0269" y="432.658">150</tspan></text><text font-family="Sans" font-size="10.953" letter-spacing="0" transform="scale(.913,1.096)" word-spacing="0" x="836.9804" xml:space="preserve" y="447.6871"><tspan x="836.9804" y="447.6871">164</tspan></text><text font-family="Sans" font-size="10.953" letter-spacing="0" transform="scale(.913,1.096)" word-spacing="0" x="138.3872" xml:space="preserve" y="447.6167"><tspan x="138.3872" y="447.6167">19.9</tspan></text><text font-family="Sans" font-size="10.953" letter-spacing="0" transform="scale(.913,1.096)" word-spacing="0" x="138.3872" xml:space="preserve" y="463.0252"><tspan x="138.3872" y="463.0252">19.8</tspan></text><text font-family="Sans" font-size="10.953" letter-spacing="0" transform="scale(.913,1.096)" word-spacing="0" x="146.8895" xml:space="preserve" y="431.967"><tspan x="146.8895" y="431.967">19.10</tspan></text><text font-family="Sans" font-size="10.953" letter-spacing="0" transform="scale(.913,1.096)" word-spacing="0" x="138.3872" xml:space="preserve" y="507.647"><tspan x="138.3872" y="507.647">19.6</tspan></text><text font-family="Sans" font-size="10.953" letter-spacing="0" transform="scale(.913,1.096)" word-spacing="0" x="187.4847" xml:space="preserve" y="507.6469"><tspan x="187.4847" y="507.6469">19.5</tspan></text><text font-family="Sans" font-size="10.953" letter-spacing="0" transform="scale(.913,1.096)" word-spacing="0" x="187.4847" xml:space="preserve" y="534.4265"><tspan x="187.4847" y="534.4265">19.4</tspan></text><text font-family="Sans" font-size="10.953" letter-spacing="0" transform="scale(.913,1.096)" word-spacing="0" x="138.3872" xml:space="preserve" y="534.4208"><tspan x="138.3872" y="534.4208">19.3</tspan></text><text font-family="Sans" font-size="10.953" letter-spacing="0" transform="scale(.913,1.096)" word-spacing="0" x="138.3872" xml:space="preserve" y="563.2692"><tspan x="138.3872" y="563.2692">19.2</tspan></text><text font-family="Sans" font-size="10.953" letter-spacing="0" transform="scale(.913,1.096)" word-spacing="0" x="187.4847" xml:space="preserve" y="563.2693"><tspan x="187.4847" y="563.2693">19.1</tspan></text><text font-family="Sans" font-size="10.953" letter-spacing="0" transform="scale(.913,1.096)" word-spacing="0" x="140.3767" xml:space="preserve" y="627.1164"><tspan x="140.3767" y="627.1164">139</tspan></text><text font-family="Sans" font-size="10.953" letter-spacing="0" transform="scale(.913,1.096)" word-spacing="0" x="141.0615" xml:space="preserve" y="647.5358"><tspan x="141.0615" y="647.5358">138</tspan></text><text font-family="Sans" font-size="10.953" letter-spacing="0" transform="scale(.913,1.096)" word-spacing="0" x="191.0202" xml:space="preserve" y="647.5355"><tspan x="191.0202" y="647.5355">137</tspan></text><text font-family="Sans" font-size="10.953" letter-spacing="0" transform="scale(.913,1.096)" word-spacing="0" x="191.0202" xml:space="preserve" y="676.9638"><tspan x="191.0202" y="676.9638">139</tspan></text><path d="m161.2073,521.4146 30.9706-.0151-.0002,23.9563h-30.9706z" fill="#fff" stroke="#000" stroke-width=".9887"/><g transform="matrix(0,-1.145,1.7667,0,-574.6192,918.48621)"><path d="m336.7156,431.1282h10.4039" fill="none" stroke="#b3b3b3" stroke-width=".542"/><path d="m336.7891,433.8063v-17.0969" fill="none" stroke="#b3b3b3" stroke-width=".5259"/><path d="m336.7156,428.7183h10.4039" fill="none" stroke="#b3b3b3" stroke-width=".542"/><path d="m336.7156,426.3082h10.4039" fill="none" stroke="#b3b3b3" stroke-width=".542"/><path d="m336.7156,423.8983h10.4039" fill="none" stroke="#b3b3b3" stroke-width=".542"/><path d="m336.7156,421.4882h10.4039" fill="none" stroke="#b3b3b3" stroke-width=".542"/><path d="m336.7156,419.0783h10.4039" fill="none" stroke="#b3b3b3" stroke-width=".542"/></g><path d="m166.1353,675.6065 39.196-.0128c3.8125,1.3116 11.1875,16.5759 0,23.95h-39.2681z" fill="#fff" stroke="#000"/><path d="m787.7181,550.2876-7.8049-30.7553" fill="none" stroke="#b3b3b3" stroke-width=".8013"/><path d="m258.7313,858.5368v43.3585h-56.2433v-43.1527z" fill="#e6e6e6" stroke="#000"/><path d="m236.5001,130.7234c-.0359-10.1482 8.2736-18.4036 18.5599-18.439s18.654,8.1626 18.6899,18.3107c7e-005,.0214.0001.0428.0001.0641" fill="#ececec" stroke="#000" transform="matrix(0,1.16146,-1.0499,0,404.67817,143.78611)"/><path d="m236.5001,130.7234c-.0359-10.1482 8.2736-18.4036 18.5599-18.439s18.654,8.1626 18.6899,18.3107c7e-005,.0214.0001.0428.0001.0641" fill="#e6e6e6" stroke="#000" transform="matrix(0,1.16561,-1.00286,0,388.92525,582.83889)"/><path d="m852.9742,518.9626h23.163l-7.7141,31.97h-8.8489z" fill="#fff" stroke="#000" stroke-width="1.0027"/><path d="m812.5482,550.9326 4.839-23.658h-24.289l6.1045,23.658z" fill="#fff" stroke="#000" stroke-width=".9999"/><path d="m837.5102,518.9626h15.564l6.4,31.97h-21.964z" fill="#fff" stroke="#000"/><path d="m817.3872,527.2747 20.123-.0004v23.6582h-24.962z" fill="#fff" stroke="#000"/><path d="m730.271,178.7222h23.304" fill="none" stroke="#000" transform="translate(60.5482,340.2403)"/><path d="m776.962,178.7222h-17.087" fill="none" stroke="#000" transform="translate(60.5482,340.2403)"/><text font-family="Sans" font-size="10.953" letter-spacing="0" transform="scale(.913,1.096)" word-spacing="0" x="899.3123" xml:space="preserve" y="490.3431"><tspan x="899.3123" y="490.3431">151</tspan></text><path d="m856.05,461.1816h22.9463l-12.6656,57.781h-22.6557z" fill="#fff" stroke="#000"/><path d="m873.9884,377.9656h22.9463l-11.7656,57.2077h-22.6557z" fill="#fff" stroke="#000"/><path d="m877.5653,496.9753h2.625v2.75h-2.625z" fill="#fff" stroke="#000" stroke-width=".5"/><path d="m885.776,460.9146h2.625v2.75h-2.625z" fill="#fff" stroke="#000" stroke-width=".5"/><path d="m891.651,431.7075h2.625v2.75h-2.625z" fill="#fff" stroke="#000" stroke-width=".5"/><path d="m898.5653,398.2253h2.625v2.75h-2.625z" fill="#fff" stroke="#000" stroke-width=".5"/><g transform="matrix(2.02726,0,0,1.70392,36.92275,-302.65702)"><path d="m325.9587,431.1282h10.7731" fill="none" stroke="#b3b3b3" stroke-width=".542"/><path d="m336.7891,432.7721v-20.2897" fill="none" stroke="#b3b3b3" stroke-width=".5607"/><path d="m325.9587,428.7183h10.7731" fill="none" stroke="#b3b3b3" stroke-width=".542"/><path d="m325.9587,426.3082h10.7731" fill="none" stroke="#b3b3b3" stroke-width=".542"/><path d="m325.9587,423.8983h10.7731" fill="none" stroke="#b3b3b3" stroke-width=".542"/><path d="m325.9587,421.4882h10.7731" fill="none" stroke="#b3b3b3" stroke-width=".542"/><path d="m325.9587,419.0783h10.7731" fill="none" stroke="#b3b3b3" stroke-width=".542"/><path d="m325.9587,416.6683h10.7731" fill="none" stroke="#b3b3b3" stroke-width=".542"/><path d="m325.8326,414.2779h10.7731" fill="none" stroke="#b3b3b3" stroke-width=".542"/><path d="m336.5497,421.4882h10.6498" fill="none" stroke="#b3b3b3" stroke-width=".5389"/><path d="m336.5497,419.0783h10.6498" fill="none" stroke="#b3b3b3" stroke-width=".5389"/><path d="m336.5497,416.6683h10.6498" fill="none" stroke="#b3b3b3" stroke-width=".5389"/><path d="m336.4236,414.2779h10.7731" fill="none" stroke="#b3b3b3" stroke-width=".542"/><path d="m336.7692,423.8382h10.4352" fill="none" stroke="#b3b3b3" stroke-width=".5334"/><path d="m79.0601,439.0948h10.6498" fill="none" stroke="#b3b3b3" stroke-width=".5389"/><g transform="translate(-71.0216,-31.7983)"><g transform="matrix(.49328,0,0,.58688,49.08511,209.52668)"><path d="m161.1172,418.3345h33.3863v43.3038h-33.3863z" fill="#fff" stroke="#000" stroke-width="1.1336"/></g><path d="m133.0218,455.1968v24.681" fill="none" stroke="#b3b3b3" stroke-width=".7521"/><path d="m135.0474,455.1968v24.681" fill="none" stroke="#b3b3b3" stroke-width=".7521"/><path d="m137.0565,454.9046v24.9667" fill="none" stroke="#b3b3b3" stroke-width=".7564"/><path d="m139.0026,455.1968v24.681" fill="none" stroke="#b3b3b3" stroke-width=".7521"/><path d="m141.0282,455.1968v24.681" fill="none" stroke="#b3b3b3" stroke-width=".7521"/><path d="m143.0373,454.9046v24.9667" fill="none" stroke="#b3b3b3" stroke-width=".7564"/><path d="m130.9357,455.4192v24.681" fill="none" stroke="#b3b3b3" stroke-width=".7521"/></g><g transform="translate(-68.3912,226.9381)"><g transform="matrix(.49328,0,0,.58688,49.08511,209.52668)"><path d="m161.1172,418.3345h33.3863v43.3038h-33.3863z" fill="#fff" stroke="#000" stroke-width="1.1336"/></g><path d="m133.0218,455.1968v24.9751" fill="none" stroke="#b3b3b3" stroke-width=".7566"/><path d="m135.0474,455.1968v24.9751" fill="none" stroke="#b3b3b3" stroke-width=".7566"/><path d="m137.0565,455.2968v24.8686" fill="none" stroke="#b3b3b3" stroke-width=".755"/><path d="m139.0026,455.1968v24.877" fill="none" stroke="#b3b3b3" stroke-width=".7551"/><path d="m141.0282,455.1968v24.9751" fill="none" stroke="#b3b3b3" stroke-width=".7566"/><path d="m143.0373,455.3949v24.6725" fill="none" stroke="#b3b3b3" stroke-width=".752"/><path d="m130.9357,455.4192v24.681" fill="none" stroke="#b3b3b3" stroke-width=".7521"/></g></g><path d="m744.6494,383.8628h13.3176v22.5176h-13.3176z" fill="#ffe6d5" id="def" stroke="#000" stroke-width=".9824"/><path d="m697.6382,369.1216 43.66,1e-005h-.095" fill="none" stroke="#000"/><path d="m697.7161,378.0864v7.5" fill="none" stroke="#fff" stroke-width="1.4031"/><path d="m697.6849,356.1489v7.5" fill="none" stroke="#fff" stroke-width="1.4031"/><path d="m637.09,59.4242v35.561h-131.071v69.271h30v46.436h-135.297v-46.436h30.489v-69.277h-166.417v-16.885h-95.435v-22.16h39.035v-33h56.4v-12.41h55.35v48.9z" fill="#f9f9f9" stroke="#000" transform="translate(60.5482,340.2403)"/><text font-family="Arial" font-size="8" letter-spacing="0" word-spacing="0" x="497.0837" xml:space="preserve" y="380.4619"><tspan font-size="20" x="497.0837" y="380.4619"></tspan></text><path d="m53.893,10.5332h154.501v45.401h-39.035v22.16h-115.466z" fill="#fff" id="cdo" stroke="#000" transform="translate(60.5482,340.2403)"/><text font-family="Sans" font-size="10.953" letter-spacing="0" transform="scale(.913,1.096)" word-spacing="0" x="270.6877" xml:space="preserve" y="331.5614"><tspan x="270.6877" y="331.5614">101</tspan></text><text font-family="Tahoma" font-size="3.388" letter-spacing="0" transform="scale(.996,1.004)" word-spacing="0" x="119.8385" xml:space="preserve" y="364.8788"><tspan font-family="Tahoma" font-size="13.551" x="119.8385" y="364.8788">ЦДО</tspan></text><path d="m206.25,78.0942h-79.7v43.304h-25.981l.09,35.358-.0899,24.3615 31.0608.003h76.764v-60.114" fill="#ececec" stroke="#000" transform="translate(60.5482,340.2403)"/><path d="m114.4413,521.4146 33.299-.0151-.0002,23.9563h-33.299z" fill="#fff" stroke="#000" stroke-width=".9887"/><text font-family="Sans" font-size="10.953" letter-spacing="0" transform="scale(.913,1.096)" word-spacing="0" x="138.3872" xml:space="preserve" y="486.5285"><tspan x="138.3872" y="486.5285">19.7</tspan></text><path d="m114.4412,730.3165h33.315v24.6637l-12.6986.0462-20.6164-.0462z" fill="#fff" stroke="#000"/><text font-family="Sans" font-size="10.953" letter-spacing="0" transform="scale(.913,1.096)" word-spacing="0" x="141.0615" xml:space="preserve" y="676.9692"><tspan x="141.0615" y="676.9692">140</tspan></text><text font-family="Sans" font-size="10.953" letter-spacing="0" transform="scale(.913,1.096)" word-spacing="0" x="141.0615" xml:space="preserve" y="699.5623"><tspan x="141.0615" y="699.5623">142</tspan></text><text font-family="Sans" font-size="10.953" letter-spacing="0" transform="scale(.913,1.096)" word-spacing="0" x="143.2527" xml:space="preserve" y="726.4885"><tspan x="143.2527" y="726.4885">144</tspan></text><text font-family="Sans" font-size="10.953" letter-spacing="0" transform="scale(.913,1.096)" word-spacing="0" x="191.0202" xml:space="preserve" y="726.3493"><tspan x="191.0202" y="726.3493">143</tspan></text><text font-family="Sans" font-size="10.953" letter-spacing="0" transform="scale(.913,1.096)" word-spacing="0" x="191.0202" xml:space="preserve" y="699.5621"><tspan x="191.0202" y="699.5621">141</tspan></text><path d="m161.2012,808.644 26.6307.025v20.4723h-26.6307z" fill="#fff" stroke="#000" stroke-width=".9268"/><path d="m114.4333,808.6641 33.2922-.0151-.0002,31.5913h-33.2922z" fill="#fff" stroke="#000"/><path d="m114.4295,840.2275 77.7745.0249v18.2691l-77.7745.0001z" fill="#fff" stroke="#000"/><path d="m188.1948,808.6526 24.4702.0252v20.4635h-24.4702z" fill="#fff" stroke="#000"/><path d="m212.604,808.6526 24.4702.0252v20.4635h-24.4702z" fill="#fff" stroke="#000"/><path d="m236.7219,808.9082 21.8091.0487v32.0103h-21.8091z" fill="#fff" stroke="#000" stroke-width="1.5538"/><text font-family="Sans" font-size="10.953" letter-spacing="0" transform="scale(.913,1.096)" word-spacing="0" x="213.686" xml:space="preserve" y="747.3159"><tspan x="213.686" y="747.3159">147</tspan></text><text font-family="Sans" font-size="10.953" letter-spacing="0" transform="scale(.913,1.096)" word-spacing="0" x="240.0937" xml:space="preserve" y="747.3159"><tspan x="240.0937" y="747.3159">147</tspan></text><text font-family="Sans" font-size="10.953" letter-spacing="0" transform="scale(.913,1.096)" word-spacing="0" x="186.6378" xml:space="preserve" y="747.3102"><tspan x="186.6378" y="747.3102">145</tspan></text><text font-family="Sans" font-size="10.953" letter-spacing="0" transform="scale(.913,1.096)" word-spacing="0" x="191.3562" xml:space="preserve" y="776.3848"><tspan x="191.3562" y="776.3848">151</tspan></text><path d="m226.031,840.2275 32.5.0249v18.2691l-32.5.0001z" fill="#e6e6e6" stroke="#000"/><path d="m226.031,901.8955 32.512.0249v18.2691l-32.512.0001z" fill="#e6e6e6" stroke="#000"/><path d="m202.7269,902.1838 55.9706.0245v17.9812l-55.9706.0001z" fill="#e6e6e6" stroke="#000" stroke-width="1.5297"/><path d="m114.441,901.8959 20.666.0249 2.8,3.2005v15.068l-23.466.0001z" fill="#fff" stroke="#000"/><path d="m135.364,579.9253v6.807h9.281v23h57.055v-29.807z" fill="#fff" stroke="#000" transform="translate(56.843,340.264)"/><path d="m57.598,579.9253h77.766v6.807h9.281v23h-87.047z" fill="#fff" stroke="#000" transform="translate(56.843,340.264)"/><text font-family="Sans" font-size="10.953" letter-spacing="0" transform="scale(.913,1.096)" word-spacing="0" x="262.0176" xml:space="preserve" y="849.4816"><tspan x="262.0176" y="849.4816">100</tspan></text><path d="m787.2269,548.2199h10.7192" fill="none" stroke="#b3b3b3" stroke-width=".6193"/><path d="m786.7268,545.5193h10.7192" fill="none" stroke="#b3b3b3" stroke-width=".6193"/><path d="m785.8266,542.7188h10.7192" fill="none" stroke="#b3b3b3" stroke-width=".6193"/><path d="m785.3265,540.0182h10.7192" fill="none" stroke="#b3b3b3" stroke-width=".6193"/><path d="m784.6263,537.4176h10.7192" fill="none" stroke="#b3b3b3" stroke-width=".6193"/><path d="m783.8261,534.7171h10.7192" fill="none" stroke="#b3b3b3" stroke-width=".6193"/><path d="m782.926,531.9165h10.7192" fill="none" stroke="#b3b3b3" stroke-width=".6193"/><path d="m782.4259,529.2159h10.7192" fill="none" stroke="#b3b3b3" stroke-width=".6193"/><path d="m781.7257,526.4153h10.7192" fill="none" stroke="#b3b3b3" stroke-width=".6193"/><path d="m780.8255,523.6147h10.7192" fill="none" stroke="#b3b3b3" stroke-width=".6193"/><path d="m780.3254,520.9142h10.7192" fill="none" stroke="#b3b3b3" stroke-width=".6193"/><g transform="matrix(0,-1.145,1.7667,0,-569.79619,1029.4154)"><path d="m336.7156,431.1282h11.1333" fill="none" stroke="#b3b3b3" stroke-width=".5607"/><path d="m336.7891,433.8063v-17.0969" fill="none" stroke="#b3b3b3" stroke-width=".5259"/><path d="m336.7156,428.7183h11.2445" fill="none" stroke="#b3b3b3" stroke-width=".5635"/><path d="m336.7156,426.3082h11.2445" fill="none" stroke="#b3b3b3" stroke-width=".5635"/><path d="m336.7156,423.8983h11.2445" fill="none" stroke="#b3b3b3" stroke-width=".5635"/><path d="m336.7156,421.4882h11.2445" fill="none" stroke="#b3b3b3" stroke-width=".5635"/><path d="m336.7156,419.0783h11.2445" fill="none" stroke="#b3b3b3" stroke-width=".5635"/><path d="m336.7156,433.5811h11.1333" fill="none" stroke="#b3b3b3" stroke-width=".5607"/></g><g transform="matrix(0,-1.145,1.7667,0,-569.79619,1074.6335)"><path d="m336.7156,431.1282h11.1333" fill="none" stroke="#b3b3b3" stroke-width=".5607"/><path d="m336.7891,433.8063v-17.0969" fill="none" stroke="#b3b3b3" stroke-width=".5259"/><path d="m336.7156,428.7183h11.2445" fill="none" stroke="#b3b3b3" stroke-width=".5635"/><path d="m336.7156,426.3082h11.2445" fill="none" stroke="#b3b3b3" stroke-width=".5635"/><path d="m336.7156,423.8983h11.2445" fill="none" stroke="#b3b3b3" stroke-width=".5635"/><path d="m336.7156,421.4882h11.2445" fill="none" stroke="#b3b3b3" stroke-width=".5635"/><path d="m336.7156,419.0783h11.2445" fill="none" stroke="#b3b3b3" stroke-width=".5635"/><path d="m336.7156,433.5811h11.1333" fill="none" stroke="#b3b3b3" stroke-width=".5607"/></g><text font-family="Sans" font-size="10.953" letter-spacing="0" transform="scale(.913,1.096)" word-spacing="0" x="262.4014" xml:space="preserve" y="747.1581"><tspan x="262.4014" y="747.1581">147</tspan><tspan x="262.4014" y="760.8494"></tspan></text><path d="m202.7279,839.889 55.9761.0246v18.0359l-55.9761.0001z" fill="#f9f9f9" stroke="#000" stroke-width="1.5321"/><path d="m60.8308,141.2341v-28.9292h13.0943 13.0943v-21.6208-21.6208h40.6949c34.5184,0 41.1649.1396 43.7914.9196 4.333,1.2868 8.7481,5.4122 11.266,10.5267 1.7869,3.6297 1.9973,4.6067 1.9913,9.2481-.006,4.5302-.2467,5.6979-1.8956,9.1899-1.0389,2.2002-2.9544,5.0465-4.2566,6.3252-2.558,2.5119-7.6197,5.1894-9.8284,5.1989l-1.3703.006v29.8428 29.8428h-53.2907-53.2907v-28.9292z" fill="#f9f9f9" transform="translate(100.9063,350.25)"/><path d="m1.1452,292.5514v-11.2672h22.5343 22.5343v11.2672 11.2672h-22.5343-22.5343v-11.2672z" fill="#f9f9f9" transform="translate(100.9063,350.25)"/><path d="m644.6815,44.7819v-10.6581h5.7858 5.7858v10.6581 10.6581h-5.7858-5.7858v-10.6581z" fill="#f9f9f9" transform="translate(100.9063,350.25)"/><text font-family="Tahoma" font-size="3.388" letter-spacing="0" transform="scale(.996,1.004)" word-spacing="0" x="386.979" xml:space="preserve" y="364.8788"><tspan font-family="Tahoma" font-size="13.551" x="386.979" y="364.8788">СТОЛОВАЯ</tspan></text>    <text font-family="Sans" font-size="4" letter-spacing="0" transform="translate(100.9063,350.25)" word-spacing="0" x="108.4085" xml:space="preserve" y="483.315"><tspan x="108.4085" y="483.315"></tspan></text><path d="m103.104,530.3688v-20.8484h28.7568c27.7509,0 28.904.0992 32.9646,2.8356 8.9306,6.0183 11.618,18.0656 6.3385,28.4142-4.6058,9.0282-6.8188,9.5921-39.4316,10.0473l-28.6283.3997v-20.8484z" fill="#f9f9f9" transform="translate(100.9063,350.25)"/><path d="m103.104,561.1142v-7.5503h26.4261 26.4261v7.5503 7.5503h-26.4261-26.4261v-7.5503z" fill="#f9f9f9" transform="translate(100.9063,350.25)"/><text font-family="Sans" font-size="10.953" letter-spacing="0" transform="scale(.913,1.096)" word-spacing="0" x="225.6281" xml:space="preserve" y="754.4149"><tspan x="225.6281" y="754.4149">а</tspan></text><text font-family="Sans" font-size="10.953" letter-spacing="0" transform="scale(.913,1.096)" word-spacing="0" x="251.8004" xml:space="preserve" y="755.6331"><tspan x="251.8004" y="755.6331">б</tspan></text><text font-family="Sans" font-size="10.953" letter-spacing="0" transform="scale(.913,1.096)" word-spacing="0" x="275.9032" xml:space="preserve" y="764.9636"><tspan x="275.9032" y="764.9636">в</tspan></text></g>
</svg>
