<svg height="812.75" preserveAspectRatio="xMinYMin meet" viewBox="0 0 812.75 600.25" width="812.75" xmlns="http://www.w3.org/2000/svg">
<g transform="translate(-100.9202,-350.2642)">
<path d="m904.9417,350.7642-.002,18.3522v29.6744l-36.4003,152.1414h-94.6697l-32.2145-115.713h-175.0885v50.045h-74.808v-50.045h-166.417v-16.885h-56.4v103.0261h-76.7185l-.0189,109.308h13.044l-.044,23.95h-12.9901v20.988h12.9901v23.95h-13v7.5712 102.5032l66.627.0253 .023,140.3407h-144.4128l-.0002-244.364v-6.0763h-13.021v-23.95h-5e-005v-20.988h.036-.0359v-23.95h13.0212v-279.904h154.5003v12.4h56.4v-12.4z" fill="#e6e6e6" stroke="#000"/>
<path d="m166.1353,630.6563h39.196c3.8125,1.3116 11.1875,16.5759 0,23.95h-39.2681z" fill="#e6e6e6" stroke="#000"/>
<path d="m268.9188,418.3346v43.3732h-35.2435v-43.3732z" fill="#e6e6e6" stroke="#000"/><text font-family="Sans" font-size="40" letter-spacing="0" transform="translate(65.7813,340.25)" word-spacing="0" x="638" xml:space="preserve" y="572.4063"><tspan x="638" y="572.4063"></tspan></text>
<path d="m166.1353,675.5938h39.196c3.8125,1.3116 11.1875,16.5759 0,23.95h-39.2681z" fill="#fff" stroke="#000"/>
<g transform="matrix(0,-.90561,1.94165,0,-638.84505,994.22901)">
<path d="m325.9587,433.5384h11.0016" fill="none" stroke="#b3b3b3" stroke-width=".542"/>
<path d="m325.9587,431.1282h11.0016" fill="none" stroke="#b3b3b3" stroke-width=".542"/>
<path d="m336.7891,433.8063v-18.9611" fill="none" stroke="#b3b3b3" stroke-width=".542"/>
<path d="m325.9587,428.7183h11.0016" fill="none" stroke="#b3b3b3" stroke-width=".542"/>
<path d="m325.9587,426.3082h11.0016" fill="none" stroke="#b3b3b3" stroke-width=".542"/>
<path d="m325.9587,423.8983h11.0016" fill="none" stroke="#b3b3b3" stroke-width=".542"/>
<path d="m325.9587,421.4882h11.0016" fill="none" stroke="#b3b3b3" stroke-width=".542"/>
<path d="m325.9587,419.0783h11.0016" fill="none" stroke="#b3b3b3" stroke-width=".542"/>
<path d="m325.9587,416.6683h11.0016" fill="none" stroke="#b3b3b3" stroke-width=".542"/>
</g>
<path d="m258.8312,858.5368v43.3585h-35.3434v-43.1527z" fill="#e6e6e6" stroke="#000"/>
<path d="m236.5001,130.7234c-.0359-10.1482 8.2736-18.4036 18.5599-18.439s18.654,8.1626 18.6899,18.3107c7e-005,.0214.0001.0428.0001.0641" fill="#e6e6e6" stroke="#000" transform="matrix(0,1.16146,-1.11014,0,411.44343,143.78608)"/>
<path d="m236.5001,130.7234c-.0359-10.1482 8.2736-18.4036 18.5599-18.439s18.654,8.1626 18.6899,18.3107c7e-005,.0214.0001.0428.0001.0641" fill="#e6e6e6" stroke="#000" transform="matrix(0,1.16561,-1.00286,0,388.92568,582.83933)"/>
<path d="m222.2282,849.2746h36.0997v66h-36.0997z" fill="#e6e6e6"/>
<path d="m232.3046,407.3328h36.0997v66h-36.0997z" fill="#e6e6e6"/>
<path d="m149.827,629.4456h41.8841l.1159,26.15h-41.8841z" fill="#e6e6e6"/>
<path d="m114.4412,699.5566h17.007v30.718h60.4357l.6407,33.9994-78.0833-.3204z" fill="#fff" stroke="#000"/>
<path d="m53.893,359.3162h51.658" fill="none" stroke="#000" transform="translate(60.5482,340.2403)"/>
<path d="m105.587,335.3532h-34.687v-15.319h-17.007v39.282" fill="#f9f9f9" stroke="#000" transform="translate(60.5482,340.2403)"/>
<path d="m140.4351,763.851v-8.4211" fill="none" stroke="#000"/>
<path d="m140.5482,730.2746v8.466" fill="none" stroke="#000"/>
<path d="m178.4351,763.851v-17.1214" fill="none" stroke="#000"/>
<path d="m178.5482,730.2746v14.166" fill="none" stroke="#000"/><text font-family="Sans" font-size="10.953" letter-spacing="0" transform="scale(.913,1.096)" word-spacing="0" x="176.2058" xml:space="preserve" y="677.0664"><tspan x="176.2058" y="677.0664">601</tspan></text>
<path d="m178.3591,703.281v26.9624h-24.0524v-26.9624z" fill="#fff" stroke="#000" stroke-width=".8926"/>
<g transform="matrix(1.09158,0,0,1.27304,-201.05377,175.54718)">
<path d="m325.9587,433.5384h21.1608" fill="none" stroke="#b3b3b3" stroke-width=".542"/>
<path d="m325.9587,431.1282h21.1608" fill="none" stroke="#b3b3b3" stroke-width=".542"/>
<path d="m336.7891,433.8063v-18.9611" fill="none" stroke="#b3b3b3" stroke-width=".542"/>
<path d="m325.9587,428.7183h21.1608" fill="none" stroke="#b3b3b3" stroke-width=".542"/>
<path d="m325.9587,426.3082h21.1608" fill="none" stroke="#b3b3b3" stroke-width=".542"/>
<path d="m325.9587,423.8983h21.1608" fill="none" stroke="#b3b3b3" stroke-width=".542"/>
<path d="m325.9587,421.4882h21.1608" fill="none" stroke="#b3b3b3" stroke-width=".542"/>
<path d="m325.9587,419.0783h21.1608" fill="none" stroke="#b3b3b3" stroke-width=".542"/>
<path d="m325.9587,416.6683h21.1608" fill="none" stroke="#b3b3b3" stroke-width=".542"/>
</g>
<path d="m58.2506,358.1961c.648-.648 44.6961-21.0935 45.4442-21.0935 .2637,0 .4794,4.8757.4794,10.835v10.8349h-23.25c-12.7875,0-22.9906-.2594-22.6736-.5764z" fill="#f2f2f2" transform="translate(60.5482,340.2403)"/>
<path d="m55.4169,339.279v-18.4289h7.449 7.449v8.0804 8.0804l14.4928.3844 14.4928.3844-20.2489,9.2903c-11.1369,5.1097-21.0107,9.5935-21.9419,9.9641-1.3044.5191-1.693-3.5556-1.693-17.7551z" fill="#f2f2f2" transform="translate(60.5482,340.2403)"/>
</g>
</svg>
